0
SECTION
2
HEADER
9
$INSUNITS
70
4
9
$ACADVER
1
AC1014
9
$HANDSEED
5
FFFF
0
ENDSEC
0
SECTION
2
TABLES
0
TABLE
2
VPORT
5
8
100
AcDbSymbolTable
0
ENDTAB
0
TABLE
2
LTYPE
5
5
100
AcDbSymbolTable
0
LTYPE
5
14
100
AcDbSymbolTableRecord
100
AcDbLinetypeTableRecord
2
BYBLOCK
70
0
0
LTYPE
5
15
100
AcDbSymbolTableRecord
100
AcDbLinetypeTableRecord
2
BYLAYER
70
0
0
ENDTAB
0
TABLE
2
LAYER
5
2
100
AcDbSymbolTable
70
2
0
LAYER
5
50
100
AcDbSymbolTableRecord
100
AcDbLayerTableRecord
2
0
70
0
6
CONTINUOUS
0
ENDTAB
0
TABLE
2
STYLE
5
3
100
AcDbSymbolTable
70
1
0
STYLE
5
11
100
AcDbSymbolTableRecord
100
AcDbTextStyleTableRecord
2
STANDARD
70
0
0
ENDTAB
0
TABLE
2
VIEW
5
6
100
AcDbSymbolTable
70
0
0
ENDTAB
0
TABLE
2
UCS
5
7
100
AcDbSymbolTable
70
0
0
ENDTAB
0
TABLE
2
APPID
5
9
100
AcDbSymbolTable
70
2
0
APPID
5
12
100
AcDbSymbolTableRecord
100
AcDbRegAppTableRecord
2
ACAD
70
0
0
ENDTAB
0
TABLE
2
DIMSTYLE
5
A
100
AcDbSymbolTable
70
1
0
ENDTAB
0
TABLE
2
BLOCK_RECORD
5
1
100
AcDbSymbolTable
70
1
0
BLOCK_RECORD
5
1F
100
AcDbSymbolTableRecord
100
AcDbBlockTableRecord
2
*MODEL_SPACE
0
BLOCK_RECORD
5
1B
100
AcDbSymbolTableRecord
100
AcDbBlockTableRecord
2
*PAPER_SPACE
0
ENDTAB
0
ENDSEC
0
SECTION
2
BLOCKS
0
BLOCK
5
20
100
AcDbEntity
100
AcDbBlockBegin
2
*MODEL_SPACE
0
ENDBLK
5
21
100
AcDbEntity
100
AcDbBlockEnd
0
BLOCK
5
1C
100
AcDbEntity
100
AcDbBlockBegin
2
*PAPER_SPACE
0
ENDBLK
5
1D
100
AcDbEntity
100
AcDbBlockEnd
0
ENDSEC
0
SECTION
2
ENTITIES
0
LWPOLYLINE
5
100
100
AcDbEntity
8
0
100
AcDbPolyline
90
34
70
1
43
0.0
10
-57.499894423227929
20
-147.5
10
57.500105554284247
20
-147.5
10
57.5
20
-99.989699999999999
10
82.5
20
-99.989699999999999
42
0.41421356237309592
10
102.5
20
-79.989699999999999
10
102.5
20
-39.989699999999992
42
0.41421356237309542
10
82.5
20
-19.989699999999999
10
65.43698699981951
20
-19.989699999999999
42
-0.41236333683208037
10
55.437186786679639
20
-10.052911528123678
10
54.895155995145075
20
75.694099904848088
42
-0.41606621174830605
10
64.894956208284938
20
85.757311432971761
10
91.774300175056567
20
85.757311432971761
42
0.023115374527797022
10
92.697434352735684
20
85.800011432971729
10
102.00000074505806
20
85.800011432971729
10
102.00000074505806
20
123.21228205556557
10
102.06373060168838
20
123.21228205556557
42
0.99999999999999989
10
86.063730601688377
20
123.21228205556557
10
45.000000298023224
20
123.21228205556557
42
0.99999999999999989
10
29.000000298023227
20
123.21228205556557
10
-29.000000298023227
20
123.21228205556557
42
0.99999999999999989
10
-45.000000298023224
20
123.21228205556557
10
-86.010015347292864
20
123.21228205556557
42
0.99999999999999989
10
-102.01001534729288
20
123.21228205556557
10
-102.00000074505806
20
123.21228205556557
10
-102.00000074505806
20
85.800011432971729
10
-65.504532522212031
20
85.800011432971758
42
-0.41419972973265512
10
-55.50453253336439
20
75.800483711167146
10
-55.500472300500604
20
-10.170727721804589
42
-0.41422739514883278
10
-65.500472289348266
20
-20.171200000000002
10
-82.5
20
-20.171200000000013
42
0.41421356237309542
10
-102.5
20
-40.171199999999999
10
-102.5
20
-80.171199999999999
42
0.41421356237309503
10
-82.5
20
-100.1712
10
-57.5
20
-100.1712
0
LWPOLYLINE
5
101
100
AcDbEntity
8
0
100
AcDbPolyline
90
4
70
1
43
0.0
10
34.00930000000001
20
-105.37779999999999
10
-30.928900000000002
20
-105.37779999999999
10
-30.928900000000006
20
-40.377799999999993
10
34.00930000000001
20
-40.377799999999993
0
LINE
5
102
100
AcDbEntity
8
0
100
AcDbLine
10
-30.928900000000002
20
-105.37779999999999
30
0
11
34.00930000000001
21
-105.37779999999999
31
0
0
LINE
5
103
100
AcDbEntity
8
0
100
AcDbLine
10
34.00930000000001
20
-105.37779999999999
30
0
11
34.00930000000001
21
-40.377799999999993
31
0
0
LINE
5
104
100
AcDbEntity
8
0
100
AcDbLine
10
34.00930000000001
20
-40.377799999999993
30
0
11
-30.928900000000006
21
-40.377799999999993
31
0
0
LINE
5
105
100
AcDbEntity
8
0
100
AcDbLine
10
-30.928900000000006
20
-40.377799999999993
30
0
11
-30.928900000000002
21
-105.37779999999999
31
0
0
LWPOLYLINE
5
106
100
AcDbEntity
8
0
100
AcDbPolyline
90
4
70
1
43
0.0
10
44.681899999999999
20
29.936700000000002
10
-45.318100000000001
20
29.936700000000002
10
-45.318100000000001
20
50.107300000000016
10
44.681899999999999
20
50.107300000000016
0
LINE
5
107
100
AcDbEntity
8
0
100
AcDbLine
10
-45.318100000000001
20
29.936700000000002
30
0
11
44.681899999999999
21
29.936700000000002
31
0
0
LINE
5
108
100
AcDbEntity
8
0
100
AcDbLine
10
44.681899999999999
20
29.936700000000002
30
0
11
44.681899999999999
21
50.107300000000016
31
0
0
LINE
5
109
100
AcDbEntity
8
0
100
AcDbLine
10
44.681899999999999
20
50.107300000000016
30
0
11
-45.318100000000001
21
50.107300000000016
31
0
0
LINE
5
110
100
AcDbEntity
8
0
100
AcDbLine
10
-45.318100000000001
20
50.107300000000016
30
0
11
-45.318100000000001
21
29.936700000000002
31
0
0
CIRCLE
5
111
100
AcDbEntity
8
0
100
AcDbCircle
10
38
20
60
30
0
40
1.4999999999999989
210
0
220
0
230
1
0
CIRCLE
5
112
100
AcDbEntity
8
0
100
AcDbCircle
10
-38
20
60
30
0
40
1.4999999999999989
210
0
220
0
230
1
0
CIRCLE
5
113
100
AcDbEntity
8
0
100
AcDbCircle
10
-38
20
-34
30
0
40
1.5000000000000013
210
0
220
0
230
1
0
CIRCLE
5
114
100
AcDbEntity
8
0
100
AcDbCircle
10
38
20
-34
30
0
40
1.499999999999998
210
0
220
0
230
1
0
CIRCLE
5
115
100
AcDbEntity
8
0
100
AcDbCircle
10
15
20
13.936700000000002
30
0
40
1.4999999999999991
210
0
220
0
230
1
0
CIRCLE
5
116
100
AcDbEntity
8
0
100
AcDbCircle
10
-15.000000000000004
20
13.9367
30
0
40
1.4999999999999991
210
0
220
0
230
1
0
CIRCLE
5
117
100
AcDbEntity
8
0
100
AcDbCircle
10
-17.5
20
-131.5
30
0
40
1.4999999999999971
210
0
220
0
230
1
0
CIRCLE
5
118
100
AcDbEntity
8
0
100
AcDbCircle
10
17.500000000000014
20
-131.50000000000003
30
0
40
1.4999999999999971
210
0
220
0
230
1
0
LINE
5
119
100
AcDbEntity
8
0
100
AcDbLine
10
-38
20
60
30
0
11
-38
21
58.500000000000007
31
0
0
LINE
5
120
100
AcDbEntity
8
0
100
AcDbLine
10
-38
20
-32.5
30
0
11
-38
21
-34
31
0
0
LINE
5
121
100
AcDbEntity
8
0
100
AcDbLine
10
38
20
60
30
0
11
38
21
58.500000000000007
31
0
0
LINE
5
122
100
AcDbEntity
8
0
100
AcDbLine
10
38
20
-32.500000000000007
30
0
11
38
21
-34
31
0
0
CIRCLE
5
123
100
AcDbEntity
8
0
100
AcDbCircle
10
-55.000000819563866
20
-44.000000655651093
30
0
40
1.5000000223517418
210
0
220
0
230
1
0
CIRCLE
5
124
100
AcDbEntity
8
0
100
AcDbCircle
10
-72.000001072883606
20
-75.00000111758709
30
0
40
1.4999999999999971
210
0
220
0
230
1
0
CIRCLE
5
125
100
AcDbEntity
8
0
100
AcDbCircle
10
-50.00000074505806
20
99.800011432971758
30
0
40
1.4999999999999971
210
0
220
0
230
1
0
CIRCLE
5
126
100
AcDbEntity
8
0
100
AcDbCircle
10
-20.000000298023224
20
99.800011432971758
30
0
40
1.4999999999999967
210
0
220
0
230
1
0
CIRCLE
5
127
100
AcDbEntity
8
0
100
AcDbCircle
10
20.000000298023224
20
99.757311432971761
30
0
40
1.4999999999999996
210
0
220
0
230
1
0
CIRCLE
5
128
100
AcDbEntity
8
0
100
AcDbCircle
10
50.00000074505806
20
99.757311432971761
30
0
40
1.4999999999999989
210
0
220
0
230
1
0
CIRCLE
5
129
100
AcDbEntity
8
0
100
AcDbCircle
10
80.00000074505806
20
99.757311432971761
30
0
40
1.5000000000000016
210
0
220
0
230
1
0
CIRCLE
5
130
100
AcDbEntity
8
0
100
AcDbCircle
10
-80.00000074505806
20
99.800011432971786
30
0
40
1.5000000000000036
210
0
220
0
230
1
0
CIRCLE
5
131
100
AcDbEntity
8
0
100
AcDbCircle
10
94.063730601688377
20
123.21228205556557
30
0
40
1.9999999999999947
210
0
220
0
230
1
0
CIRCLE
5
132
100
AcDbEntity
8
0
100
AcDbCircle
10
-94.010015347292878
20
123.21228205556557
30
0
40
2.0000000000000044
210
0
220
0
230
1
0
CIRCLE
5
133
100
AcDbEntity
8
0
100
AcDbCircle
10
-37.000000298023224
20
123.21228205556557
30
0
40
1.999999999999996
210
0
220
0
230
1
0
CIRCLE
5
134
100
AcDbEntity
8
0
100
AcDbCircle
10
37.000000298023224
20
123.21228205556557
30
0
40
1.9999999999999942
210
0
220
0
230
1
0
LINE
5
135
100
AcDbEntity
8
0
100
AcDbLine
10
45.000000298023224
20
123.21228205556557
30
0
11
86.063730601688377
21
123.21228205556557
31
0
0
LINE
5
136
100
AcDbEntity
8
0
100
AcDbLine
10
86.063730601688377
20
123.21228205556557
30
0
11
45.000000298023224
21
123.21228205556557
31
0
0
LINE
5
137
100
AcDbEntity
8
0
100
AcDbLine
10
102.00000074505806
20
123.21228205556557
30
0
11
102.06373060168838
21
123.21228205556557
31
0
0
LINE
5
138
100
AcDbEntity
8
0
100
AcDbLine
10
-29.000000298023227
20
123.21228205556557
30
0
11
29.000000298023227
21
123.21228205556557
31
0
0
LINE
5
139
100
AcDbEntity
8
0
100
AcDbLine
10
29.000000298023227
20
123.21228205556557
30
0
11
-29.000000298023227
21
123.21228205556557
31
0
0
LINE
5
140
100
AcDbEntity
8
0
100
AcDbLine
10
-102.00000074505806
20
123.21228205556557
30
0
11
-102.01001534729288
21
123.21228205556557
31
0
0
LINE
5
141
100
AcDbEntity
8
0
100
AcDbLine
10
-86.010015347292864
20
123.21228205556557
30
0
11
-45.000000298023224
21
123.21228205556557
31
0
0
LINE
5
142
100
AcDbEntity
8
0
100
AcDbLine
10
-45.000000298023224
20
123.21228205556557
30
0
11
-86.010015347292864
21
123.21228205556557
31
0
0
ENDSEC
0
SECTION
2
OBJECTS
0
DICTIONARY
5
C
100
AcDbDictionary
3
ACAD_GROUP
350
D
3
ACAD_MLINESTYLE
350
17
0
DICTIONARY
5
D
100
AcDbDictionary
0
DICTIONARY
5
1A
330
C
100
AcDbDictionary
0
DICTIONARY
5
17
100
AcDbDictionary
0
ENDSEC
0
EOF
