0
SECTION
2
HEADER
9
$INSUNITS
70
4
9
$ACADVER
1
AC1014
9
$HANDSEED
5
FFFF
0
ENDSEC
0
SECTION
2
TABLES
0
TABLE
2
VPORT
5
8
100
AcDbSymbolTable
0
ENDTAB
0
TABLE
2
LTYPE
5
5
100
AcDbSymbolTable
0
LTYPE
5
14
100
AcDbSymbolTableRecord
100
AcDbLinetypeTableRecord
2
BYBLOCK
70
0
0
LTYPE
5
15
100
AcDbSymbolTableRecord
100
AcDbLinetypeTableRecord
2
BYLAYER
70
0
0
ENDTAB
0
TABLE
2
LAYER
5
2
100
AcDbSymbolTable
70
2
0
LAYER
5
50
100
AcDbSymbolTableRecord
100
AcDbLayerTableRecord
2
0
70
0
6
CONTINUOUS
0
ENDTAB
0
TABLE
2
STYLE
5
3
100
AcDbSymbolTable
70
1
0
STYLE
5
11
100
AcDbSymbolTableRecord
100
AcDbTextStyleTableRecord
2
STANDARD
70
0
0
ENDTAB
0
TABLE
2
VIEW
5
6
100
AcDbSymbolTable
70
0
0
ENDTAB
0
TABLE
2
UCS
5
7
100
AcDbSymbolTable
70
0
0
ENDTAB
0
TABLE
2
APPID
5
9
100
AcDbSymbolTable
70
2
0
APPID
5
12
100
AcDbSymbolTableRecord
100
AcDbRegAppTableRecord
2
ACAD
70
0
0
ENDTAB
0
TABLE
2
DIMSTYLE
5
A
100
AcDbSymbolTable
70
1
0
ENDTAB
0
TABLE
2
BLOCK_RECORD
5
1
100
AcDbSymbolTable
70
1
0
BLOCK_RECORD
5
1F
100
AcDbSymbolTableRecord
100
AcDbBlockTableRecord
2
*MODEL_SPACE
0
BLOCK_RECORD
5
1B
100
AcDbSymbolTableRecord
100
AcDbBlockTableRecord
2
*PAPER_SPACE
0
ENDTAB
0
ENDSEC
0
SECTION
2
BLOCKS
0
BLOCK
5
20
100
AcDbEntity
100
AcDbBlockBegin
2
*MODEL_SPACE
0
ENDBLK
5
21
100
AcDbEntity
100
AcDbBlockEnd
0
BLOCK
5
1C
100
AcDbEntity
100
AcDbBlockBegin
2
*PAPER_SPACE
0
ENDBLK
5
1D
100
AcDbEntity
100
AcDbBlockEnd
0
ENDSEC
0
SECTION
2
ENTITIES
0
CIRCLE
5
100
100
AcDbEntity
8
0
100
AcDbCircle
10
79.975317373700662
20
-10.879905952689874
30
0
40
1.4999999999999929
210
0
220
0
230
1
0
CIRCLE
5
101
100
AcDbEntity
8
0
100
AcDbCircle
10
-80.024682698801271
20
-10.879905952689874
30
0
40
1.4999999999999989
210
0
220
0
230
1
0
CIRCLE
5
102
100
AcDbEntity
8
0
100
AcDbCircle
10
-20.024682698801271
20
-10.879905952689874
30
0
40
1.499999999999998
210
0
220
0
230
1
0
CIRCLE
5
103
100
AcDbEntity
8
0
100
AcDbCircle
10
49.975317301198729
20
-10.879905952689874
30
0
40
1.4999999999999964
210
0
220
0
230
1
0
CIRCLE
5
104
100
AcDbEntity
8
0
100
AcDbCircle
10
19.975317301198729
20
-10.879905952689871
30
0
40
1.4999999999999996
210
0
220
0
230
1
0
CIRCLE
5
105
100
AcDbEntity
8
0
100
AcDbCircle
10
-50.024682698801271
20
-10.879905952689874
30
0
40
1.5000000000000022
210
0
220
0
230
1
0
LINE
5
106
100
AcDbEntity
8
0
100
AcDbLine
10
-67.528153824185239
20
12.532094047310132
30
0
11
-69.02468365447946
21
12.532094047310132
31
0
0
CIRCLE
5
107
100
AcDbEntity
8
0
100
AcDbCircle
10
-94.024682698801243
20
12.53209404731013
30
0
40
1.999999999999996
210
0
220
0
230
1
0
CIRCLE
5
108
100
AcDbEntity
8
0
100
AcDbCircle
10
-37.024682698801271
20
12.532094047310132
30
0
40
2.0000000000000027
210
0
220
0
230
1
0
CIRCLE
5
109
100
AcDbEntity
8
0
100
AcDbCircle
10
36.975317301198729
20
12.532094047310128
30
0
40
2.0000000000000018
210
0
220
0
230
1
0
CIRCLE
5
110
100
AcDbEntity
8
0
100
AcDbCircle
10
93.997520117451018
20
12.532094047310128
30
0
40
2.0000000000000053
210
0
220
0
230
1
0
ARC
5
111
100
AcDbEntity
8
0
100
AcDbCircle
10
-94.024682698801243
20
12.53209404731013
30
0
40
8.0000000000000071
210
0
220
-0
230
1
100
AcDbArc
50
0
51
180
0
ARC
5
112
100
AcDbEntity
8
0
100
AcDbCircle
10
-37.024682698801271
20
12.532094047310132
30
0
40
8.0000000000000036
210
0
220
-0
230
1
100
AcDbArc
50
0
51
180
0
ARC
5
113
100
AcDbEntity
8
0
100
AcDbCircle
10
36.975317301198729
20
12.532094047310128
30
0
40
8.0000000000000036
210
0
220
-0
230
1
100
AcDbArc
50
0
51
180
0
ARC
5
114
100
AcDbEntity
8
0
100
AcDbCircle
10
93.997520117451018
20
12.532094047310128
30
0
40
7.9999999999999893
210
0
220
-0
230
1
100
AcDbArc
50
0
51
180
0
LINE
5
115
100
AcDbEntity
8
0
100
AcDbLine
10
101.99752011745102
20
12.532094047310128
30
0
11
102.00000000000001
21
12.532094047310132
31
0
0
LINE
5
116
100
AcDbEntity
8
0
100
AcDbLine
10
44.975317301198736
20
12.532094047310132
30
0
11
85.997520117451032
21
12.532094047310128
31
0
0
LINE
5
117
100
AcDbEntity
8
0
100
AcDbLine
10
44.975317301198736
20
12.532094047310132
30
0
11
85.997520117451032
21
12.532094047310128
31
0
0
LINE
5
118
100
AcDbEntity
8
0
100
AcDbLine
10
44.975317301198736
20
12.532094047310132
30
0
11
85.997520117451032
21
12.532094047310128
31
0
0
LINE
5
119
100
AcDbEntity
8
0
100
AcDbLine
10
44.975317301198736
20
12.532094047310132
30
0
11
85.997520117451032
21
12.532094047310128
31
0
0
LINE
5
120
100
AcDbEntity
8
0
100
AcDbLine
10
44.975317301198736
20
12.532094047310132
30
0
11
85.997520117451032
21
12.532094047310128
31
0
0
LINE
5
121
100
AcDbEntity
8
0
100
AcDbLine
10
44.975317301198736
20
12.532094047310132
30
0
11
85.997520117451032
21
12.532094047310128
31
0
0
LINE
5
122
100
AcDbEntity
8
0
100
AcDbLine
10
-29.024682698801271
20
12.532094047310132
30
0
11
28.975317446202595
21
12.532094047310132
31
0
0
LINE
5
123
100
AcDbEntity
8
0
100
AcDbLine
10
-29.024682698801271
20
12.532094047310132
30
0
11
28.975317446202595
21
12.532094047310132
31
0
0
LINE
5
124
100
AcDbEntity
8
0
100
AcDbLine
10
-29.024682698801271
20
12.532094047310132
30
0
11
28.975317446202595
21
12.532094047310132
31
0
0
LINE
5
125
100
AcDbEntity
8
0
100
AcDbLine
10
-29.024682698801271
20
12.532094047310132
30
0
11
28.975317446202595
21
12.532094047310132
31
0
0
LINE
5
126
100
AcDbEntity
8
0
100
AcDbLine
10
-29.024682698801271
20
12.532094047310132
30
0
11
28.975317446202595
21
12.532094047310132
31
0
0
LINE
5
127
100
AcDbEntity
8
0
100
AcDbLine
10
-29.024682698801271
20
12.532094047310132
30
0
11
28.975317446202595
21
12.532094047310132
31
0
0
LINE
5
128
100
AcDbEntity
8
0
100
AcDbLine
10
-102.00000000000001
20
12.532094047310132
30
0
11
-102.02468269880126
21
12.532094047310132
31
0
0
LINE
5
129
100
AcDbEntity
8
0
100
AcDbLine
10
-102.00000000000001
20
12.532094047310132
30
0
11
-102.02468269880126
21
12.532094047310132
31
0
0
LINE
5
130
100
AcDbEntity
8
0
100
AcDbLine
10
-86.024682698801229
20
12.532094047310132
30
0
11
-45.024682698801271
21
12.532094047310132
31
0
0
LINE
5
131
100
AcDbEntity
8
0
100
AcDbLine
10
-86.024682698801229
20
12.532094047310132
30
0
11
-45.024682698801271
21
12.532094047310132
31
0
0
LINE
5
132
100
AcDbEntity
8
0
100
AcDbLine
10
-86.024682698801229
20
12.532094047310132
30
0
11
-45.024682698801271
21
12.532094047310132
31
0
0
LINE
5
133
100
AcDbEntity
8
0
100
AcDbLine
10
-86.024682698801229
20
12.532094047310132
30
0
11
-69.02468365447946
21
12.532094047310132
31
0
0
LINE
5
134
100
AcDbEntity
8
0
100
AcDbLine
10
-86.024682698801229
20
12.532094047310132
30
0
11
-45.024682698801271
21
12.532094047310132
31
0
0
LINE
5
135
100
AcDbEntity
8
0
100
AcDbLine
10
-86.024682698801229
20
12.532094047310132
30
0
11
-45.024682698801271
21
12.532094047310132
31
0
0
LINE
5
136
100
AcDbEntity
8
0
100
AcDbLine
10
-86.024682698801229
20
12.532094047310132
30
0
11
-45.024682698801271
21
12.532094047310132
31
0
0
LINE
5
137
100
AcDbEntity
8
0
100
AcDbLine
10
27.039157004350667
20
-24.86790595268987
30
0
11
27.039157004350663
21
-294.86790595268985
31
0
0
LINE
5
138
100
AcDbEntity
8
0
100
AcDbLine
10
27.039157004350663
20
-294.86790595268985
30
0
11
-26.92470406172156
21
-294.86790595268985
31
0
0
LINE
5
139
100
AcDbEntity
8
0
100
AcDbLine
10
-26.92470406172156
20
-294.86790595268985
30
0
11
-26.92470406172156
21
-24.86790595268987
31
0
0
CIRCLE
5
140
100
AcDbEntity
8
0
100
AcDbCircle
10
-94.024682698801243
20
-24.86790595268987
30
0
40
2.0000000000000044
210
0
220
0
230
1
0
CIRCLE
5
141
100
AcDbEntity
8
0
100
AcDbCircle
10
93.997520117451018
20
-24.86790595268987
30
0
40
1.9999999999999951
210
0
220
0
230
1
0
ARC
5
142
100
AcDbEntity
8
0
100
AcDbCircle
10
93.997520117451018
20
-24.86790595268987
30
0
40
8.0000000000000071
210
0
220
0
230
1
100
AcDbArc
50
-180
51
0
0
ARC
5
143
100
AcDbEntity
8
0
100
AcDbCircle
10
-94.024682698801243
20
-24.86790595268987
30
0
40
8.0000000000000071
210
0
220
0
230
1
100
AcDbArc
50
-180
51
0
0
LINE
5
144
100
AcDbEntity
8
0
100
AcDbLine
10
-102.00000000000001
20
-24.86790595268987
30
0
11
-102.02468269880126
21
-24.86790595268987
31
0
0
LINE
5
145
100
AcDbEntity
8
0
100
AcDbLine
10
-26.92470406172156
20
-24.86790595268987
30
0
11
-86.024682698801229
21
-24.86790595268987
31
0
0
LINE
5
146
100
AcDbEntity
8
0
100
AcDbLine
10
102.00000000000001
20
-24.86790595268987
30
0
11
101.99752011745103
21
-24.86790595268987
31
0
0
LINE
5
147
100
AcDbEntity
8
0
100
AcDbLine
10
85.997520117451018
20
-24.86790595268987
30
0
11
27.039157004350667
21
-24.86790595268987
31
0
0
ARC
5
148
100
AcDbEntity
8
0
100
AcDbCircle
10
80.529748660958461
20
-6.1679059526898738
30
0
40
28.470251339041521
210
-0
220
0
230
1
100
AcDbArc
50
-41.058248904555583
51
41.058248904555633
0
ARC
5
149
100
AcDbEntity
8
0
100
AcDbCircle
10
-80.44609813062236
20
-6.1679059526898738
30
0
40
28.553901869377647
210
0
220
0
230
1
100
AcDbArc
50
139.0878002662744
51
220.9121997337256
0
LINE
5
150
100
AcDbEntity
8
0
100
AcDbLine
10
102.00000000000001
20
12.532094047310132
30
0
11
102.00000000000001
21
12.529246738203481
31
0
0
LINE
5
151
100
AcDbEntity
8
0
100
AcDbLine
10
102.00000000000001
20
-24.86505864358325
30
0
11
102.00000000000001
21
-24.86790595268987
31
0
0
ENDSEC
0
SECTION
2
OBJECTS
0
DICTIONARY
5
C
100
AcDbDictionary
3
ACAD_GROUP
350
D
3
ACAD_MLINESTYLE
350
17
0
DICTIONARY
5
D
100
AcDbDictionary
0
DICTIONARY
5
1A
330
C
100
AcDbDictionary
0
DICTIONARY
5
17
100
AcDbDictionary
0
ENDSEC
0
EOF
