0
SECTION
2
HEADER
9
$INSUNITS
70
4
9
$ACADVER
1
AC1014
9
$HANDSEED
5
FFFF
0
ENDSEC
0
SECTION
2
TABLES
0
TABLE
2
VPORT
5
8
100
AcDbSymbolTable
0
ENDTAB
0
TABLE
2
LTYPE
5
5
100
AcDbSymbolTable
0
LTYPE
5
14
100
AcDbSymbolTableRecord
100
AcDbLinetypeTableRecord
2
BYBLOCK
70
0
0
LTYPE
5
15
100
AcDbSymbolTableRecord
100
AcDbLinetypeTableRecord
2
BYLAYER
70
0
0
ENDTAB
0
TABLE
2
LAYER
5
2
100
AcDbSymbolTable
70
2
0
LAYER
5
50
100
AcDbSymbolTableRecord
100
AcDbLayerTableRecord
2
0
70
0
6
CONTINUOUS
0
ENDTAB
0
TABLE
2
STYLE
5
3
100
AcDbSymbolTable
70
1
0
STYLE
5
11
100
AcDbSymbolTableRecord
100
AcDbTextStyleTableRecord
2
STANDARD
70
0
0
ENDTAB
0
TABLE
2
VIEW
5
6
100
AcDbSymbolTable
70
0
0
ENDTAB
0
TABLE
2
UCS
5
7
100
AcDbSymbolTable
70
0
0
ENDTAB
0
TABLE
2
APPID
5
9
100
AcDbSymbolTable
70
2
0
APPID
5
12
100
AcDbSymbolTableRecord
100
AcDbRegAppTableRecord
2
ACAD
70
0
0
ENDTAB
0
TABLE
2
DIMSTYLE
5
A
100
AcDbSymbolTable
70
1
0
ENDTAB
0
TABLE
2
BLOCK_RECORD
5
1
100
AcDbSymbolTable
70
1
0
BLOCK_RECORD
5
1F
100
AcDbSymbolTableRecord
100
AcDbBlockTableRecord
2
*MODEL_SPACE
0
BLOCK_RECORD
5
1B
100
AcDbSymbolTableRecord
100
AcDbBlockTableRecord
2
*PAPER_SPACE
0
ENDTAB
0
ENDSEC
0
SECTION
2
BLOCKS
0
BLOCK
5
20
100
AcDbEntity
100
AcDbBlockBegin
2
*MODEL_SPACE
0
ENDBLK
5
21
100
AcDbEntity
100
AcDbBlockEnd
0
BLOCK
5
1C
100
AcDbEntity
100
AcDbBlockBegin
2
*PAPER_SPACE
0
ENDBLK
5
1D
100
AcDbEntity
100
AcDbBlockEnd
0
ENDSEC
0
SECTION
2
ENTITIES
0
LWPOLYLINE
5
100
100
AcDbEntity
8
0
100
AcDbPolyline
90
4
70
1
43
0.0
10
-45.318100000000001
20
50.107300000000016
10
44.681899999999999
20
50.107300000000016
10
44.681899999999999
20
29.936700000000002
10
-45.318100000000001
20
29.936700000000002
0
ARC
5
101
100
AcDbEntity
8
0
100
AcDbCircle
10
65.436988018305584
20
-9.989699757778391
30
0
40
9.9999999999999929
210
0
220
0
230
1
100
AcDbArc
50
180.36217949810398
51
270.00000011068971
0
LINE
5
102
100
AcDbEntity
8
0
100
AcDbLine
10
44.681899999999999
20
50.107300000000016
30
0
11
-45.318100000000001
21
50.107300000000016
31
0
0
LINE
5
103
100
AcDbEntity
8
0
100
AcDbLine
10
57.499999999999993
20
-99.989699991383105
30
0
11
57.500105554284247
21
-147.5
31
0
0
LWPOLYLINE
5
104
100
AcDbEntity
8
0
100
AcDbPolyline
90
4
70
1
43
0.0
10
-30.928900000000006
20
-40.377799999999993
10
34.00930000000001
20
-40.377799999999993
10
34.00930000000001
20
-105.37779999999999
10
-30.928900000000002
20
-105.37779999999999
0
LINE
5
105
100
AcDbEntity
8
0
100
AcDbLine
10
-29.06400025493673
20
123.21228205556557
30
0
11
28.936000745063279
21
123.21228205556557
31
0
0
LINE
5
106
100
AcDbEntity
8
0
100
AcDbLine
10
28.936000745063279
20
123.21228205556557
30
0
11
-29.06400025493673
21
123.21228205556557
31
0
0
LINE
5
107
100
AcDbEntity
8
0
100
AcDbLine
10
-45.318100000000001
20
29.936700000000002
30
0
11
44.681899999999999
21
29.936700000000002
31
0
0
LINE
5
108
100
AcDbEntity
8
0
100
AcDbLine
10
101.93600074505807
20
123.21228205556557
30
0
11
101.99973060168838
21
123.21228205556557
31
0
0
LINE
5
109
100
AcDbEntity
8
0
100
AcDbLine
10
102.50000001658765
20
-39.989699711314202
30
0
11
102.50000004358785
21
-79.989699971435016
31
0
0
CIRCLE
5
110
100
AcDbEntity
8
0
100
AcDbCircle
10
49.936000745063268
20
99.757322636948373
30
0
40
1.4999999999999989
210
0
220
0
230
1
0
LINE
5
111
100
AcDbEntity
8
0
100
AcDbLine
10
-102.06501534729287
20
123.21228205556557
30
0
11
-102.06400025493672
21
123.21228205556557
31
0
0
LINE
5
112
100
AcDbEntity
8
0
100
AcDbLine
10
92.697434352735684
20
85.800011432971729
30
0
11
101.93600074505807
21
85.800011432971729
31
0
0
ARC
5
113
100
AcDbEntity
8
0
100
AcDbCircle
10
64.894954600714897
20
75.757322636948373
30
0
40
10
210
0
220
0
230
1
100
AcDbArc
50
90.000000000000099
51
180.36217949810398
0
CIRCLE
5
114
100
AcDbEntity
8
0
100
AcDbCircle
10
-20.064000254936726
20
99.800011432971758
30
0
40
1.4999999999999967
210
0
220
0
230
1
0
CIRCLE
5
115
100
AcDbEntity
8
0
100
AcDbCircle
10
79.936000745063268
20
99.757322636948373
30
0
40
1.5000000000000016
210
0
220
0
230
1
0
LINE
5
116
100
AcDbEntity
8
0
100
AcDbLine
10
-86.065015347292871
20
123.21228205556557
30
0
11
-45.06400025493673
21
123.21228205556557
31
0
0
LINE
5
117
100
AcDbEntity
8
0
100
AcDbLine
10
38
20
60
30
0
11
38
21
58.500000000000007
31
0
0
CIRCLE
5
118
100
AcDbEntity
8
0
100
AcDbCircle
10
-15.000000000000004
20
13.9367
30
0
40
1.4999999999999991
210
0
220
0
230
1
0
LINE
5
119
100
AcDbEntity
8
0
100
AcDbLine
10
44.936000745063268
20
123.21228205556557
30
0
11
85.99973060168837
21
123.21228205556557
31
0
0
ARC
5
120
100
AcDbEntity
8
0
100
AcDbCircle
10
-65.500472289348295
20
-10.171199999999974
30
0
40
10.000000000000028
210
0
220
0
230
1
100
AcDbArc
50
-89.999999999999844
51
0.0027059545909627835
0
LINE
5
121
100
AcDbEntity
8
0
100
AcDbLine
10
101.99973060168838
20
123.21228205556557
30
0
11
101.93600074505807
21
123.21228205556557
31
0
0
LINE
5
122
100
AcDbEntity
8
0
100
AcDbLine
10
-102.06400025493672
20
123.21228205556557
30
0
11
-102.06501534729287
21
123.21228205556557
31
0
0
CIRCLE
5
123
100
AcDbEntity
8
0
100
AcDbCircle
10
-55.000000819563866
20
-44.000000655651093
30
0
40
1.5000000223517418
210
0
220
0
230
1
0
ARC
5
124
100
AcDbEntity
8
0
100
AcDbCircle
10
-94.065015347292871
20
123.21228205556557
30
0
40
8.0000000000000071
210
0
220
-0
230
1
100
AcDbArc
50
0
51
180
0
CIRCLE
5
125
100
AcDbEntity
8
0
100
AcDbCircle
10
-50.06400025493673
20
99.800011432971758
30
0
40
1.4999999999999971
210
0
220
0
230
1
0
CIRCLE
5
126
100
AcDbEntity
8
0
100
AcDbCircle
10
-94.065015347292871
20
123.21228205556557
30
0
40
2.0000000000000044
210
0
220
0
230
1
0
LINE
5
127
100
AcDbEntity
8
0
100
AcDbLine
10
-38
20
60
30
0
11
-38
21
58.500000000000007
31
0
0
CIRCLE
5
128
100
AcDbEntity
8
0
100
AcDbCircle
10
-80.06400025493673
20
99.800011432971743
30
0
40
1.5000000000000036
210
0
220
0
230
1
0
CIRCLE
5
129
100
AcDbEntity
8
0
100
AcDbCircle
10
19.936000745063275
20
99.757322636948373
30
0
40
1.4999999999999996
210
0
220
0
230
1
0
ARC
5
130
100
AcDbEntity
8
0
100
AcDbCircle
10
82.500000043587889
20
-79.989699984935129
30
0
40
19.999999999999964
210
0
220
0
230
1
100
AcDbArc
50
-89.999999985222274
51
0
0
ARC
5
131
100
AcDbEntity
8
0
100
AcDbCircle
10
36.936000745063275
20
123.21228205556557
30
0
40
7.9999999999999938
210
0
220
-0
230
1
100
AcDbArc
50
0
51
180
0
ARC
5
132
100
AcDbEntity
8
0
100
AcDbCircle
10
-37.06400025493673
20
123.21228205556557
30
0
40
7.9999999999999982
210
0
220
-0
230
1
100
AcDbArc
50
0
51
180
0
LINE
5
133
100
AcDbEntity
8
0
100
AcDbLine
10
85.99973060168837
20
123.21228205556557
30
0
11
44.936000745063268
21
123.21228205556557
31
0
0
CIRCLE
5
134
100
AcDbEntity
8
0
100
AcDbCircle
10
-38
20
-34
30
0
40
1.5000000000000013
210
0
220
0
230
1
0
LINE
5
135
100
AcDbEntity
8
0
100
AcDbLine
10
-29.06400025493673
20
123.21228205556557
30
0
11
28.936000745063279
21
123.21228205556557
31
0
0
LINE
5
136
100
AcDbEntity
8
0
100
AcDbLine
10
-30.928900000000006
20
-40.377799999999993
30
0
11
-30.928900000000002
21
-105.37779999999999
31
0
0
CIRCLE
5
137
100
AcDbEntity
8
0
100
AcDbCircle
10
17.500000000000014
20
-131.50000000000003
30
0
40
1.4999999999999971
210
0
220
0
230
1
0
CIRCLE
5
138
100
AcDbEntity
8
0
100
AcDbCircle
10
-38
20
60
30
0
40
1.4999999999999989
210
0
220
0
230
1
0
ARC
5
139
100
AcDbEntity
8
0
100
AcDbCircle
10
82.500000016587677
20
-39.989699724814308
30
0
40
19.999999999999982
210
-0
220
0
230
1
100
AcDbArc
50
0
51
90.000000110689768
0
LINE
5
140
100
AcDbEntity
8
0
100
AcDbLine
10
38
20
-32.500000000000007
30
0
11
38
21
-34
31
0
0
CIRCLE
5
141
100
AcDbEntity
8
0
100
AcDbCircle
10
38
20
60
30
0
40
1.4999999999999989
210
0
220
0
230
1
0
LINE
5
142
100
AcDbEntity
8
0
100
AcDbLine
10
-82.5
20
-20.171200000000013
30
0
11
-65.500472289348266
21
-20.171200000000002
31
0
0
LINE
5
143
100
AcDbEntity
8
0
100
AcDbLine
10
-86.065015347292871
20
123.21228205556557
30
0
11
-45.06400025493673
21
123.21228205556557
31
0
0
ARC
5
144
100
AcDbEntity
8
0
100
AcDbCircle
10
-82.500000000000014
20
-40.171199999999992
30
0
40
19.999999999999982
210
0
220
-0
230
1
100
AcDbArc
50
89.999999999999972
51
180
0
LINE
5
145
100
AcDbEntity
8
0
100
AcDbLine
10
-45.06400025493673
20
123.21228205556557
30
0
11
-86.065015347292871
21
123.21228205556557
31
0
0
CIRCLE
5
146
100
AcDbEntity
8
0
100
AcDbCircle
10
36.936000745063275
20
123.21228205556557
30
0
40
1.9999999999999942
210
0
220
0
230
1
0
ARC
5
147
100
AcDbEntity
8
0
100
AcDbCircle
10
-82.5
20
-80.171199999999999
30
0
40
20
210
0
220
0
230
1
100
AcDbArc
50
180
51
270
0
CIRCLE
5
148
100
AcDbEntity
8
0
100
AcDbCircle
10
93.999730601688384
20
123.21228205556557
30
0
40
1.9999999999999947
210
0
220
0
230
1
0
LINE
5
149
100
AcDbEntity
8
0
100
AcDbLine
10
101.93600074505807
20
85.800011432971729
30
0
11
101.93600074505807
21
123.21228205556557
31
0
0
LINE
5
150
100
AcDbEntity
8
0
100
AcDbLine
10
57.500105554284247
20
-147.5
30
0
11
-57.499894423227921
21
-147.5
31
0
0
ARC
5
151
100
AcDbEntity
8
0
100
AcDbCircle
10
91.774421033666471
20
95.757322636947464
30
0
40
9.9999999999990941
210
-0
220
0
230
1
100
AcDbArc
50
270.00000000000477
51
275.29601492527155
0
ARC
5
152
100
AcDbEntity
8
0
100
AcDbCircle
10
93.999730601688384
20
123.21228205556557
30
0
40
8.0000000000000071
210
0
220
-0
230
1
100
AcDbArc
50
0
51
180
0
LINE
5
153
100
AcDbEntity
8
0
100
AcDbLine
10
34.00930000000001
20
-40.377799999999993
30
0
11
-30.928900000000006
21
-40.377799999999993
31
0
0
LINE
5
154
100
AcDbEntity
8
0
100
AcDbLine
10
44.936000745063268
20
123.21228205556557
30
0
11
85.99973060168837
21
123.21228205556557
31
0
0
LINE
5
155
100
AcDbEntity
8
0
100
AcDbLine
10
-102.06400025493672
20
85.800011432971729
30
0
11
-65.504532522212031
21
85.800011432971743
31
0
0
ARC
5
156
100
AcDbEntity
8
0
100
AcDbCircle
10
-65.504532522212074
20
75.800011432971729
30
0
40
10.00000000000002
210
0
220
-0
230
1
100
AcDbArc
50
0.0027059545909627835
51
89.999999999999773
0
LINE
5
157
100
AcDbEntity
8
0
100
AcDbLine
10
-45.318100000000001
20
50.107300000000016
30
0
11
-45.318100000000001
21
29.936700000000002
31
0
0
LINE
5
158
100
AcDbEntity
8
0
100
AcDbLine
10
-38
20
-32.5
30
0
11
-38
21
-34
31
0
0
LINE
5
159
100
AcDbEntity
8
0
100
AcDbLine
10
54.895154389459755
20
75.694110810667297
30
0
11
55.437187807050456
21
-10.052911584059459
31
0
0
CIRCLE
5
160
100
AcDbEntity
8
0
100
AcDbCircle
10
-17.5
20
-131.5
30
0
40
1.4999999999999971
210
0
220
0
230
1
0
LINE
5
161
100
AcDbEntity
8
0
100
AcDbLine
10
-57.499894423227921
20
-147.5
30
0
11
-57.5
21
-100.1712
31
0
0
CIRCLE
5
162
100
AcDbEntity
8
0
100
AcDbCircle
10
-72.000001072883606
20
-75.00000111758709
30
0
40
1.4999999999999971
210
0
220
0
230
1
0
CIRCLE
5
163
100
AcDbEntity
8
0
100
AcDbCircle
10
38
20
-34
30
0
40
1.499999999999998
210
0
220
0
230
1
0
LINE
5
164
100
AcDbEntity
8
0
100
AcDbLine
10
82.500000048746287
20
-99.989699984935086
30
0
11
57.499999999999993
21
-99.989699991383105
31
0
0
LINE
5
165
100
AcDbEntity
8
0
100
AcDbLine
10
91.774421033667309
20
85.757322636948373
30
0
11
64.894954600714883
21
85.757322636948373
31
0
0
CIRCLE
5
166
100
AcDbEntity
8
0
100
AcDbCircle
10
-37.06400025493673
20
123.21228205556557
30
0
40
1.999999999999996
210
0
220
0
230
1
0
LINE
5
167
100
AcDbEntity
8
0
100
AcDbLine
10
34.00930000000001
20
-105.37779999999999
30
0
11
34.00930000000001
21
-40.377799999999993
31
0
0
LINE
5
168
100
AcDbEntity
8
0
100
AcDbLine
10
-30.928900000000002
20
-105.37779999999999
30
0
11
34.00930000000001
21
-105.37779999999999
31
0
0
LINE
5
169
100
AcDbEntity
8
0
100
AcDbLine
10
44.681899999999999
20
29.936700000000002
30
0
11
44.681899999999999
21
50.107300000000016
31
0
0
LINE
5
170
100
AcDbEntity
8
0
100
AcDbLine
10
-102.5
20
-80.171199999999999
30
0
11
-102.5
21
-40.171199999999999
31
0
0
LINE
5
171
100
AcDbEntity
8
0
100
AcDbLine
10
-102.06400025493672
20
123.21228205556557
30
0
11
-102.06400025493672
21
85.800011432971729
31
0
0
LINE
5
172
100
AcDbEntity
8
0
100
AcDbLine
10
-57.5
20
-100.1712
30
0
11
-82.5
21
-100.1712
31
0
0
CIRCLE
5
173
100
AcDbEntity
8
0
100
AcDbCircle
10
15
20
13.936700000000002
30
0
40
1.4999999999999991
210
0
220
0
230
1
0
LINE
5
174
100
AcDbEntity
8
0
100
AcDbLine
10
65.436988037624587
20
-19.989699757778375
30
0
11
82.499999977949656
21
-19.989699724814326
31
0
0
LINE
5
175
100
AcDbEntity
8
0
100
AcDbLine
10
-55.500472300500604
20
-10.170727721804589
30
0
11
-55.50453253336439
21
75.800483711167146
31
0
0
CIRCLE
5
176
100
AcDbEntity
8
0
100
AcDbCircle
10
93.936000745058053
20
85.800011432971729
30
0
40
2.0000000000000009
210
0
220
0
230
1
0
CIRCLE
5
177
100
AcDbEntity
8
0
100
AcDbCircle
10
-94.064000254936701
20
85.800011432971729
30
0
40
1.9999999999999938
210
0
220
0
230
1
0
ARC
5
178
100
AcDbEntity
8
0
100
AcDbCircle
10
-94.064000254936701
20
85.800011432971729
30
0
40
8.0000000000000071
210
0
220
0
230
1
100
AcDbArc
50
-180
51
0
0
ARC
5
179
100
AcDbEntity
8
0
100
AcDbCircle
10
93.936000745058053
20
85.800011432971729
30
0
40
8.0000000000000071
210
0
220
0
230
1
100
AcDbArc
50
-180
51
0
0
LINE
5
180
100
AcDbEntity
8
0
100
AcDbLine
10
101.93600074505807
20
104.50614674426865
30
0
11
108.93600074505805
21
104.50614674426865
31
0
0
LINE
5
181
100
AcDbEntity
8
0
100
AcDbLine
10
-102.06400025493672
20
104.50614674426865
30
0
11
-109.0640002549367
21
104.50614674426865
31
0
0
ARC
5
182
100
AcDbEntity
8
0
100
AcDbCircle
10
-80.399473754295457
20
104.56986575102114
30
0
40
28.664597321744928
210
0
220
0
230
1
100
AcDbArc
50
139.094783457825
51
220.90521654217494
0
ARC
5
183
100
AcDbEntity
8
0
100
AcDbCircle
10
80.441750867590187
20
104.50614674426865
30
0
40
28.494249877467833
210
0
220
0
230
1
100
AcDbArc
50
-41.032580381526628
51
41.032580381526621
0
ARC
5
184
100
AcDbEntity
8
0
100
AcDbCircle
10
-80.569750377468836
20
104.50614674426865
30
0
40
28.494249877467833
210
0
220
0
230
1
100
AcDbArc
50
138.9674196184734
51
221.03258038152663
0
ENDSEC
0
SECTION
2
OBJECTS
0
DICTIONARY
5
C
100
AcDbDictionary
3
ACAD_GROUP
350
D
3
ACAD_MLINESTYLE
350
17
0
DICTIONARY
5
D
100
AcDbDictionary
0
DICTIONARY
5
1A
330
C
100
AcDbDictionary
0
DICTIONARY
5
17
100
AcDbDictionary
0
ENDSEC
0
EOF
