999
"DXF R12 Output" (www.mydxf.blogspot.com)
 0 
SECTION
 2 
HEADER
 9 
$ACADVER
 1 
AC1009
 9 
$EXTMIN
 10 
 0 
 20 
 0 
 9 
$EXTMAX
 10 
 8.5 
 20 
 11 
 0 
ENDSEC
 0 
SECTION
 2 
ENTITIES
0
LINE
8
Image
10
39.861400
20
6.835210
11
39.624686
21
7.085023
0
LINE
8
Image
10
39.624686
20
7.085023
11
39.530715
21
7.194468
0
LINE
8
Image
10
39.530715
20
7.194468
11
39.459400
21
7.273906
0
LINE
8
Image
10
39.459400
20
7.273906
11
39.381360
21
7.386763
0
LINE
8
Image
10
39.381360
20
7.386763
11
39.303317
21
7.499010
0
LINE
8
Image
10
39.303317
20
7.499010
11
39.253640
21
7.608215
0
LINE
8
Image
10
39.253640
20
7.608215
11
39.203492
21
7.724518
0
LINE
8
Image
10
39.203492
20
7.724518
11
39.161125
21
7.796817
0
LINE
8
Image
10
39.161125
20
7.796817
11
39.062105
21
7.990133
0
LINE
8
Image
10
39.062105
20
7.990133
11
39.031509
21
8.067706
0
LINE
8
Image
10
39.031509
20
8.067706
11
38.989952
21
8.166402
0
LINE
8
Image
10
38.989952
20
8.166402
11
38.893559
21
8.488079
0
LINE
8
Image
10
38.893559
20
8.488079
11
38.863485
21
8.602016
0
LINE
8
Image
10
38.863485
20
8.602016
11
38.828030
21
8.742609
0
LINE
8
Image
10
38.828030
20
8.742609
11
38.792571
21
8.872540
0
LINE
8
Image
10
38.792571
20
8.872540
11
38.775553
21
8.930427
0
LINE
8
Image
10
38.775553
20
8.930427
11
38.726960
21
9.179341
0
LINE
8
Image
10
38.726960
20
9.179341
11
38.700036
21
9.268315
0
LINE
8
Image
10
38.700036
20
9.268315
11
38.642940
21
9.357289
0
LINE
8
Image
10
38.642940
20
9.357289
11
38.506726
21
9.525013
0
LINE
8
Image
10
38.506726
20
9.525013
11
38.409481
21
9.638351
0
LINE
8
Image
10
38.409481
20
9.638351
11
38.338539
21
9.722672
0
LINE
8
Image
10
38.338539
20
9.722672
11
38.267591
21
9.806285
0
LINE
8
Image
10
38.267591
20
9.806285
11
38.214381
21
9.878105
0
LINE
8
Image
10
38.214381
20
9.878105
11
38.054748
21
10.085787
0
LINE
8
Image
10
38.054748
20
10.085787
11
38.011283
21
10.138343
0
LINE
8
Image
10
38.011283
20
10.138343
11
37.942409
21
10.233300
0
LINE
8
Image
10
37.942409
20
10.233300
11
37.769302
21
10.463607
0
LINE
8
Image
10
37.769302
20
10.463607
11
37.694624
21
10.561864
0
LINE
8
Image
10
37.694624
20
10.561864
11
37.604219
21
10.696267
0
LINE
8
Image
10
37.604219
20
10.696267
11
37.572286
21
10.765678
0
LINE
8
Image
10
37.572286
20
10.765678
11
37.529346
21
10.836011
0
LINE
8
Image
10
37.529346
20
10.836011
11
37.451280
21
10.947288
0
LINE
8
Image
10
37.451280
20
10.947288
11
37.402479
21
11.027002
0
LINE
8
Image
10
37.402479
20
11.027002
11
37.351763
21
11.106501
0
LINE
8
Image
10
37.351763
20
11.106501
11
37.288870
21
11.205216
0
LINE
8
Image
10
37.288870
20
11.205216
11
37.239399
21
11.301034
0
LINE
8
Image
10
37.239399
20
11.301034
11
37.168627
21
11.417385
0
LINE
8
Image
10
37.168627
20
11.417385
11
37.093767
21
11.526891
0
LINE
8
Image
10
37.093767
20
11.526891
11
37.041838
21
11.607802
0
LINE
8
Image
10
37.041838
20
11.607802
11
36.980466
21
11.600371
0
LINE
8
Image
10
36.980466
20
11.600371
11
36.901464
21
11.496500
0
LINE
8
Image
10
36.901464
20
11.496500
11
36.728321
21
11.295185
0
LINE
8
Image
10
36.728321
20
11.295185
11
36.542483
21
11.170996
0
LINE
8
Image
10
36.542483
20
11.170996
11
36.295807
21
11.361631
0
LINE
8
Image
10
36.295807
20
11.361631
11
35.949157
21
11.750892
0
LINE
8
Image
10
35.949157
20
11.750892
11
35.887350
21
11.848427
0
LINE
8
Image
10
35.887350
20
11.848427
11
35.713484
21
12.066872
0
LINE
8
Image
10
35.713484
20
12.066872
11
35.649635
21
12.203741
0
LINE
8
Image
10
35.649635
20
12.203741
11
35.585776
21
12.348169
0
LINE
8
Image
10
35.585776
20
12.348169
11
35.544024
21
12.411033
0
LINE
8
Image
10
35.544024
20
12.411033
11
35.488522
21
12.504844
0
LINE
8
Image
10
35.488522
20
12.504844
11
35.444919
21
12.593269
0
LINE
8
Image
10
35.444919
20
12.593269
11
35.388574
21
12.713434
0
LINE
8
Image
10
35.388574
20
12.713434
11
35.317911
21
12.881043
0
LINE
8
Image
10
35.317911
20
12.881043
11
35.273684
21
13.000897
0
LINE
8
Image
10
35.273684
20
13.000897
11
35.209007
21
13.153046
0
LINE
8
Image
10
35.209007
20
13.153046
11
35.132847
21
13.348024
0
LINE
8
Image
10
35.132847
20
13.348024
11
35.078843
21
13.511704
0
LINE
8
Image
10
35.078843
20
13.511704
11
35.026567
21
13.696254
0
LINE
8
Image
10
35.026567
20
13.696254
11
34.971929
21
13.879773
0
LINE
8
Image
10
34.971929
20
13.879773
11
34.916284
21
14.037433
0
LINE
8
Image
10
34.916284
20
14.037433
11
34.897459
21
14.161901
0
LINE
8
Image
10
34.897459
20
14.161901
11
34.852708
21
14.333006
0
LINE
8
Image
10
34.852708
20
14.333006
11
34.811196
21
14.466467
0
LINE
8
Image
10
34.811196
20
14.466467
11
34.793980
21
14.483575
0
LINE
8
Image
10
34.793980
20
14.483575
11
34.677657
21
14.382592
0
LINE
8
Image
10
34.677657
20
14.382592
11
34.560239
21
14.265423
0
LINE
8
Image
10
34.560239
20
14.265423
11
34.237261
21
14.363434
0
LINE
8
Image
10
34.237261
20
14.363434
11
34.195278
21
14.436785
0
LINE
8
Image
10
34.195278
20
14.436785
11
34.161631
21
14.487910
0
LINE
8
Image
10
34.161631
20
14.487910
11
34.118451
21
14.572550
0
LINE
8
Image
10
34.118451
20
14.572550
11
34.095365
21
14.673753
0
LINE
8
Image
10
34.095365
20
14.673753
11
34.069203
21
14.749040
0
LINE
8
Image
10
34.069203
20
14.749040
11
34.049194
21
14.818940
0
LINE
8
Image
10
34.049194
20
14.818940
11
33.866300
21
15.207086
0
LINE
8
Image
10
33.866300
20
15.207086
11
33.748786
21
15.339097
0
LINE
8
Image
10
33.748786
20
15.339097
11
33.628235
21
15.475981
0
LINE
8
Image
10
33.628235
20
15.475981
11
33.514553
21
15.620527
0
LINE
8
Image
10
33.514553
20
15.620527
11
33.450610
21
15.715304
0
LINE
8
Image
10
33.450610
20
15.715304
11
33.380980
21
15.803459
0
LINE
8
Image
10
33.380980
20
15.803459
11
33.242728
21
16.002982
0
LINE
8
Image
10
33.242728
20
16.002982
11
33.172681
21
16.129223
0
LINE
8
Image
10
33.172681
20
16.129223
11
33.023084
21
16.383889
0
LINE
8
Image
10
33.023084
20
16.383889
11
32.968016
21
16.482396
0
LINE
8
Image
10
32.968016
20
16.482396
11
32.932747
21
16.550516
0
LINE
8
Image
10
32.932747
20
16.550516
11
32.833089
21
16.765304
0
LINE
8
Image
10
32.833089
20
16.765304
11
32.762141
21
16.933790
0
LINE
8
Image
10
32.762141
20
16.933790
11
32.691193
21
17.093860
0
LINE
8
Image
10
32.691193
20
17.093860
11
32.657121
21
17.172102
0
LINE
8
Image
10
32.657121
20
17.172102
11
32.615611
21
17.299443
0
LINE
8
Image
10
32.615611
20
17.299443
11
32.538697
21
17.604520
0
LINE
8
Image
10
32.538697
20
17.604520
11
32.486167
21
17.871233
0
LINE
8
Image
10
32.486167
20
17.871233
11
32.448756
21
18.103085
0
LINE
8
Image
10
32.448756
20
18.103085
11
32.421691
21
18.538458
0
LINE
8
Image
10
32.421691
20
18.538458
11
32.451429
21
19.008512
0
LINE
8
Image
10
32.451429
20
19.008512
11
32.476236
21
19.223905
0
LINE
8
Image
10
32.476236
20
19.223905
11
32.425213
21
19.419787
0
LINE
8
Image
10
32.425213
20
19.419787
11
32.379081
21
19.516076
0
LINE
8
Image
10
32.379081
20
19.516076
11
32.275980
21
19.924695
0
LINE
8
Image
10
32.275980
20
19.924695
11
32.286563
21
20.788594
0
LINE
8
Image
10
32.286563
20
20.788594
11
32.249107
21
20.910436
0
LINE
8
Image
10
32.249107
20
20.910436
11
32.055463
21
20.985543
0
LINE
8
Image
10
32.055463
20
20.985543
11
31.908662
21
21.019628
0
LINE
8
Image
10
31.908662
20
21.019628
11
31.810403
21
21.053851
0
LINE
8
Image
10
31.810403
20
21.053851
11
31.754507
21
21.088422
0
LINE
8
Image
10
31.754507
20
21.088422
11
31.661746
21
21.156340
0
LINE
8
Image
10
31.661746
20
21.156340
11
31.486890
21
21.360543
0
LINE
8
Image
10
31.486890
20
21.360543
11
31.304961
21
21.565444
0
LINE
8
Image
10
31.304961
20
21.565444
11
31.079539
21
21.768075
0
LINE
8
Image
10
31.079539
20
21.768075
11
30.820586
21
22.097578
0
LINE
8
Image
10
30.820586
20
22.097578
11
30.747267
21
22.265802
0
LINE
8
Image
10
30.747267
20
22.265802
11
30.658588
21
22.381691
0
LINE
8
Image
10
30.658588
20
22.381691
11
30.456246
21
22.634994
0
LINE
8
Image
10
30.456246
20
22.634994
11
30.399409
21
22.723963
0
LINE
8
Image
10
30.399409
20
22.723963
11
30.346021
21
22.812938
0
LINE
8
Image
10
30.346021
20
22.812938
11
30.279007
21
22.908756
0
LINE
8
Image
10
30.279007
20
22.908756
11
30.208074
21
23.011419
0
LINE
8
Image
10
30.208074
20
23.011419
11
30.139973
21
23.111649
0
LINE
8
Image
10
30.139973
20
23.111649
11
30.094268
21
23.180091
0
LINE
8
Image
10
30.094268
20
23.180091
11
30.014935
21
23.348727
0
LINE
8
Image
10
30.014935
20
23.348727
11
29.952671
21
23.516849
0
LINE
8
Image
10
29.952671
20
23.516849
11
29.931363
21
23.608974
0
LINE
8
Image
10
29.931363
20
23.608974
11
29.910056
21
23.710414
0
LINE
8
Image
10
29.910056
20
23.710414
11
29.878125
21
23.814790
0
LINE
8
Image
10
29.878125
20
23.814790
11
29.837666
21
24.010631
0
LINE
8
Image
10
29.837666
20
24.010631
11
29.804637
21
24.236526
0
LINE
8
Image
10
29.804637
20
24.236526
11
29.741812
21
24.660865
0
LINE
8
Image
10
29.741812
20
24.660865
11
29.714465
21
24.882401
0
LINE
8
Image
10
29.714465
20
24.882401
11
29.697249
21
24.947901
0
LINE
8
Image
10
29.697249
20
24.947901
11
29.676054
21
25.014698
0
LINE
8
Image
10
29.676054
20
25.014698
11
29.592624
21
25.283684
0
LINE
8
Image
10
29.592624
20
25.283684
11
29.540475
21
25.482166
0
LINE
8
Image
10
29.540475
20
25.482166
11
29.484092
21
25.790154
0
LINE
8
Image
10
29.484092
20
25.790154
11
29.458551
21
26.057077
0
LINE
8
Image
10
29.458551
20
26.057077
11
29.398091
21
26.386840
0
LINE
8
Image
10
29.398091
20
26.386840
11
29.385419
21
27.117924
0
LINE
8
Image
10
29.385419
20
27.117924
11
29.439967
21
27.607996
0
LINE
8
Image
10
29.439967
20
27.607996
11
29.475183
21
27.833854
0
LINE
8
Image
10
29.475183
20
27.833854
11
29.513596
21
28.014510
0
LINE
8
Image
10
29.513596
20
28.014510
11
29.564466
21
28.203849
0
LINE
8
Image
10
29.564466
20
28.203849
11
29.597921
21
28.386120
0
LINE
8
Image
10
29.597921
20
28.386120
11
29.613246
21
28.529893
0
LINE
8
Image
10
29.613246
20
28.529893
11
29.635174
21
28.724052
0
LINE
8
Image
10
29.635174
20
28.724052
11
29.649991
21
28.917941
0
LINE
8
Image
10
29.649991
20
28.917941
11
29.670057
21
29.102735
0
LINE
8
Image
10
29.670057
20
29.102735
11
29.733862
21
29.506541
0
LINE
8
Image
10
29.733862
20
29.506541
11
29.781631
21
29.629736
0
LINE
8
Image
10
29.781631
20
29.629736
11
29.878794
21
29.919783
0
LINE
8
Image
10
29.878794
20
29.919783
11
29.923786
21
30.040386
0
LINE
8
Image
10
29.923786
20
30.040386
11
29.996963
21
30.213581
0
LINE
8
Image
10
29.996963
20
30.213581
11
30.052064
21
30.352957
0
LINE
8
Image
10
30.052064
20
30.352957
11
30.116735
21
30.511290
0
LINE
8
Image
10
30.116735
20
30.511290
11
30.189927
21
30.686746
0
LINE
8
Image
10
30.189927
20
30.686746
11
30.292839
21
30.902485
0
LINE
8
Image
10
30.292839
20
30.902485
11
30.378332
21
31.051870
0
LINE
8
Image
10
30.378332
20
31.051870
11
30.493004
21
31.232259
0
LINE
8
Image
10
30.493004
20
31.232259
11
30.534513
21
31.283841
0
LINE
8
Image
10
30.534513
20
31.283841
11
30.605458
21
31.369435
0
LINE
8
Image
10
30.605458
20
31.369435
11
30.676401
21
31.466953
0
LINE
8
Image
10
30.676401
20
31.466953
11
30.697031
21
31.520534
0
LINE
8
Image
10
30.697031
20
31.520534
11
30.773488
21
31.703520
0
LINE
8
Image
10
30.773488
20
31.703520
11
30.911901
21
31.934831
0
LINE
8
Image
10
30.911901
20
31.934831
11
31.077224
21
31.946487
0
LINE
8
Image
10
31.077224
20
31.946487
11
31.129977
21
31.854090
0
LINE
8
Image
10
31.129977
20
31.854090
11
31.157155
21
31.497933
0
LINE
8
Image
10
31.157155
20
31.497933
11
31.177475
21
31.174526
0
LINE
8
Image
10
31.177475
20
31.174526
11
31.213551
21
30.925938
0
LINE
8
Image
10
31.213551
20
30.925938
11
31.238923
21
30.701811
0
LINE
8
Image
10
31.238923
20
30.701811
11
31.260993
21
30.505788
0
LINE
8
Image
10
31.260993
20
30.505788
11
31.308708
21
30.045926
0
LINE
8
Image
10
31.308708
20
30.045926
11
31.355794
21
29.773461
0
LINE
8
Image
10
31.355794
20
29.773461
11
31.395971
21
29.609201
0
LINE
8
Image
10
31.395971
20
29.609201
11
31.467215
21
29.376499
0
LINE
8
Image
10
31.467215
20
29.376499
11
31.521740
21
29.203042
0
LINE
8
Image
10
31.521740
20
29.203042
11
31.570232
21
29.057017
0
LINE
8
Image
10
31.570232
20
29.057017
11
31.605693
21
28.941031
0
LINE
8
Image
10
31.605693
20
28.941031
11
31.641151
21
28.857009
0
LINE
8
Image
10
31.641151
20
28.857009
11
31.684520
21
28.756770
0
LINE
8
Image
10
31.684520
20
28.756770
11
31.742190
21
28.608121
0
LINE
8
Image
10
31.742190
20
28.608121
11
31.783936
21
28.491863
0
LINE
8
Image
10
31.783936
20
28.491863
11
31.811537
21
28.411999
0
LINE
8
Image
10
31.811537
20
28.411999
11
31.868140
21
28.267743
0
LINE
8
Image
10
31.868140
20
28.267743
11
31.924745
21
28.133624
0
LINE
8
Image
10
31.924745
20
28.133624
11
31.974475
21
28.041101
0
LINE
8
Image
10
31.974475
20
28.041101
11
32.082309
21
27.853544
0
LINE
8
Image
10
32.082309
20
27.853544
11
32.192370
21
27.688818
0
LINE
8
Image
10
32.192370
20
27.688818
11
32.308019
21
27.522355
0
LINE
8
Image
10
32.308019
20
27.522355
11
32.465211
21
27.273134
0
LINE
8
Image
10
32.465211
20
27.273134
11
32.667931
21
26.955570
0
LINE
8
Image
10
32.667931
20
26.955570
11
32.813380
21
26.786454
0
LINE
8
Image
10
32.813380
20
26.786454
11
32.932351
21
26.653032
0
LINE
8
Image
10
32.932351
20
26.653032
11
33.053083
21
26.529322
0
LINE
8
Image
10
33.053083
20
26.529322
11
33.249086
21
26.391470
0
LINE
8
Image
10
33.249086
20
26.391470
11
33.358035
21
26.313665
0
LINE
8
Image
10
33.358035
20
26.313665
11
33.456598
21
26.235926
0
LINE
8
Image
10
33.456598
20
26.235926
11
33.544393
21
26.187119
0
LINE
8
Image
10
33.544393
20
26.187119
11
33.528308
21
26.262405
0
LINE
8
Image
10
33.528308
20
26.262405
11
33.499522
21
26.337691
0
LINE
8
Image
10
33.499522
20
26.337691
11
33.478637
21
26.406132
0
LINE
8
Image
10
33.478637
20
26.406132
11
33.484705
21
26.629319
0
LINE
8
Image
10
33.484705
20
26.629319
11
33.584030
21
26.754671
0
LINE
8
Image
10
33.584030
20
26.754671
11
33.655971
21
26.835326
0
LINE
8
Image
10
33.655971
20
26.835326
11
33.723372
21
26.922664
0
LINE
8
Image
10
33.723372
20
26.922664
11
33.812054
21
27.028185
0
LINE
8
Image
10
33.812054
20
27.028185
11
33.989013
21
27.249903
0
LINE
8
Image
10
33.989013
20
27.249903
11
34.210831
21
27.514169
0
LINE
8
Image
10
34.210831
20
27.514169
11
34.356872
21
27.670073
0
LINE
8
Image
10
34.356872
20
27.670073
11
34.572447
21
27.927404
0
LINE
8
Image
10
34.572447
20
27.927404
11
34.609670
21
27.976780
0
LINE
8
Image
10
34.609670
20
27.976780
11
34.682655
21
28.130868
0
LINE
8
Image
10
34.682655
20
28.130868
11
34.685985
21
28.794753
0
LINE
8
Image
10
34.685985
20
28.794753
11
34.751074
21
29.054367
0
LINE
8
Image
10
34.751074
20
29.054367
11
34.860325
21
29.129126
0
LINE
8
Image
10
34.860325
20
29.129126
11
34.967504
21
29.197063
0
LINE
8
Image
10
34.967504
20
29.197063
11
35.007678
21
29.225939
0
LINE
8
Image
10
35.007678
20
29.225939
11
35.079972
21
29.270427
0
LINE
8
Image
10
35.079972
20
29.270427
11
35.162692
21
29.328603
0
LINE
8
Image
10
35.162692
20
29.328603
11
35.272499
21
29.400467
0
LINE
8
Image
10
35.272499
20
29.400467
11
35.367949
21
29.458642
0
LINE
8
Image
10
35.367949
20
29.458642
11
35.438739
21
29.513396
0
LINE
8
Image
10
35.438739
20
29.513396
11
35.526812
21
29.568149
0
LINE
8
Image
10
35.526812
20
29.568149
11
35.580344
21
29.597058
0
LINE
8
Image
10
35.580344
20
29.597058
11
35.835275
21
29.770084
0
LINE
8
Image
10
35.835275
20
29.770084
11
35.893328
21
29.800042
0
LINE
8
Image
10
35.893328
20
29.800042
11
35.934267
21
29.829084
0
LINE
8
Image
10
35.934267
20
29.829084
11
36.038063
21
29.886174
0
LINE
8
Image
10
36.038063
20
29.886174
11
36.183627
21
29.970024
0
LINE
8
Image
10
36.183627
20
29.970024
11
36.361444
21
30.073675
0
LINE
8
Image
10
36.361444
20
30.073675
11
36.542862
21
30.179760
0
LINE
8
Image
10
36.542862
20
30.179760
11
36.628003
21
30.225231
0
LINE
8
Image
10
36.628003
20
30.225231
11
36.742503
21
30.279940
0
LINE
8
Image
10
36.742503
20
30.279940
11
36.856027
21
30.335651
0
LINE
8
Image
10
36.856027
20
30.335651
11
36.926974
21
30.362597
0
LINE
8
Image
10
36.926974
20
30.362597
11
37.033389
21
30.417499
0
LINE
8
Image
10
37.033389
20
30.417499
11
37.201684
21
30.494848
0
LINE
8
Image
10
37.201684
20
30.494848
11
37.537116
21
30.595140
0
LINE
8
Image
10
37.537116
20
30.595140
11
37.671914
21
30.658079
0
LINE
8
Image
10
37.671914
20
30.658079
11
37.639603
21
30.730548
0
LINE
8
Image
10
37.639603
20
30.730548
11
37.587499
21
30.828342
0
LINE
8
Image
10
37.587499
20
30.828342
11
37.534280
21
30.933160
0
LINE
8
Image
10
37.534280
20
30.933160
11
37.486413
21
31.052483
0
LINE
8
Image
10
37.486413
20
31.052483
11
37.494738
21
31.161212
0
LINE
8
Image
10
37.494738
20
31.161212
11
37.626203
21
31.238128
0
LINE
8
Image
10
37.626203
20
31.238128
11
37.656655
21
31.257415
0
LINE
8
Image
10
37.656655
20
31.257415
11
38.055048
21
31.443457
0
LINE
8
Image
10
38.055048
20
31.443457
11
38.357683
21
31.538140
0
LINE
8
Image
10
38.357683
20
31.538140
11
38.640438
21
31.603263
0
LINE
8
Image
10
38.640438
20
31.603263
11
38.701576
21
31.622852
0
LINE
8
Image
10
38.701576
20
31.622852
11
38.762499
21
31.635095
0
LINE
8
Image
10
38.762499
20
31.635095
11
38.829061
21
31.647075
0
LINE
8
Image
10
38.829061
20
31.647075
11
39.180732
21
31.667040
0
LINE
8
Image
10
39.180732
20
31.667040
11
39.572467
21
31.654357
0
LINE
8
Image
10
39.572467
20
31.654357
11
40.155061
21
31.670246
0
LINE
8
Image
10
40.155061
20
31.670246
11
40.573650
21
31.683541
0
LINE
8
Image
10
40.573650
20
31.683541
11
40.898253
21
31.592477
0
LINE
8
Image
10
40.898253
20
31.592477
11
41.126130
21
31.539279
0
LINE
8
Image
10
41.126130
20
31.539279
11
41.458144
21
31.394625
0
LINE
8
Image
10
41.458144
20
31.394625
11
41.622030
21
31.333954
0
LINE
8
Image
10
41.622030
20
31.333954
11
41.695318
21
31.322152
0
LINE
8
Image
10
41.695318
20
31.322152
11
41.808122
21
31.287052
0
LINE
8
Image
10
41.808122
20
31.287052
11
41.968221
21
31.229573
0
LINE
8
Image
10
41.968221
20
31.229573
11
42.028989
21
31.195388
0
LINE
8
Image
10
42.028989
20
31.195388
11
42.074644
21
31.221719
0
LINE
8
Image
10
42.074644
20
31.221719
11
42.439137
21
31.333948
0
LINE
8
Image
10
42.439137
20
31.333948
11
42.666597
21
31.436012
0
LINE
8
Image
10
42.666597
20
31.436012
11
43.021322
21
31.560952
0
LINE
8
Image
10
43.021322
20
31.560952
11
43.170310
21
31.601857
0
LINE
8
Image
10
43.170310
20
31.601857
11
43.660614
21
31.698587
0
LINE
8
Image
10
43.660614
20
31.698587
11
43.975867
21
31.621837
0
LINE
8
Image
10
43.975867
20
31.621837
11
44.034366
21
31.580337
0
LINE
8
Image
10
44.034366
20
31.580337
11
44.241300
21
31.580300
0
LINE
8
Image
10
44.241300
20
31.580300
11
44.469406
21
31.604255
0
LINE
8
Image
10
44.469406
20
31.604255
11
44.809560
21
31.619828
0
LINE
8
Image
10
44.809560
20
31.619828
11
45.185245
21
31.597228
0
LINE
8
Image
10
45.185245
20
31.597228
11
45.447748
21
31.539388
0
LINE
8
Image
10
45.447748
20
31.539388
11
45.738629
21
31.463388
0
LINE
8
Image
10
45.738629
20
31.463388
11
45.859245
21
31.425595
0
LINE
8
Image
10
45.859245
20
31.425595
11
46.099165
21
31.363840
0
LINE
8
Image
10
46.099165
20
31.363840
11
46.262586
21
31.292853
0
LINE
8
Image
10
46.262586
20
31.292853
11
46.340843
21
31.252578
0
LINE
8
Image
10
46.340843
20
31.252578
11
46.448141
21
31.184741
0
LINE
8
Image
10
46.448141
20
31.184741
11
46.530770
21
31.139461
0
LINE
8
Image
10
46.530770
20
31.139461
11
46.441952
21
30.848138
0
LINE
8
Image
10
46.441952
20
30.848138
11
46.337987
21
30.656660
0
LINE
8
Image
10
46.337987
20
30.656660
11
46.364657
21
30.608789
0
LINE
8
Image
10
46.364657
20
30.608789
11
46.441004
21
30.551899
0
LINE
8
Image
10
46.441004
20
30.551899
11
46.575796
21
30.527476
0
LINE
8
Image
10
46.575796
20
30.527476
11
46.826725
21
30.455354
0
LINE
8
Image
10
46.826725
20
30.455354
11
46.926047
21
30.409221
0
LINE
8
Image
10
46.926047
20
30.409221
11
47.263982
21
30.258221
0
LINE
8
Image
10
47.263982
20
30.258221
11
47.400089
21
30.191626
0
LINE
8
Image
10
47.400089
20
30.191626
11
47.518179
21
30.123906
0
LINE
8
Image
10
47.518179
20
30.123906
11
47.623290
21
30.060824
0
LINE
8
Image
10
47.623290
20
30.060824
11
47.866591
21
29.926947
0
LINE
8
Image
10
47.866591
20
29.926947
11
48.005927
21
29.843883
0
LINE
8
Image
10
48.005927
20
29.843883
11
48.292713
21
29.681093
0
LINE
8
Image
10
48.292713
20
29.681093
11
48.363661
21
29.629739
0
LINE
8
Image
10
48.363661
20
29.629739
11
48.467028
21
29.551443
0
LINE
8
Image
10
48.467028
20
29.551443
11
48.538969
21
29.513360
0
LINE
8
Image
10
48.538969
20
29.513360
11
48.620066
21
29.468119
0
LINE
8
Image
10
48.620066
20
29.468119
11
48.725490
21
29.390710
0
LINE
8
Image
10
48.725490
20
29.390710
11
48.789340
21
29.343557
0
LINE
8
Image
10
48.789340
20
29.343557
11
48.867382
21
29.295846
0
LINE
8
Image
10
48.867382
20
29.295846
11
48.974482
21
29.223982
0
LINE
8
Image
10
48.974482
20
29.223982
11
49.032228
21
29.184841
0
LINE
8
Image
10
49.032228
20
29.184841
11
49.102501
21
29.139285
0
LINE
8
Image
10
49.102501
20
29.139285
11
49.229724
21
29.056574
0
LINE
8
Image
10
49.229724
20
29.056574
11
49.337437
21
28.589080
0
LINE
8
Image
10
49.337437
20
28.589080
11
49.355979
21
28.112441
0
LINE
8
Image
10
49.355979
20
28.112441
11
49.433497
21
27.939203
0
LINE
8
Image
10
49.433497
20
27.939203
11
49.469763
21
27.894714
0
LINE
8
Image
10
49.469763
20
27.894714
11
49.693870
21
27.629407
0
LINE
8
Image
10
49.693870
20
27.629407
11
49.832489
21
27.469605
0
LINE
8
Image
10
49.832489
20
27.469605
11
49.953102
21
27.332079
0
LINE
8
Image
10
49.953102
20
27.332079
11
50.073439
21
27.197074
0
LINE
8
Image
10
50.073439
20
27.197074
11
50.218470
21
27.018634
0
LINE
8
Image
10
50.218470
20
27.018634
11
50.285873
21
26.932246
0
LINE
8
Image
10
50.285873
20
26.932246
11
50.330097
21
26.877493
0
LINE
8
Image
10
50.330097
20
26.877493
11
50.408732
21
26.780359
0
LINE
8
Image
10
50.408732
20
26.780359
11
50.463117
21
26.716179
0
LINE
8
Image
10
50.463117
20
26.716179
11
50.522259
21
26.643802
0
LINE
8
Image
10
50.522259
20
26.643802
11
50.566102
21
26.473389
0
LINE
8
Image
10
50.566102
20
26.473389
11
50.548943
21
26.360158
0
LINE
8
Image
10
50.548943
20
26.360158
11
50.527494
21
26.325216
0
LINE
8
Image
10
50.527494
20
26.325216
11
50.513355
21
26.289758
0
LINE
8
Image
10
50.513355
20
26.289758
11
50.499216
21
26.254730
0
LINE
8
Image
10
50.499216
20
26.254730
11
50.566802
21
26.240852
0
LINE
8
Image
10
50.566802
20
26.240852
11
50.616276
21
26.260954
0
LINE
8
Image
10
50.616276
20
26.260954
11
50.641083
21
26.316706
0
LINE
8
Image
10
50.641083
20
26.316706
11
50.668628
21
26.365046
0
LINE
8
Image
10
50.668628
20
26.365046
11
50.704893
21
26.378733
0
LINE
8
Image
10
50.704893
20
26.378733
11
50.752916
21
26.392425
0
LINE
8
Image
10
50.752916
20
26.392425
11
50.825506
21
26.426648
0
LINE
8
Image
10
50.825506
20
26.426648
11
50.912166
21
26.460871
0
LINE
8
Image
10
50.912166
20
26.460871
11
51.074159
21
26.568978
0
LINE
8
Image
10
51.074159
20
26.568978
11
51.201980
21
26.712736
0
LINE
8
Image
10
51.201980
20
26.712736
11
51.310669
21
26.835875
0
LINE
8
Image
10
51.310669
20
26.835875
11
51.478219
21
27.057820
0
LINE
8
Image
10
51.478219
20
27.057820
11
51.594037
21
27.234241
0
LINE
8
Image
10
51.594037
20
27.234241
11
51.668938
21
27.343567
0
LINE
8
Image
10
51.668938
20
27.343567
11
51.724553
21
27.432103
0
LINE
8
Image
10
51.724553
20
27.432103
11
51.810760
21
27.583317
0
LINE
8
Image
10
51.810760
20
27.583317
11
51.899443
21
27.736205
0
LINE
8
Image
10
51.899443
20
27.736205
11
51.980754
21
27.873089
0
LINE
8
Image
10
51.980754
20
27.873089
11
52.057270
21
28.014501
0
LINE
8
Image
10
52.057270
20
28.014501
11
52.094636
21
28.089787
0
LINE
8
Image
10
52.094636
20
28.089787
11
52.151750
21
28.199082
0
LINE
8
Image
10
52.151750
20
28.199082
11
52.187682
21
28.289291
0
LINE
8
Image
10
52.187682
20
28.289291
11
52.230001
21
28.392165
0
LINE
8
Image
10
52.230001
20
28.392165
11
52.272560
21
28.509594
0
LINE
8
Image
10
52.272560
20
28.509594
11
52.296465
21
28.598569
0
LINE
8
Image
10
52.296465
20
28.598569
11
52.350208
21
28.747354
0
LINE
8
Image
10
52.350208
20
28.747354
11
52.410513
21
28.925854
0
LINE
8
Image
10
52.410513
20
28.925854
11
52.428858
21
28.969523
0
LINE
8
Image
10
52.428858
20
28.969523
11
52.471417
21
29.070730
0
LINE
8
Image
10
52.471417
20
29.070730
11
52.513976
21
29.201588
0
LINE
8
Image
10
52.513976
20
29.201588
11
52.528115
21
29.253297
0
LINE
8
Image
10
52.528115
20
29.253297
11
52.542734
21
29.297785
0
LINE
8
Image
10
52.542734
20
29.297785
11
52.564042
21
29.368843
0
LINE
8
Image
10
52.564042
20
29.368843
11
52.584898
21
29.479034
0
LINE
8
Image
10
52.584898
20
29.479034
11
52.601916
21
29.579039
0
LINE
8
Image
10
52.601916
20
29.579039
11
52.653859
21
29.855585
0
LINE
8
Image
10
52.653859
20
29.855585
11
52.679654
21
29.985624
0
LINE
8
Image
10
52.679654
20
29.985624
11
52.703643
21
30.080553
0
LINE
8
Image
10
52.703643
20
30.080553
11
52.733999
21
30.179312
0
LINE
8
Image
10
52.733999
20
30.179312
11
52.755194
21
30.325786
0
LINE
8
Image
10
52.755194
20
30.325786
11
52.776389
21
30.480262
0
LINE
8
Image
10
52.776389
20
30.480262
11
52.797697
21
30.808478
0
LINE
8
Image
10
52.797697
20
30.808478
11
52.812654
21
31.171219
0
LINE
8
Image
10
52.812654
20
31.171219
11
52.857737
21
31.789357
0
LINE
8
Image
10
52.857737
20
31.789357
11
52.895340
21
32.023183
0
LINE
8
Image
10
52.895340
20
32.023183
11
53.012013
21
32.021800
0
LINE
8
Image
10
53.012013
20
32.021800
11
53.125164
21
31.824832
0
LINE
8
Image
10
53.125164
20
31.824832
11
53.204062
21
31.674057
0
LINE
8
Image
10
53.204062
20
31.674057
11
53.223507
21
31.612235
0
LINE
8
Image
10
53.223507
20
31.612235
11
53.295578
21
31.511685
0
LINE
8
Image
10
53.295578
20
31.511685
11
53.519572
21
31.221828
0
LINE
8
Image
10
53.519572
20
31.221828
11
53.611266
21
31.069213
0
LINE
8
Image
10
53.611266
20
31.069213
11
53.662760
21
30.979441
0
LINE
8
Image
10
53.662760
20
30.979441
11
53.692021
21
30.936997
0
LINE
8
Image
10
53.692021
20
30.936997
11
53.720520
21
30.865133
0
LINE
8
Image
10
53.720520
20
30.865133
11
53.802452
21
30.692567
0
LINE
8
Image
10
53.802452
20
30.692567
11
53.891377
21
30.498970
0
LINE
8
Image
10
53.891377
20
30.498970
11
53.964184
21
30.328590
0
LINE
8
Image
10
53.964184
20
30.328590
11
54.018075
21
30.195936
0
LINE
8
Image
10
54.018075
20
30.195936
11
54.032214
21
30.163605
0
LINE
8
Image
10
54.032214
20
30.163605
11
54.046353
21
30.134672
0
LINE
8
Image
10
54.046353
20
30.134672
11
54.076088
21
30.051264
0
LINE
8
Image
10
54.076088
20
30.051264
11
54.145701
21
29.809643
0
LINE
8
Image
10
54.145701
20
29.809643
11
54.198065
21
29.676849
0
LINE
8
Image
10
54.198065
20
29.676849
11
54.262561
21
29.506566
0
LINE
8
Image
10
54.262561
20
29.506566
11
54.309266
21
29.212267
0
LINE
8
Image
10
54.309266
20
29.212267
11
54.335625
21
29.117909
0
LINE
8
Image
10
54.335625
20
29.117909
11
54.395727
21
28.549030
0
LINE
8
Image
10
54.395727
20
28.549030
11
54.431186
21
28.388583
0
LINE
8
Image
10
54.431186
20
28.388583
11
54.472074
21
28.278427
0
LINE
8
Image
10
54.472074
20
28.278427
11
54.499337
21
28.158263
0
LINE
8
Image
10
54.499337
20
28.158263
11
54.571038
21
27.583352
0
LINE
8
Image
10
54.571038
20
27.583352
11
54.628202
21
27.227272
0
LINE
8
Image
10
54.628202
20
27.227272
11
54.629331
21
26.556725
0
LINE
8
Image
10
54.629331
20
26.556725
11
54.606894
21
26.413197
0
LINE
8
Image
10
54.606894
20
26.413197
11
54.588042
21
26.303690
0
LINE
8
Image
10
54.588042
20
26.303690
11
54.569302
21
26.084477
0
LINE
8
Image
10
54.569302
20
26.084477
11
54.500545
21
25.571164
0
LINE
8
Image
10
54.500545
20
25.571164
11
54.471665
21
25.441125
0
LINE
8
Image
10
54.471665
20
25.441125
11
54.419256
21
25.226261
0
LINE
8
Image
10
54.419256
20
25.226261
11
54.373172
21
24.886746
0
LINE
8
Image
10
54.373172
20
24.886746
11
54.342526
21
24.667732
0
LINE
8
Image
10
54.342526
20
24.667732
11
54.261867
21
24.257082
0
LINE
8
Image
10
54.261867
20
24.257082
11
54.223312
21
24.106510
0
LINE
8
Image
10
54.223312
20
24.106510
11
54.139126
21
23.845322
0
LINE
8
Image
10
54.139126
20
23.845322
11
54.075719
21
23.685522
0
LINE
8
Image
10
54.075719
20
23.685522
11
54.010294
21
23.508683
0
LINE
8
Image
10
54.010294
20
23.508683
11
53.787553
21
23.118604
0
LINE
8
Image
10
53.787553
20
23.118604
11
53.748522
21
23.046527
0
LINE
8
Image
10
53.748522
20
23.046527
11
53.713061
21
22.989578
0
LINE
8
Image
10
53.713061
20
22.989578
11
53.677605
21
22.940561
0
LINE
8
Image
10
53.677605
20
22.940561
11
53.664792
21
22.909602
0
LINE
8
Image
10
53.664792
20
22.909602
11
53.549891
21
22.693608
0
LINE
8
Image
10
53.549891
20
22.693608
11
53.529204
21
22.663898
0
LINE
8
Image
10
53.529204
20
22.663898
11
53.501744
21
22.611010
0
LINE
8
Image
10
53.501744
20
22.611010
11
53.465668
21
22.533611
0
LINE
8
Image
10
53.465668
20
22.533611
11
53.436356
21
22.473802
0
LINE
8
Image
10
53.436356
20
22.473802
11
53.365019
21
22.327025
0
LINE
8
Image
10
53.365019
20
22.327025
11
53.342215
21
22.289385
0
LINE
8
Image
10
53.342215
20
22.289385
11
53.179813
21
22.019854
0
LINE
8
Image
10
53.179813
20
22.019854
11
53.087973
21
21.919800
0
LINE
8
Image
10
53.087973
20
21.919800
11
53.044748
21
21.888999
0
LINE
8
Image
10
53.044748
20
21.888999
11
52.975087
21
21.814405
0
LINE
8
Image
10
52.975087
20
21.814405
11
52.881299
21
21.731224
0
LINE
8
Image
10
52.881299
20
21.731224
11
52.710346
21
21.546990
0
LINE
8
Image
10
52.710346
20
21.546990
11
52.568752
21
21.377653
0
LINE
8
Image
10
52.568752
20
21.377653
11
52.448229
21
21.292494
0
LINE
8
Image
10
52.448229
20
21.292494
11
52.369336
21
21.226542
0
LINE
8
Image
10
52.369336
20
21.226542
11
52.150611
21
21.163664
0
LINE
8
Image
10
52.150611
20
21.163664
11
52.072566
21
21.138467
0
LINE
8
Image
10
52.072566
20
21.138467
11
52.013892
21
21.104672
0
LINE
8
Image
10
52.013892
20
21.104672
11
51.989084
21
21.083700
0
LINE
8
Image
10
51.989084
20
21.083700
11
51.919830
21
21.039751
0
LINE
8
Image
10
51.919830
20
21.039751
11
51.855520
21
20.959157
0
LINE
8
Image
10
51.855520
20
20.959157
11
51.847956
21
20.622827
0
LINE
8
Image
10
51.847956
20
20.622827
11
51.805016
21
20.335371
0
LINE
8
Image
10
51.805016
20
20.335371
11
51.777330
21
20.046732
0
LINE
8
Image
10
51.777330
20
20.046732
11
51.742160
21
19.889316
0
LINE
8
Image
10
51.742160
20
19.889316
11
51.678107
21
19.637266
0
LINE
8
Image
10
51.678107
20
19.637266
11
51.601577
21
19.441071
0
LINE
8
Image
10
51.601577
20
19.441071
11
51.570648
21
19.187837
0
LINE
8
Image
10
51.570648
20
19.187837
11
51.588371
21
18.936637
0
LINE
8
Image
10
51.588371
20
18.936637
11
51.590911
21
18.156511
0
LINE
8
Image
10
51.590911
20
18.156511
11
51.562509
21
17.986091
0
LINE
8
Image
10
51.562509
20
17.986091
11
51.497615
21
17.638767
0
LINE
8
Image
10
51.497615
20
17.638767
11
51.443970
21
17.440286
0
LINE
8
Image
10
51.443970
20
17.440286
11
51.370677
21
17.193288
0
LINE
8
Image
10
51.370677
20
17.193288
11
51.322397
21
17.061672
0
LINE
8
Image
10
51.322397
20
17.061672
11
51.296348
21
17.000683
0
LINE
8
Image
10
51.296348
20
17.000683
11
51.245113
21
16.892752
0
LINE
8
Image
10
51.245113
20
16.892752
11
50.981845
21
16.358592
0
LINE
8
Image
10
50.981845
20
16.358592
11
50.915153
21
16.260344
0
LINE
8
Image
10
50.915153
20
16.260344
11
50.874691
21
16.172643
0
LINE
8
Image
10
50.874691
20
16.172643
11
50.827842
21
16.076979
0
LINE
8
Image
10
50.827842
20
16.076979
11
50.630038
21
15.797684
0
LINE
8
Image
10
50.630038
20
15.797684
11
50.585241
21
15.736086
0
LINE
8
Image
10
50.585241
20
15.736086
11
50.530436
21
15.653956
0
LINE
8
Image
10
50.530436
20
15.653956
11
50.408316
21
15.503384
0
LINE
8
Image
10
50.408316
20
15.503384
11
50.315067
21
15.397099
0
LINE
8
Image
10
50.315067
20
15.397099
11
50.197770
21
15.265765
0
LINE
8
Image
10
50.197770
20
15.265765
11
50.033692
21
15.016152
0
LINE
8
Image
10
50.033692
20
15.016152
11
49.933625
21
14.644087
0
LINE
8
Image
10
49.933625
20
14.644087
11
49.891879
21
14.541424
0
LINE
8
Image
10
49.891879
20
14.541424
11
49.824008
21
14.436664
0
LINE
8
Image
10
49.824008
20
14.436664
11
49.714859
21
14.322604
0
LINE
8
Image
10
49.714859
20
14.322604
11
49.558516
21
14.321419
0
LINE
8
Image
10
49.558516
20
14.321419
11
49.463666
21
14.413765
0
LINE
8
Image
10
49.463666
20
14.413765
11
49.438859
21
14.451911
0
LINE
8
Image
10
49.438859
20
14.451911
11
49.274905
21
14.582368
0
LINE
8
Image
10
49.274905
20
14.582368
11
49.130407
21
14.134542
0
LINE
8
Image
10
49.130407
20
14.134542
11
49.094856
21
13.977125
0
LINE
8
Image
10
49.094856
20
13.977125
11
49.023854
21
13.751504
0
LINE
8
Image
10
49.023854
20
13.751504
11
48.952257
21
13.532254
0
LINE
8
Image
10
48.952257
20
13.532254
11
48.910034
21
13.390410
0
LINE
8
Image
10
48.910034
20
13.390410
11
48.837763
21
13.203517
0
LINE
8
Image
10
48.837763
20
13.203517
11
48.788190
21
13.098970
0
LINE
8
Image
10
48.788190
20
13.098970
11
48.705299
21
12.882057
0
LINE
8
Image
10
48.705299
20
12.882057
11
48.669843
21
12.791001
0
LINE
8
Image
10
48.669843
20
12.791001
11
48.603880
21
12.647273
0
LINE
8
Image
10
48.603880
20
12.647273
11
48.542491
21
12.530418
0
LINE
8
Image
10
48.542491
20
12.530418
11
48.494671
21
12.441443
0
LINE
8
Image
10
48.494671
20
12.441443
11
48.449826
21
12.352819
0
LINE
8
Image
10
48.449826
20
12.352819
11
48.384424
21
12.220108
0
LINE
8
Image
10
48.384424
20
12.220108
11
48.328524
21
12.110246
0
LINE
8
Image
10
48.328524
20
12.110246
11
48.275314
21
12.029046
0
LINE
8
Image
10
48.275314
20
12.029046
11
48.088266
21
11.775714
0
LINE
8
Image
10
48.088266
20
11.775714
11
48.003368
21
11.671281
0
LINE
8
Image
10
48.003368
20
11.671281
11
47.945411
21
11.600576
0
LINE
8
Image
10
47.945411
20
11.600576
11
47.901376
21
11.545180
0
LINE
8
Image
10
47.901376
20
11.545180
11
47.841071
21
11.488990
0
LINE
8
Image
10
47.841071
20
11.488990
11
47.560353
21
11.239453
0
LINE
8
Image
10
47.560353
20
11.239453
11
47.250149
21
11.526317
0
LINE
8
Image
10
47.250149
20
11.526317
11
47.148024
21
11.646989
0
LINE
8
Image
10
47.148024
20
11.646989
11
47.081369
21
11.702171
0
LINE
8
Image
10
47.081369
20
11.702171
11
47.032002
21
11.680581
0
LINE
8
Image
10
47.032002
20
11.680581
11
46.930529
21
11.529633
0
LINE
8
Image
10
46.930529
20
11.529633
11
46.880280
21
11.457529
0
LINE
8
Image
10
46.880280
20
11.457529
11
46.796093
21
11.311039
0
LINE
8
Image
10
46.796093
20
11.311039
11
46.748431
21
11.231652
0
LINE
8
Image
10
46.748431
20
11.231652
11
46.690113
21
11.143635
0
LINE
8
Image
10
46.690113
20
11.143635
11
46.640126
21
11.068349
0
LINE
8
Image
10
46.640126
20
11.068349
11
46.583509
21
10.975026
0
LINE
8
Image
10
46.583509
20
10.975026
11
46.527708
21
10.884758
0
LINE
8
Image
10
46.527708
20
10.884758
11
46.469700
21
10.801348
0
LINE
8
Image
10
46.469700
20
10.801348
11
46.403211
21
10.690042
0
LINE
8
Image
10
46.403211
20
10.690042
11
46.356221
21
10.610576
0
LINE
8
Image
10
46.356221
20
10.610576
11
46.295922
21
10.529211
0
LINE
8
Image
10
46.295922
20
10.529211
11
46.204403
21
10.415825
0
LINE
8
Image
10
46.204403
20
10.415825
11
46.030272
21
10.171761
0
LINE
8
Image
10
46.030272
20
10.171761
11
45.990572
21
10.116107
0
LINE
8
Image
10
45.990572
20
10.116107
11
45.929315
21
10.040821
0
LINE
8
Image
10
45.929315
20
10.040821
11
45.853093
21
9.945647
0
LINE
8
Image
10
45.853093
20
9.945647
11
45.733826
21
9.804074
0
LINE
8
Image
10
45.733826
20
9.804074
11
45.641361
21
9.687979
0
LINE
8
Image
10
45.641361
20
9.687979
11
45.514011
21
9.538333
0
LINE
8
Image
10
45.514011
20
9.538333
11
45.405553
21
9.418767
0
LINE
8
Image
10
45.405553
20
9.418767
11
45.362469
21
9.338092
0
LINE
8
Image
10
45.362469
20
9.338092
11
45.305209
21
9.149671
0
LINE
8
Image
10
45.305209
20
9.149671
11
45.264129
21
8.974030
0
LINE
8
Image
10
45.264129
20
8.974030
11
45.193433
21
8.672008
0
LINE
8
Image
10
45.193433
20
8.672008
11
45.138921
21
8.500904
0
LINE
8
Image
10
45.138921
20
8.500904
11
45.086222
21
8.330678
0
LINE
8
Image
10
45.086222
20
8.330678
11
45.029321
21
8.152729
0
LINE
8
Image
10
45.029321
20
8.152729
11
44.958774
21
7.978455
0
LINE
8
Image
10
44.958774
20
7.978455
11
44.921935
21
7.891934
0
LINE
8
Image
10
44.921935
20
7.891934
11
44.837740
21
7.732266
0
LINE
8
Image
10
44.837740
20
7.732266
11
44.795130
21
7.654398
0
LINE
8
Image
10
44.795130
20
7.654398
11
44.738669
21
7.543550
0
LINE
8
Image
10
44.738669
20
7.543550
11
44.682055
21
7.439591
0
LINE
8
Image
10
44.682055
20
7.439591
11
44.601574
21
7.331427
0
LINE
8
Image
10
44.601574
20
7.331427
11
44.503191
21
7.215076
0
LINE
8
Image
10
44.503191
20
7.215076
11
44.408715
21
7.105569
0
LINE
8
Image
10
44.408715
20
7.105569
11
44.149850
21
6.841413
0
LINE
8
Image
10
44.149850
20
6.841413
11
43.925063
21
6.625167
0
LINE
8
Image
10
43.925063
20
6.625167
11
43.860075
21
6.629265
0
LINE
8
Image
10
43.860075
20
6.629265
11
43.795085
21
6.633360
0
LINE
8
Image
10
43.795085
20
6.633360
11
43.787973
21
6.783932
0
LINE
8
Image
10
43.787973
20
6.783932
11
43.766665
21
6.955036
0
LINE
8
Image
10
43.766665
20
6.955036
11
43.751341
21
7.064543
0
LINE
8
Image
10
43.751341
20
7.064543
11
43.727944
21
7.208270
0
LINE
8
Image
10
43.727944
20
7.208270
11
43.688865
21
7.372531
0
LINE
8
Image
10
43.688865
20
7.372531
11
43.616052
21
7.640665
0
LINE
8
Image
10
43.616052
20
7.640665
11
43.555930
21
7.810256
0
LINE
8
Image
10
43.555930
20
7.810256
11
43.507286
21
7.939084
0
LINE
8
Image
10
43.507286
20
7.939084
11
43.433285
21
8.091646
0
LINE
8
Image
10
43.433285
20
8.091646
11
43.403350
21
8.147251
0
LINE
8
Image
10
43.403350
20
8.147251
11
43.323436
21
8.282807
0
LINE
8
Image
10
43.323436
20
8.282807
11
43.232763
21
8.442689
0
LINE
8
Image
10
43.232763
20
8.442689
11
43.192013
21
8.511131
0
LINE
8
Image
10
43.192013
20
8.511131
11
43.138800
21
8.590803
0
LINE
8
Image
10
43.138800
20
8.590803
11
43.008086
21
8.785561
0
LINE
8
Image
10
43.008086
20
8.785561
11
43.177253
21
8.946681
0
LINE
8
Image
10
43.177253
20
8.946681
11
43.361713
21
8.983434
0
LINE
8
Image
10
43.361713
20
8.983434
11
43.660324
21
8.980480
0
LINE
8
Image
10
43.660324
20
8.980480
11
43.892370
21
8.887318
0
LINE
8
Image
10
43.892370
20
8.887318
11
43.963318
21
8.850045
0
LINE
8
Image
10
43.963318
20
8.850045
11
44.301891
21
8.542356
0
LINE
8
Image
10
44.301891
20
8.542356
11
44.507586
21
8.595274
0
LINE
8
Image
10
44.507586
20
8.595274
11
44.582079
21
8.686701
0
LINE
8
Image
10
44.582079
20
8.686701
11
44.645985
21
8.774982
0
LINE
8
Image
10
44.645985
20
8.774982
11
44.718349
21
8.891236
0
LINE
8
Image
10
44.718349
20
8.891236
11
44.773761
21
9.021968
0
LINE
8
Image
10
44.773761
20
9.021968
11
44.831043
21
9.569501
0
LINE
8
Image
10
44.831043
20
9.569501
11
44.747201
21
9.812504
0
LINE
8
Image
10
44.747201
20
9.812504
11
44.645776
21
9.947965
0
LINE
8
Image
10
44.645776
20
9.947965
11
44.611032
21
10.008857
0
LINE
8
Image
10
44.611032
20
10.008857
11
44.955120
21
10.378102
0
LINE
8
Image
10
44.955120
20
10.378102
11
45.136036
21
10.570178
0
LINE
8
Image
10
45.136036
20
10.570178
11
45.650301
21
11.069432
0
LINE
8
Image
10
45.650301
20
11.069432
11
45.831315
21
11.229673
0
LINE
8
Image
10
45.831315
20
11.229673
11
45.969525
21
11.420893
0
LINE
8
Image
10
45.969525
20
11.420893
11
46.015798
21
11.482491
0
LINE
8
Image
10
46.015798
20
11.482491
11
46.058690
21
11.540626
0
LINE
8
Image
10
46.058690
20
11.540626
11
46.110427
21
11.622757
0
LINE
8
Image
10
46.110427
20
11.622757
11
46.163292
21
11.711139
0
LINE
8
Image
10
46.163292
20
11.711139
11
46.231435
21
11.817224
0
LINE
8
Image
10
46.231435
20
11.817224
11
46.270136
21
11.869147
0
LINE
8
Image
10
46.270136
20
11.869147
11
46.314930
21
11.927323
0
LINE
8
Image
10
46.314930
20
11.927323
11
46.378052
21
12.019719
0
LINE
8
Image
10
46.378052
20
12.019719
11
46.441408
21
12.129226
0
LINE
8
Image
10
46.441408
20
12.129226
11
46.497048
21
12.231889
0
LINE
8
Image
10
46.497048
20
12.231889
11
46.553445
21
12.323178
0
LINE
8
Image
10
46.553445
20
12.323178
11
46.605949
21
12.404124
0
LINE
8
Image
10
46.605949
20
12.404124
11
46.655169
21
12.480338
0
LINE
8
Image
10
46.655169
20
12.480338
11
46.723122
21
12.584183
0
LINE
8
Image
10
46.723122
20
12.584183
11
46.789698
21
12.701238
0
LINE
8
Image
10
46.789698
20
12.701238
11
46.842279
21
12.800553
0
LINE
8
Image
10
46.842279
20
12.800553
11
46.937983
21
12.973565
0
LINE
8
Image
10
46.937983
20
12.973565
11
46.979970
21
13.033175
0
LINE
8
Image
10
46.979970
20
13.033175
11
47.022526
21
13.103877
0
LINE
8
Image
10
47.022526
20
13.103877
11
47.089952
21
13.242456
0
LINE
8
Image
10
47.089952
20
13.242456
11
47.122404
21
13.300145
0
LINE
8
Image
10
47.122404
20
13.300145
11
47.160674
21
13.384648
0
LINE
8
Image
10
47.160674
20
13.384648
11
47.249675
21
13.539128
0
LINE
8
Image
10
47.249675
20
13.539128
11
47.334424
21
13.628102
0
LINE
8
Image
10
47.334424
20
13.628102
11
47.419364
21
13.523899
0
LINE
8
Image
10
47.419364
20
13.523899
11
47.462163
21
13.451100
0
LINE
8
Image
10
47.462163
20
13.451100
11
47.520713
21
13.349977
0
LINE
8
Image
10
47.520713
20
13.349977
11
47.554551
21
13.279048
0
LINE
8
Image
10
47.554551
20
13.279048
11
47.603974
21
13.183229
0
LINE
8
Image
10
47.603974
20
13.183229
11
47.707022
21
13.060034
0
LINE
8
Image
10
47.707022
20
13.060034
11
47.823955
21
13.138265
0
LINE
8
Image
10
47.823955
20
13.138265
11
47.873064
21
13.224294
0
LINE
8
Image
10
47.873064
20
13.224294
11
47.959503
21
13.376191
0
LINE
8
Image
10
47.959503
20
13.376191
11
48.009183
21
13.464744
0
LINE
8
Image
10
48.009183
20
13.464744
11
48.058606
21
13.548291
0
LINE
8
Image
10
48.058606
20
13.548291
11
48.114093
21
13.669166
0
LINE
8
Image
10
48.114093
20
13.669166
11
48.194817
21
13.837478
0
LINE
8
Image
10
48.194817
20
13.837478
11
48.244291
21
13.923476
0
LINE
8
Image
10
48.244291
20
13.923476
11
48.319379
21
14.115188
0
LINE
8
Image
10
48.319379
20
14.115188
11
48.370709
21
14.202622
0
LINE
8
Image
10
48.370709
20
14.202622
11
48.413601
21
14.294413
0
LINE
8
Image
10
48.413601
20
14.294413
11
48.489048
21
14.467722
0
LINE
8
Image
10
48.489048
20
14.467722
11
48.555500
21
14.654964
0
LINE
8
Image
10
48.555500
20
14.654964
11
48.589671
21
14.728299
0
LINE
8
Image
10
48.589671
20
14.728299
11
48.648963
21
14.864420
0
LINE
8
Image
10
48.648963
20
14.864420
11
48.713423
21
15.024312
0
LINE
8
Image
10
48.713423
20
15.024312
11
48.762586
21
15.154352
0
LINE
8
Image
10
48.762586
20
15.154352
11
48.840228
21
15.332301
0
LINE
8
Image
10
48.840228
20
15.332301
11
48.860209
21
15.383632
0
LINE
8
Image
10
48.860209
20
15.383632
11
48.938720
21
15.661758
0
LINE
8
Image
10
48.938720
20
15.661758
11
49.009592
21
15.894933
0
LINE
8
Image
10
49.009592
20
15.894933
11
49.066353
21
16.030406
0
LINE
8
Image
10
49.066353
20
16.030406
11
49.123113
21
16.192973
0
LINE
8
Image
10
49.123113
20
16.192973
11
49.167055
21
16.326738
0
LINE
8
Image
10
49.167055
20
16.326738
11
49.224950
21
16.488965
0
LINE
8
Image
10
49.224950
20
16.488965
11
49.250491
21
16.641074
0
LINE
8
Image
10
49.250491
20
16.641074
11
49.395666
21
16.849037
0
LINE
8
Image
10
49.395666
20
16.849037
11
49.572721
21
16.643595
0
LINE
8
Image
10
49.572721
20
16.643595
11
49.667745
21
16.497218
0
LINE
8
Image
10
49.667745
20
16.497218
11
49.720817
21
16.415088
0
LINE
8
Image
10
49.720817
20
16.415088
11
49.888987
21
16.222042
0
LINE
8
Image
10
49.888987
20
16.222042
11
50.020192
21
16.324705
0
LINE
8
Image
10
50.020192
20
16.324705
11
50.046834
21
16.447900
0
LINE
8
Image
10
50.046834
20
16.447900
11
50.083675
21
16.563187
0
LINE
8
Image
10
50.083675
20
16.563187
11
50.157857
21
16.824330
0
LINE
8
Image
10
50.157857
20
16.824330
11
50.197747
21
16.974902
0
LINE
8
Image
10
50.197747
20
16.974902
11
50.272837
21
17.269201
0
LINE
8
Image
10
50.272837
20
17.269201
11
50.302767
21
17.508747
0
LINE
8
Image
10
50.302767
20
17.508747
11
50.328788
21
17.700384
0
LINE
8
Image
10
50.328788
20
17.700384
11
50.356615
21
17.849505
0
LINE
8
Image
10
50.356615
20
17.849505
11
50.378967
21
18.061675
0
LINE
8
Image
10
50.378967
20
18.061675
11
50.401206
21
18.535374
0
LINE
8
Image
10
50.401206
20
18.535374
11
50.385881
21
21.004744
0
LINE
8
Image
10
50.385881
20
21.004744
11
50.371855
21
21.279317
0
LINE
8
Image
10
50.371855
20
21.279317
11
50.355681
21
21.530345
0
LINE
8
Image
10
50.355681
20
21.530345
11
50.246695
21
21.565876
0
LINE
8
Image
10
50.246695
20
21.565876
11
50.100157
21
21.530804
0
LINE
8
Image
10
50.100157
20
21.530804
11
50.010027
21
21.481692
0
LINE
8
Image
10
50.010027
20
21.481692
11
49.929867
21
21.458225
0
LINE
8
Image
10
49.929867
20
21.458225
11
49.823444
21
21.414432
0
LINE
8
Image
10
49.823444
20
21.414432
11
49.669478
21
21.345237
0
LINE
8
Image
10
49.669478
20
21.345237
11
49.541775
21
21.286996
0
LINE
8
Image
10
49.541775
20
21.286996
11
49.442450
21
21.239891
0
LINE
8
Image
10
49.442450
20
21.239891
11
49.247282
21
21.161848
0
LINE
8
Image
10
49.247282
20
21.161848
11
49.165691
21
21.149885
0
LINE
8
Image
10
49.165691
20
21.149885
11
49.171675
21
21.282360
0
LINE
8
Image
10
49.171675
20
21.282360
11
49.243534
21
21.452640
0
LINE
8
Image
10
49.243534
20
21.452640
11
49.301675
21
21.593521
0
LINE
8
Image
10
49.301675
20
21.593521
11
49.321910
21
21.644443
0
LINE
8
Image
10
49.321910
20
21.644443
11
49.392736
21
21.802235
0
LINE
8
Image
10
49.392736
20
21.802235
11
49.463681
21
21.954996
0
LINE
8
Image
10
49.463681
20
21.954996
11
49.505095
21
22.030967
0
LINE
8
Image
10
49.505095
20
22.030967
11
49.577865
21
22.190850
0
LINE
8
Image
10
49.577865
20
22.190850
11
49.649383
21
22.368113
0
LINE
8
Image
10
49.649383
20
22.368113
11
49.756627
21
22.628192
0
LINE
8
Image
10
49.756627
20
22.628192
11
49.715736
21
22.673319
0
LINE
8
Image
10
49.715736
20
22.673319
11
49.222463
21
22.698316
0
LINE
8
Image
10
49.222463
20
22.698316
11
48.727923
21
22.718347
0
LINE
8
Image
10
48.727923
20
22.718347
11
48.679226
21
22.737982
0
LINE
8
Image
10
48.679226
20
22.737982
11
48.687862
21
22.845978
0
LINE
8
Image
10
48.687862
20
22.845978
11
48.723176
21
22.999827
0
LINE
8
Image
10
48.723176
20
22.999827
11
48.774665
21
23.117970
0
LINE
8
Image
10
48.774665
20
23.117970
11
48.831547
21
23.227477
0
LINE
8
Image
10
48.831547
20
23.227477
11
48.873059
21
23.302087
0
LINE
8
Image
10
48.873059
20
23.302087
11
48.924875
21
23.386024
0
LINE
8
Image
10
48.924875
20
23.386024
11
48.967389
21
23.444451
0
LINE
8
Image
10
48.967389
20
23.444451
11
49.014045
21
23.504241
0
LINE
8
Image
10
49.014045
20
23.504241
11
49.094030
21
23.606904
0
LINE
8
Image
10
49.094030
20
23.606904
11
49.167250
21
23.702722
0
LINE
8
Image
10
49.167250
20
23.702722
11
49.427893
21
23.951878
0
LINE
8
Image
10
49.427893
20
23.951878
11
49.455494
21
24.020321
0
LINE
8
Image
10
49.455494
20
24.020321
11
49.385904
21
24.120217
0
LINE
8
Image
10
49.385904
20
24.120217
11
49.236809
21
24.195544
0
LINE
8
Image
10
49.236809
20
24.195544
11
49.120031
21
24.256612
0
LINE
8
Image
10
49.120031
20
24.256612
11
49.016125
21
24.313019
0
LINE
8
Image
10
49.016125
20
24.313019
11
48.912962
21
24.371685
0
LINE
8
Image
10
48.912962
20
24.371685
11
48.650448
21
24.524644
0
LINE
8
Image
10
48.650448
20
24.524644
11
48.550504
21
24.579502
0
LINE
8
Image
10
48.550504
20
24.579502
11
48.435106
21
24.632603
0
LINE
8
Image
10
48.435106
20
24.632603
11
48.316155
21
24.695154
0
LINE
8
Image
10
48.316155
20
24.695154
11
48.230402
21
24.744291
0
LINE
8
Image
10
48.230402
20
24.744291
11
48.109986
21
24.812696
0
LINE
8
Image
10
48.109986
20
24.812696
11
47.986277
21
24.905105
0
LINE
8
Image
10
47.986277
20
24.905105
11
47.964828
21
24.988239
0
LINE
8
Image
10
47.964828
20
24.988239
11
48.025297
21
25.025784
0
LINE
8
Image
10
48.025297
20
25.025784
11
48.300286
21
25.076691
0
LINE
8
Image
10
48.300286
20
25.076691
11
48.442179
21
25.116080
0
LINE
8
Image
10
48.442179
20
25.116080
11
48.584075
21
25.151170
0
LINE
8
Image
10
48.584075
20
25.151170
11
48.881966
21
25.200073
0
LINE
8
Image
10
48.881966
20
25.200073
11
48.942904
21
25.241407
0
LINE
8
Image
10
48.942904
20
25.241407
11
49.074755
21
25.374798
0
LINE
8
Image
10
49.074755
20
25.374798
11
49.173250
21
25.484220
0
LINE
8
Image
10
49.173250
20
25.484220
11
49.224897
21
25.541743
0
LINE
8
Image
10
49.224897
20
25.541743
11
49.338697
21
25.671679
0
LINE
8
Image
10
49.338697
20
25.671679
11
49.421249
21
25.760802
0
LINE
8
Image
10
49.421249
20
25.760802
11
49.471756
21
25.824567
0
LINE
8
Image
10
49.471756
20
25.824567
11
49.558934
21
25.930736
0
LINE
8
Image
10
49.558934
20
25.930736
11
49.595584
21
25.982301
0
LINE
8
Image
10
49.595584
20
25.982301
11
49.569422
21
26.038306
0
LINE
8
Image
10
49.569422
20
26.038306
11
49.437565
21
26.137513
0
LINE
8
Image
10
49.437565
20
26.137513
11
49.334856
21
26.188112
0
LINE
8
Image
10
49.334856
20
26.188112
11
49.213390
21
26.246357
0
LINE
8
Image
10
49.213390
20
26.246357
11
49.118808
21
26.315247
0
LINE
8
Image
10
49.118808
20
26.315247
11
49.093013
21
26.431598
0
LINE
8
Image
10
49.093013
20
26.431598
11
49.102863
21
26.910660
0
LINE
8
Image
10
49.102863
20
26.910660
11
49.085958
21
27.389752
0
LINE
8
Image
10
49.085958
20
27.389752
11
49.042730
21
27.475011
0
LINE
8
Image
10
49.042730
20
27.475011
11
49.002223
21
27.566758
0
LINE
8
Image
10
49.002223
20
27.566758
11
48.946252
21
27.676266
0
LINE
8
Image
10
48.946252
20
27.676266
11
48.881838
21
27.789157
0
LINE
8
Image
10
48.881838
20
27.789157
11
48.806626
21
27.912810
0
LINE
8
Image
10
48.806626
20
27.912810
11
48.715513
21
28.036691
0
LINE
8
Image
10
48.715513
20
28.036691
11
48.307361
21
28.423117
0
LINE
8
Image
10
48.307361
20
28.423117
11
48.173514
21
28.514913
0
LINE
8
Image
10
48.173514
20
28.514913
11
48.024526
21
28.604982
0
LINE
8
Image
10
48.024526
20
28.604982
11
47.870503
21
28.681078
0
LINE
8
Image
10
47.870503
20
28.681078
11
47.756993
21
28.715987
0
LINE
8
Image
10
47.756993
20
28.715987
11
47.660341
21
28.748299
0
LINE
8
Image
10
47.660341
20
28.748299
11
47.354582
21
28.827581
0
LINE
8
Image
10
47.354582
20
28.827581
11
47.170743
21
28.938443
0
LINE
8
Image
10
47.170743
20
28.938443
11
47.229716
21
29.205441
0
LINE
8
Image
10
47.229716
20
29.205441
11
47.248822
21
29.686186
0
LINE
8
Image
10
47.248822
20
29.686186
11
47.184916
21
29.729945
0
LINE
8
Image
10
47.184916
20
29.729945
11
47.069267
21
29.816710
0
LINE
8
Image
10
47.069267
20
29.816710
11
46.860045
21
29.937765
0
LINE
8
Image
10
46.860045
20
29.937765
11
46.661917
21
30.005780
0
LINE
8
Image
10
46.661917
20
30.005780
11
46.077159
21
30.069290
0
LINE
8
Image
10
46.077159
20
30.069290
11
45.654184
21
30.061345
0
LINE
8
Image
10
45.654184
20
30.061345
11
45.519488
21
30.047271
0
LINE
8
Image
10
45.519488
20
30.047271
11
45.388303
21
30.031365
0
LINE
8
Image
10
45.388303
20
30.031365
11
45.314267
21
30.011725
0
LINE
8
Image
10
45.314267
20
30.011725
11
45.230608
21
29.993409
0
LINE
8
Image
10
45.230608
20
29.993409
11
44.696159
21
29.978820
0
LINE
8
Image
10
44.696159
20
29.978820
11
44.161106
21
29.963651
0
LINE
8
Image
10
44.161106
20
29.963651
11
43.995236
21
29.950392
0
LINE
8
Image
10
43.995236
20
29.950392
11
43.805656
21
29.932626
0
LINE
8
Image
10
43.805656
20
29.932626
11
43.418837
21
29.907461
0
LINE
8
Image
10
43.418837
20
29.907461
11
43.028913
21
29.883714
0
LINE
8
Image
10
43.028913
20
29.883714
11
42.567751
21
29.830979
0
LINE
8
Image
10
42.567751
20
29.830979
11
42.387772
21
29.804170
0
LINE
8
Image
10
42.387772
20
29.804170
11
42.318888
21
29.787195
0
LINE
8
Image
10
42.318888
20
29.787195
11
42.207986
21
29.750946
0
LINE
8
Image
10
42.207986
20
29.750946
11
41.935574
21
29.703185
0
LINE
8
Image
10
41.935574
20
29.703185
11
41.844094
21
29.750119
0
LINE
8
Image
10
41.844094
20
29.750119
11
41.723484
21
29.788550
0
LINE
8
Image
10
41.723484
20
29.788550
11
41.482266
21
29.831094
0
LINE
8
Image
10
41.482266
20
29.831094
11
41.191385
21
29.853460
0
LINE
8
Image
10
41.191385
20
29.853460
11
41.014014
21
29.883042
0
LINE
8
Image
10
41.014014
20
29.883042
11
39.976354
21
29.932074
0
LINE
8
Image
10
39.976354
20
29.932074
11
39.603911
21
29.966526
0
LINE
8
Image
10
39.603911
20
29.966526
11
38.566051
21
29.993168
0
LINE
8
Image
10
38.566051
20
29.993168
11
37.558261
21
29.992801
0
LINE
8
Image
10
37.558261
20
29.992801
11
37.476456
21
29.951734
0
LINE
8
Image
10
37.476456
20
29.951734
11
37.310055
21
29.894366
0
LINE
8
Image
10
37.310055
20
29.894366
11
37.048085
21
29.753169
0
LINE
8
Image
10
37.048085
20
29.753169
11
36.959880
21
29.690023
0
LINE
8
Image
10
36.959880
20
29.690023
11
36.891396
21
29.635549
0
LINE
8
Image
10
36.891396
20
29.635549
11
36.903842
21
29.349191
0
LINE
8
Image
10
36.903842
20
29.349191
11
36.941637
21
29.191775
0
LINE
8
Image
10
36.941637
20
29.191775
11
36.978472
21
28.980364
0
LINE
8
Image
10
36.978472
20
28.980364
11
36.992330
21
28.864772
0
LINE
8
Image
10
36.992330
20
28.864772
11
36.952776
21
28.826656
0
LINE
8
Image
10
36.952776
20
28.826656
11
36.686206
21
28.751430
0
LINE
8
Image
10
36.686206
20
28.751430
11
36.537215
21
28.716978
0
LINE
8
Image
10
36.537215
20
28.716978
11
36.403349
21
28.681878
0
LINE
8
Image
10
36.403349
20
28.681878
11
36.184116
21
28.580583
0
LINE
8
Image
10
36.184116
20
28.580583
11
36.128603
21
28.555262
0
LINE
8
Image
10
36.128603
20
28.555262
11
35.919982
21
28.431253
0
LINE
8
Image
10
35.919982
20
28.431253
11
35.813562
21
28.361712
0
LINE
8
Image
10
35.813562
20
28.361712
11
35.425470
21
27.986976
0
LINE
8
Image
10
35.425470
20
27.986976
11
35.351587
21
27.884348
0
LINE
8
Image
10
35.351587
20
27.884348
11
35.270595
21
27.761338
0
LINE
8
Image
10
35.270595
20
27.761338
11
35.194658
21
27.634072
0
LINE
8
Image
10
35.194658
20
27.634072
11
35.141343
21
27.530143
0
LINE
8
Image
10
35.141343
20
27.530143
11
35.091302
21
27.408142
0
LINE
8
Image
10
35.091302
20
27.408142
11
35.061468
21
26.830176
0
LINE
8
Image
10
35.061468
20
26.830176
11
35.046708
21
26.281888
0
LINE
8
Image
10
35.046708
20
26.281888
11
34.965118
21
26.225462
0
LINE
8
Image
10
34.965118
20
26.225462
11
34.811665
21
26.143541
0
LINE
8
Image
10
34.811665
20
26.143541
11
34.698147
21
26.091055
0
LINE
8
Image
10
34.698147
20
26.091055
11
34.598080
21
25.960264
0
LINE
8
Image
10
34.598080
20
25.960264
11
34.847028
21
25.668021
0
LINE
8
Image
10
34.847028
20
25.668021
11
34.919615
21
25.582958
0
LINE
8
Image
10
34.919615
20
25.582958
11
35.018701
21
25.473711
0
LINE
8
Image
10
35.018701
20
25.473711
11
35.125570
21
25.353449
0
LINE
8
Image
10
35.125570
20
25.353449
11
35.494287
21
25.214212
0
LINE
8
Image
10
35.494287
20
25.214212
11
35.714223
21
25.165533
0
LINE
8
Image
10
35.714223
20
25.165533
11
36.044324
21
25.092330
0
LINE
8
Image
10
36.044324
20
25.092330
11
36.211208
21
24.995648
0
LINE
8
Image
10
36.211208
20
24.995648
11
36.205987
21
24.924737
0
LINE
8
Image
10
36.205987
20
24.924737
11
36.049540
21
24.777274
0
LINE
8
Image
10
36.049540
20
24.777274
11
35.917311
21
24.704208
0
LINE
8
Image
10
35.917311
20
24.704208
11
35.593346
21
24.527984
0
LINE
8
Image
10
35.593346
20
24.527984
11
35.444361
21
24.441977
0
LINE
8
Image
10
35.444361
20
24.441977
11
35.266993
21
24.338791
0
LINE
8
Image
10
35.266993
20
24.338791
11
35.096717
21
24.244682
0
LINE
8
Image
10
35.096717
20
24.244682
11
34.983204
21
24.181850
0
LINE
8
Image
10
34.983204
20
24.181850
11
34.855501
21
24.113010
0
LINE
8
Image
10
34.855501
20
24.113010
11
34.772812
21
24.065329
0
LINE
8
Image
10
34.772812
20
24.065329
11
34.722199
21
23.985412
0
LINE
8
Image
10
34.722199
20
23.985412
11
35.034139
21
23.675292
0
LINE
8
Image
10
35.034139
20
23.675292
11
35.111360
21
23.565785
0
LINE
8
Image
10
35.111360
20
23.565785
11
35.283239
21
23.326253
0
LINE
8
Image
10
35.283239
20
23.326253
11
35.341476
21
23.235165
0
LINE
8
Image
10
35.341476
20
23.235165
11
35.373406
21
23.170219
0
LINE
8
Image
10
35.373406
20
23.170219
11
35.423083
21
23.054386
0
LINE
8
Image
10
35.423083
20
23.054386
11
35.472765
21
22.843253
0
LINE
8
Image
10
35.472765
20
22.843253
11
35.429061
21
22.684011
0
LINE
8
Image
10
35.429061
20
22.684011
11
35.385358
21
22.641896
0
LINE
8
Image
10
35.385358
20
22.641896
11
34.943037
21
22.641725
0
LINE
8
Image
10
34.943037
20
22.641725
11
34.468786
21
22.633279
0
LINE
8
Image
10
34.468786
20
22.633279
11
34.499145
21
22.421304
0
LINE
8
Image
10
34.499145
20
22.421304
11
34.568447
21
22.226982
0
LINE
8
Image
10
34.568447
20
22.226982
11
34.605718
21
22.130037
0
LINE
8
Image
10
34.605718
20
22.130037
11
34.665086
21
22.019072
0
LINE
8
Image
10
34.665086
20
22.019072
11
34.733877
21
21.883314
0
LINE
8
Image
10
34.733877
20
21.883314
11
34.848341
21
21.654630
0
LINE
8
Image
10
34.848341
20
21.654630
11
34.867843
21
21.603704
0
LINE
8
Image
10
34.867843
20
21.603704
11
34.919332
21
21.433989
0
LINE
8
Image
10
34.919332
20
21.433989
11
34.951787
21
21.359675
0
LINE
8
Image
10
34.951787
20
21.359675
11
34.996536
21
21.125547
0
LINE
8
Image
10
34.996536
20
21.125547
11
34.777207
21
21.124051
0
LINE
8
Image
10
34.777207
20
21.124051
11
34.635515
21
21.174359
0
LINE
8
Image
10
34.635515
20
21.174359
11
34.500901
21
21.241248
0
LINE
8
Image
10
34.500901
20
21.241248
11
34.410824
21
21.286757
0
LINE
8
Image
10
34.410824
20
21.286757
11
34.273681
21
21.341510
0
LINE
8
Image
10
34.273681
20
21.341510
11
34.136733
21
21.396354
0
LINE
8
Image
10
34.136733
20
21.396354
11
33.989899
21
21.457692
0
LINE
8
Image
10
33.989899
20
21.457692
11
33.839607
21
21.519199
0
LINE
8
Image
10
33.839607
20
21.519199
11
33.762010
21
20.855573
0
LINE
8
Image
10
33.762010
20
20.855573
11
33.739941
21
19.911077
0
LINE
8
Image
10
33.739941
20
19.911077
11
33.768343
21
18.213717
0
LINE
8
Image
10
33.768343
20
18.213717
11
33.823732
21
17.776690
0
LINE
8
Image
10
33.823732
20
17.776690
11
33.867480
21
17.370754
0
LINE
8
Image
10
33.867480
20
17.370754
11
33.902131
21
17.157921
0
LINE
8
Image
10
33.902131
20
17.157921
11
33.982874
21
16.894781
0
LINE
8
Image
10
33.982874
20
16.894781
11
34.074424
21
16.584804
0
LINE
8
Image
10
34.074424
20
16.584804
11
34.102252
21
16.483557
0
LINE
8
Image
10
34.102252
20
16.483557
11
34.140569
21
16.358488
0
LINE
8
Image
10
34.140569
20
16.358488
11
34.197507
21
16.300664
0
LINE
8
Image
10
34.197507
20
16.300664
11
34.295100
21
16.417364
0
LINE
8
Image
10
34.295100
20
16.417364
11
34.328461
21
16.477670
0
LINE
8
Image
10
34.328461
20
16.477670
11
34.402954
21
16.576721
0
LINE
8
Image
10
34.402954
20
16.576721
11
34.468364
21
16.672540
0
LINE
8
Image
10
34.468364
20
16.672540
11
34.523364
21
16.773119
0
LINE
8
Image
10
34.523364
20
16.773119
11
34.689336
21
16.920118
0
LINE
8
Image
10
34.689336
20
16.920118
11
34.870906
21
16.763175
0
LINE
8
Image
10
34.870906
20
16.763175
11
34.919397
21
16.572903
0
LINE
8
Image
10
34.919397
20
16.572903
11
34.982428
21
16.358946
0
LINE
8
Image
10
34.982428
20
16.358946
11
35.024649
21
16.229483
0
LINE
8
Image
10
35.024649
20
16.229483
11
35.052959
21
16.126821
0
LINE
8
Image
10
35.052959
20
16.126821
11
35.167973
21
15.818257
0
LINE
8
Image
10
35.167973
20
15.818257
11
35.202141
21
15.721598
0
LINE
8
Image
10
35.202141
20
15.721598
11
35.244748
21
15.605247
0
LINE
8
Image
10
35.244748
20
15.605247
11
35.339391
21
15.328792
0
LINE
8
Image
10
35.339391
20
15.328792
11
35.381665
21
15.212441
0
LINE
8
Image
10
35.381665
20
15.212441
11
35.431703
21
15.079085
0
LINE
8
Image
10
35.431703
20
15.079085
11
35.494585
21
14.921668
0
LINE
8
Image
10
35.494585
20
14.921668
11
35.560676
21
14.765597
0
LINE
8
Image
10
35.560676
20
14.765597
11
35.615647
21
14.642401
0
LINE
8
Image
10
35.615647
20
14.642401
11
35.688043
21
14.469953
0
LINE
8
Image
10
35.688043
20
14.469953
11
35.720972
21
14.364127
0
LINE
8
Image
10
35.720972
20
14.364127
11
35.759290
21
14.257466
0
LINE
8
Image
10
35.759290
20
14.257466
11
35.835207
21
14.112509
0
LINE
8
Image
10
35.835207
20
14.112509
11
35.925936
21
13.937360
0
LINE
8
Image
10
35.925936
20
13.937360
11
35.969353
21
13.856564
0
LINE
8
Image
10
35.969353
20
13.856564
11
36.019030
21
13.742569
0
LINE
8
Image
10
36.019030
20
13.742569
11
36.068709
21
13.623318
0
LINE
8
Image
10
36.068709
20
13.623318
11
36.096028
21
13.574250
0
LINE
8
Image
10
36.096028
20
13.574250
11
36.195218
21
13.409107
0
LINE
8
Image
10
36.195218
20
13.409107
11
36.388904
21
13.128931
0
LINE
8
Image
10
36.388904
20
13.128931
11
36.451831
21
13.249495
0
LINE
8
Image
10
36.451831
20
13.249495
11
36.487290
21
13.320132
0
LINE
8
Image
10
36.487290
20
13.320132
11
36.522748
21
13.386520
0
LINE
8
Image
10
36.522748
20
13.386520
11
36.555965
21
13.448880
0
LINE
8
Image
10
36.555965
20
13.448880
11
36.598858
21
13.529225
0
LINE
8
Image
10
36.598858
20
13.529225
11
36.744479
21
13.682097
0
LINE
8
Image
10
36.744479
20
13.682097
11
36.873728
21
13.622304
0
LINE
8
Image
10
36.873728
20
13.622304
11
36.971139
21
13.450172
0
LINE
8
Image
10
36.971139
20
13.450172
11
37.075996
21
13.265380
0
LINE
8
Image
10
37.075996
20
13.265380
11
37.110789
21
13.174663
0
LINE
8
Image
10
37.110789
20
13.174663
11
37.161811
21
13.080057
0
LINE
8
Image
10
37.161811
20
13.080057
11
37.226282
21
12.974465
0
LINE
8
Image
10
37.226282
20
12.974465
11
37.291557
21
12.860787
0
LINE
8
Image
10
37.291557
20
12.860787
11
37.359564
21
12.746062
0
LINE
8
Image
10
37.359564
20
12.746062
11
37.514230
21
12.488655
0
LINE
8
Image
10
37.514230
20
12.488655
11
37.585178
21
12.376476
0
LINE
8
Image
10
37.585178
20
12.376476
11
37.641270
21
12.282821
0
LINE
8
Image
10
37.641270
20
12.282821
11
37.698662
21
12.171656
0
LINE
8
Image
10
37.698662
20
12.171656
11
37.768459
21
12.055073
0
LINE
8
Image
10
37.768459
20
12.055073
11
37.813973
21
11.992718
0
LINE
8
Image
10
37.813973
20
11.992718
11
37.870730
21
11.917076
0
LINE
8
Image
10
37.870730
20
11.917076
11
37.927485
21
11.838388
0
LINE
8
Image
10
37.927485
20
11.838388
11
37.991341
21
11.744558
0
LINE
8
Image
10
37.991341
20
11.744558
11
38.055188
21
11.644505
0
LINE
8
Image
10
38.055188
20
11.644505
11
38.104867
21
11.569826
0
LINE
8
Image
10
38.104867
20
11.569826
11
38.154547
21
11.503343
0
LINE
8
Image
10
38.154547
20
11.503343
11
38.192387
21
11.450492
0
LINE
8
Image
10
38.192387
20
11.450492
11
38.276221
21
11.335396
0
LINE
8
Image
10
38.276221
20
11.335396
11
38.353341
21
11.232524
0
LINE
8
Image
10
38.353341
20
11.232524
11
38.405230
21
11.166612
0
LINE
8
Image
10
38.405230
20
11.166612
11
38.550320
21
10.970999
0
LINE
8
Image
10
38.550320
20
10.970999
11
38.613030
21
10.888869
0
LINE
8
Image
10
38.613030
20
10.888869
11
39.190355
21
10.344045
0
LINE
8
Image
10
39.190355
20
10.344045
11
39.472357
21
10.138453
0
LINE
8
Image
10
39.472357
20
10.138453
11
39.554419
21
9.997638
0
LINE
8
Image
10
39.554419
20
9.997638
11
39.483779
21
9.885291
0
LINE
8
Image
10
39.483779
20
9.885291
11
39.366821
21
9.713253
0
LINE
8
Image
10
39.366821
20
9.713253
11
39.312101
21
9.603747
0
LINE
8
Image
10
39.312101
20
9.603747
11
39.312329
21
9.404220
0
LINE
8
Image
10
39.312329
20
9.404220
11
39.376633
21
9.055374
0
LINE
8
Image
10
39.376633
20
9.055374
11
39.424052
21
8.931805
0
LINE
8
Image
10
39.424052
20
8.931805
11
39.495028
21
8.817031
0
LINE
8
Image
10
39.495028
20
8.817031
11
39.545066
21
8.752078
0
LINE
8
Image
10
39.545066
20
8.752078
11
39.601830
21
8.674524
0
LINE
8
Image
10
39.601830
20
8.674524
11
39.658587
21
8.601140
0
LINE
8
Image
10
39.658587
20
8.601140
11
39.689225
21
8.579420
0
LINE
8
Image
10
39.689225
20
8.579420
11
39.772072
21
8.611642
0
LINE
8
Image
10
39.772072
20
8.611642
11
40.077146
21
8.891264
0
LINE
8
Image
10
40.077146
20
8.891264
11
40.171154
21
8.948359
0
LINE
8
Image
10
40.171154
20
8.948359
11
40.621084
21
9.045773
0
LINE
8
Image
10
40.621084
20
9.045773
11
41.066374
21
8.912377
0
LINE
8
Image
10
41.066374
20
8.912377
11
41.162634
21
8.793289
0
LINE
8
Image
10
41.162634
20
8.793289
11
41.127320
21
8.719451
0
LINE
8
Image
10
41.127320
20
8.719451
11
41.052819
21
8.612866
0
LINE
8
Image
10
41.052819
20
8.612866
11
40.981721
21
8.515070
0
LINE
8
Image
10
40.981721
20
8.515070
11
40.949788
21
8.469324
0
LINE
8
Image
10
40.949788
20
8.469324
11
40.902609
21
8.389168
0
LINE
8
Image
10
40.902609
20
8.389168
11
40.708587
21
8.010229
0
LINE
8
Image
10
40.708587
20
8.010229
11
40.676656
21
7.949759
0
LINE
8
Image
10
40.676656
20
7.949759
11
40.587031
21
7.758804
0
LINE
8
Image
10
40.587031
20
7.758804
11
40.531481
21
7.584713
0
LINE
8
Image
10
40.531481
20
7.584713
11
40.482733
21
7.447830
0
LINE
8
Image
10
40.482733
20
7.447830
11
40.458434
21
7.304102
0
LINE
8
Image
10
40.458434
20
7.304102
11
40.431764
21
7.159184
0
LINE
8
Image
10
40.431764
20
7.159184
11
40.420475
21
7.054397
0
LINE
8
Image
10
40.420475
20
7.054397
11
40.405404
21
6.939238
0
LINE
8
Image
10
40.405404
20
6.939238
11
40.353862
21
6.637154
0
LINE
8
Image
10
40.353862
20
6.637154
11
40.214921
21
6.626531
0
LINE
8
Image
10
40.214921
20
6.626531
11
40.075900
21
6.626560
0
LINE
8
Image
10
40.075900
20
6.626560
11
39.861900
21
6.835310
0
LINE
8
Image
10
39.861900
20
6.835310
11
39.861400
21
6.835210
0
LINE
8
Image
10
41.921260
20
10.295350
11
41.764901
21
10.318193
0
LINE
8
Image
10
41.764901
20
10.318193
11
41.540724
21
10.390766
0
LINE
8
Image
10
41.540724
20
10.390766
11
41.465501
21
10.429631
0
LINE
8
Image
10
41.465501
20
10.429631
11
41.298863
21
10.524924
0
LINE
8
Image
10
41.298863
20
10.524924
11
41.084168
21
10.670855
0
LINE
8
Image
10
41.084168
20
10.670855
11
40.951572
21
10.760353
0
LINE
8
Image
10
40.951572
20
10.760353
11
40.667770
21
10.975907
0
LINE
8
Image
10
40.667770
20
10.975907
11
40.525877
21
11.094290
0
LINE
8
Image
10
40.525877
20
11.094290
11
40.414870
21
11.186687
0
LINE
8
Image
10
40.414870
20
11.186687
11
40.311639
21
11.266822
0
LINE
8
Image
10
40.311639
20
11.266822
11
39.883678
21
11.686149
0
LINE
8
Image
10
39.883678
20
11.686149
11
39.802283
21
11.775732
0
LINE
8
Image
10
39.802283
20
11.775732
11
39.659222
21
11.982495
0
LINE
8
Image
10
39.659222
20
11.982495
11
39.611944
21
12.054675
0
LINE
8
Image
10
39.611944
20
12.054675
11
39.472619
21
12.354517
0
LINE
8
Image
10
39.472619
20
12.354517
11
39.416779
21
12.481484
0
LINE
8
Image
10
39.416779
20
12.481484
11
39.232426
21
13.040794
0
LINE
8
Image
10
39.232426
20
13.040794
11
39.187959
21
13.262062
0
LINE
8
Image
10
39.187959
20
13.262062
11
39.137867
21
13.648597
0
LINE
8
Image
10
39.137867
20
13.648597
11
39.117293
21
13.788004
0
LINE
8
Image
10
39.117293
20
13.788004
11
39.104706
21
14.185609
0
LINE
8
Image
10
39.104706
20
14.185609
11
39.104700
21
14.560200
0
LINE
8
Image
10
39.104700
20
14.560200
11
39.160763
21
14.613013
0
LINE
8
Image
10
39.160763
20
14.613013
11
39.216835
21
14.665825
0
LINE
8
Image
10
39.216835
20
14.665825
11
39.345492
21
14.663821
0
LINE
8
Image
10
39.345492
20
14.663821
11
39.527102
21
14.636175
0
LINE
8
Image
10
39.527102
20
14.636175
11
39.636807
21
14.600660
0
LINE
8
Image
10
39.636807
20
14.600660
11
39.764177
21
14.556748
0
LINE
8
Image
10
39.764177
20
14.556748
11
40.020166
21
14.485459
0
LINE
8
Image
10
40.020166
20
14.485459
11
40.119494
21
14.453766
0
LINE
8
Image
10
40.119494
20
14.453766
11
40.289569
21
14.387778
0
LINE
8
Image
10
40.289569
20
14.387778
11
40.391968
21
14.347764
0
LINE
8
Image
10
40.391968
20
14.347764
11
40.875296
21
14.196140
0
LINE
8
Image
10
40.875296
20
14.196140
11
40.942939
21
14.184321
0
LINE
8
Image
10
40.942939
20
14.184321
11
42.095449
21
14.140681
0
LINE
8
Image
10
42.095449
20
14.140681
11
43.197099
21
14.168189
0
LINE
8
Image
10
43.197099
20
14.168189
11
43.316518
21
14.196140
0
LINE
8
Image
10
43.316518
20
14.196140
11
43.400725
21
14.208981
0
LINE
8
Image
10
43.400725
20
14.208981
11
43.641661
21
14.291962
0
LINE
8
Image
10
43.641661
20
14.291962
11
43.823776
21
14.375816
0
LINE
8
Image
10
43.823776
20
14.375816
11
43.871384
21
14.387779
0
LINE
8
Image
10
43.871384
20
14.387779
11
43.978112
21
14.416283
0
LINE
8
Image
10
43.978112
20
14.416283
11
44.270138
21
14.510971
0
LINE
8
Image
10
44.270138
20
14.510971
11
44.362433
21
14.539246
0
LINE
8
Image
10
44.362433
20
14.539246
11
44.519106
21
14.592845
0
LINE
8
Image
10
44.519106
20
14.592845
11
44.673637
21
14.639959
0
LINE
8
Image
10
44.673637
20
14.639959
11
44.845352
21
14.664451
0
LINE
8
Image
10
44.845352
20
14.664451
11
44.963002
21
14.667160
0
LINE
8
Image
10
44.963002
20
14.667160
11
45.020510
21
14.606177
0
LINE
8
Image
10
45.020510
20
14.606177
11
45.085910
21
14.517817
0
LINE
8
Image
10
45.085910
20
14.517817
11
45.065844
21
13.799178
0
LINE
8
Image
10
45.065844
20
13.799178
11
45.036679
21
13.600697
0
LINE
8
Image
10
45.036679
20
13.600697
11
45.010319
21
13.402216
0
LINE
8
Image
10
45.010319
20
13.402216
11
44.978722
21
13.258489
0
LINE
8
Image
10
44.978722
20
13.258489
11
44.949173
21
13.136674
0
LINE
8
Image
10
44.949173
20
13.136674
11
44.936501
21
13.034983
0
LINE
8
Image
10
44.936501
20
13.034983
11
44.922983
21
12.930940
0
LINE
8
Image
10
44.922983
20
12.930940
11
44.759263
21
12.498785
0
LINE
8
Image
10
44.759263
20
12.498785
11
44.691208
21
12.341369
0
LINE
8
Image
10
44.691208
20
12.341369
11
44.583430
21
12.087465
0
LINE
8
Image
10
44.583430
20
12.087465
11
44.520706
21
11.983943
0
LINE
8
Image
10
44.520706
20
11.983943
11
44.462261
21
11.897384
0
LINE
8
Image
10
44.462261
20
11.897384
11
44.439852
21
11.862989
0
LINE
8
Image
10
44.439852
20
11.862989
11
44.402489
21
11.813333
0
LINE
8
Image
10
44.402489
20
11.813333
11
44.323594
21
11.725395
0
LINE
8
Image
10
44.323594
20
11.725395
11
43.829183
21
11.239458
0
LINE
8
Image
10
43.829183
20
11.239458
11
43.700188
21
11.136796
0
LINE
8
Image
10
43.700188
20
11.136796
11
43.571766
21
11.034134
0
LINE
8
Image
10
43.571766
20
11.034134
11
43.477941
21
10.955997
0
LINE
8
Image
10
43.477941
20
10.955997
11
43.210911
21
10.762138
0
LINE
8
Image
10
43.210911
20
10.762138
11
43.060117
21
10.652152
0
LINE
8
Image
10
43.060117
20
10.652152
11
42.953869
21
10.568728
0
LINE
8
Image
10
42.953869
20
10.568728
11
42.882947
21
10.528810
0
LINE
8
Image
10
42.882947
20
10.528810
11
42.763753
21
10.458772
0
LINE
8
Image
10
42.763753
20
10.458772
11
42.680407
21
10.411462
0
LINE
8
Image
10
42.680407
20
10.411462
11
42.581076
21
10.377087
0
LINE
8
Image
10
42.581076
20
10.377087
11
42.423929
21
10.328268
0
LINE
8
Image
10
42.423929
20
10.328268
11
41.921272
21
10.295375
0
LINE
8
Image
10
41.921272
20
10.295375
11
41.921260
21
10.295350
0
LINE
8
Image
10
40.793250
20
12.216630
11
41.245082
21
12.356524
0
LINE
8
Image
10
41.245082
20
12.356524
11
41.379874
21
12.416674
0
LINE
8
Image
10
41.379874
20
12.416674
11
41.445510
21
12.457316
0
LINE
8
Image
10
41.445510
20
12.457316
11
41.535503
21
12.506559
0
LINE
8
Image
10
41.535503
20
12.506559
11
41.791261
21
12.749279
0
LINE
8
Image
10
41.791261
20
12.749279
11
41.784826
21
12.969394
0
LINE
8
Image
10
41.784826
20
12.969394
11
41.708996
21
13.108241
0
LINE
8
Image
10
41.708996
20
13.108241
11
41.624349
21
13.206522
0
LINE
8
Image
10
41.624349
20
13.206522
11
41.526353
21
13.301165
0
LINE
8
Image
10
41.526353
20
13.301165
11
41.438796
21
13.362831
0
LINE
8
Image
10
41.438796
20
13.362831
11
41.176293
21
13.476808
0
LINE
8
Image
10
41.176293
20
13.476808
11
41.245937
21
13.369117
0
LINE
8
Image
10
41.245937
20
13.369117
11
41.332376
21
13.132987
0
LINE
8
Image
10
41.332376
20
13.132987
11
40.938913
21
12.627920
0
LINE
8
Image
10
40.938913
20
12.627920
11
40.716144
21
12.593626
0
LINE
8
Image
10
40.716144
20
12.593626
11
40.468706
21
12.622420
0
LINE
8
Image
10
40.468706
20
12.622420
11
40.325803
21
12.649672
0
LINE
8
Image
10
40.325803
20
12.649672
11
40.204315
21
12.685506
0
LINE
8
Image
10
40.204315
20
12.685506
11
40.026953
21
12.738386
0
LINE
8
Image
10
40.026953
20
12.738386
11
39.880071
21
12.778599
0
LINE
8
Image
10
39.880071
20
12.778599
11
39.780749
21
12.797262
0
LINE
8
Image
10
39.780749
20
12.797262
11
39.731690
21
12.756443
0
LINE
8
Image
10
39.731690
20
12.756443
11
39.760381
21
12.667469
0
LINE
8
Image
10
39.760381
20
12.667469
11
39.813196
21
12.577646
0
LINE
8
Image
10
39.813196
20
12.577646
11
40.112092
21
12.289450
0
LINE
8
Image
10
40.112092
20
12.289450
11
40.381687
21
12.206355
0
LINE
8
Image
10
40.381687
20
12.206355
11
40.793229
21
12.216636
0
LINE
8
Image
10
40.793229
20
12.216636
11
40.793250
21
12.216630
0
LINE
8
Image
10
43.921960
20
12.228960
11
44.403617
21
12.655082
0
LINE
8
Image
10
44.403617
20
12.655082
11
44.440887
21
12.778191
0
LINE
8
Image
10
44.440887
20
12.778191
11
44.297642
21
12.779236
0
LINE
8
Image
10
44.297642
20
12.779236
11
44.152907
21
12.739222
0
LINE
8
Image
10
44.152907
20
12.739222
11
43.982250
21
12.690832
0
LINE
8
Image
10
43.982250
20
12.690832
11
43.804879
21
12.642523
0
LINE
8
Image
10
43.804879
20
12.642523
11
43.645345
21
12.608939
0
LINE
8
Image
10
43.645345
20
12.608939
11
43.449768
21
12.594602
0
LINE
8
Image
10
43.449768
20
12.594602
11
43.229742
21
12.630774
0
LINE
8
Image
10
43.229742
20
12.630774
11
42.894355
21
12.948441
0
LINE
8
Image
10
42.894355
20
12.948441
11
42.844052
21
13.174379
0
LINE
8
Image
10
42.844052
20
13.174379
11
42.920712
21
13.361150
0
LINE
8
Image
10
42.920712
20
13.361150
11
42.992523
21
13.475943
0
LINE
8
Image
10
42.992523
20
13.475943
11
42.879008
21
13.450128
0
LINE
8
Image
10
42.879008
20
13.450128
11
42.813282
21
13.415905
0
LINE
8
Image
10
42.813282
20
13.415905
11
42.603278
21
13.257263
0
LINE
8
Image
10
42.603278
20
13.257263
11
42.371249
21
12.865197
0
LINE
8
Image
10
42.371249
20
12.865197
11
42.400510
21
12.721249
0
LINE
8
Image
10
42.400510
20
12.721249
11
42.643275
21
12.504038
0
LINE
8
Image
10
42.643275
20
12.504038
11
42.737774
21
12.450180
0
LINE
8
Image
10
42.737774
20
12.450180
11
42.790600
21
12.416657
0
LINE
8
Image
10
42.790600
20
12.416657
11
42.926470
21
12.356273
0
LINE
8
Image
10
42.926470
20
12.356273
11
43.368526
21
12.216734
0
LINE
8
Image
10
43.368526
20
12.216734
11
43.921910
21
12.228972
0
LINE
8
Image
10
43.921910
20
12.228972
11
43.921960
21
12.228960
0
LINE
8
Image
10
45.568500
20
15.910490
11
45.404402
21
16.180935
0
LINE
8
Image
10
45.404402
20
16.180935
11
45.368754
21
16.283598
0
LINE
8
Image
10
45.368754
20
16.283598
11
45.318663
21
16.447858
0
LINE
8
Image
10
45.318663
20
16.447858
11
45.265549
21
16.653183
0
LINE
8
Image
10
45.265549
20
16.653183
11
45.231281
21
17.043301
0
LINE
8
Image
10
45.231281
20
17.043301
11
45.255496
21
17.406043
0
LINE
8
Image
10
45.255496
20
17.406043
11
45.291143
21
17.597680
0
LINE
8
Image
10
45.291143
20
17.597680
11
45.371261
21
17.908636
0
LINE
8
Image
10
45.371261
20
17.908636
11
45.404811
21
18.001239
0
LINE
8
Image
10
45.404811
20
18.001239
11
45.483506
21
18.234189
0
LINE
8
Image
10
45.483506
20
18.234189
11
45.555419
21
18.422500
0
LINE
8
Image
10
45.555419
20
18.422500
11
45.531176
21
18.540155
0
LINE
8
Image
10
45.531176
20
18.540155
11
45.423446
21
18.562710
0
LINE
8
Image
10
45.423446
20
18.562710
11
45.191948
21
18.630302
0
LINE
8
Image
10
45.191948
20
18.630302
11
45.103263
21
18.672184
0
LINE
8
Image
10
45.103263
20
18.672184
11
44.724479
21
19.002099
0
LINE
8
Image
10
44.724479
20
19.002099
11
44.676145
21
19.094326
0
LINE
8
Image
10
44.676145
20
19.094326
11
44.625845
21
19.191949
0
LINE
8
Image
10
44.625845
20
19.191949
11
44.575703
21
19.290824
0
LINE
8
Image
10
44.575703
20
19.290824
11
44.520726
21
19.298082
0
LINE
8
Image
10
44.520726
20
19.298082
11
44.094424
21
19.162387
0
LINE
8
Image
10
44.094424
20
19.162387
11
44.030571
21
19.182343
0
LINE
8
Image
10
44.030571
20
19.182343
11
43.942255
21
19.237144
0
LINE
8
Image
10
43.942255
20
19.237144
11
43.795231
21
19.363071
0
LINE
8
Image
10
43.795231
20
19.363071
11
43.666120
21
19.586337
0
LINE
8
Image
10
43.666120
20
19.586337
11
43.631808
21
19.731976
0
LINE
8
Image
10
43.631808
20
19.731976
11
43.794326
21
19.690070
0
LINE
8
Image
10
43.794326
20
19.690070
11
44.096033
21
19.644205
0
LINE
8
Image
10
44.096033
20
19.644205
11
44.455273
21
19.739294
0
LINE
8
Image
10
44.455273
20
19.739294
11
44.543030
21
19.781071
0
LINE
8
Image
10
44.543030
20
19.781071
11
45.064277
21
20.269717
0
LINE
8
Image
10
45.064277
20
20.269717
11
45.156800
21
20.366572
0
LINE
8
Image
10
45.156800
20
20.366572
11
45.210036
21
20.424337
0
LINE
8
Image
10
45.210036
20
20.424337
11
45.333878
21
20.614118
0
LINE
8
Image
10
45.333878
20
20.614118
11
45.363712
21
20.651463
0
LINE
8
Image
10
45.363712
20
20.651463
11
45.415248
21
20.718604
0
LINE
8
Image
10
45.415248
20
20.718604
11
45.491846
21
20.817572
0
LINE
8
Image
10
45.491846
20
20.817572
11
45.546699
21
20.902075
0
LINE
8
Image
10
45.546699
20
20.902075
11
45.594778
21
20.989489
0
LINE
8
Image
10
45.594778
20
20.989489
11
45.652148
21
21.078477
0
LINE
8
Image
10
45.652148
20
21.078477
11
45.698757
21
21.159051
0
LINE
8
Image
10
45.698757
20
21.159051
11
45.775448
21
21.288879
0
LINE
8
Image
10
45.775448
20
21.288879
11
45.829979
21
21.375400
0
LINE
8
Image
10
45.829979
20
21.375400
11
45.881964
21
21.455354
0
LINE
8
Image
10
45.881964
20
21.455354
11
45.952297
21
21.569389
0
LINE
8
Image
10
45.952297
20
21.569389
11
46.014609
21
21.682938
0
LINE
8
Image
10
46.014609
20
21.682938
11
46.071713
21
21.782686
0
LINE
8
Image
10
46.071713
20
21.782686
11
46.100023
21
21.827918
0
LINE
8
Image
10
46.100023
20
21.827918
11
46.146155
21
21.902787
0
LINE
8
Image
10
46.146155
20
21.902787
11
46.240894
21
22.059344
0
LINE
8
Image
10
46.240894
20
22.059344
11
46.276113
21
22.120942
0
LINE
8
Image
10
46.276113
20
22.120942
11
46.450470
21
22.409147
0
LINE
8
Image
10
46.450470
20
22.409147
11
46.549606
21
22.563180
0
LINE
8
Image
10
46.549606
20
22.563180
11
46.596692
21
22.629446
0
LINE
8
Image
10
46.596692
20
22.629446
11
46.646368
21
22.700312
0
LINE
8
Image
10
46.646368
20
22.700312
11
46.696051
21
22.768960
0
LINE
8
Image
10
46.696051
20
22.768960
11
46.736225
21
22.831517
0
LINE
8
Image
10
46.736225
20
22.831517
11
46.808985
21
22.947505
0
LINE
8
Image
10
46.808985
20
22.947505
11
46.871689
21
23.027614
0
LINE
8
Image
10
46.871689
20
23.027614
11
47.028644
21
23.218938
0
LINE
8
Image
10
47.028644
20
23.218938
11
47.128415
21
23.333516
0
LINE
8
Image
10
47.128415
20
23.333516
11
47.192683
21
23.402719
0
LINE
8
Image
10
47.192683
20
23.402719
11
47.221277
21
23.435880
0
LINE
8
Image
10
47.221277
20
23.435880
11
47.285740
21
23.505457
0
LINE
8
Image
10
47.285740
20
23.505457
11
47.345836
21
23.568850
0
LINE
8
Image
10
47.345836
20
23.568850
11
47.445703
21
23.643483
0
LINE
8
Image
10
47.445703
20
23.643483
11
47.553108
21
23.709540
0
LINE
8
Image
10
47.553108
20
23.709540
11
47.616504
21
23.744631
0
LINE
8
Image
10
47.616504
20
23.744631
11
47.705830
21
23.743773
0
LINE
8
Image
10
47.705830
20
23.743773
11
47.673896
21
23.688136
0
LINE
8
Image
10
47.673896
20
23.688136
11
47.646775
21
23.645387
0
LINE
8
Image
10
47.646775
20
23.645387
11
47.549657
21
23.463288
0
LINE
8
Image
10
47.549657
20
23.463288
11
47.485400
21
23.354804
0
LINE
8
Image
10
47.485400
20
23.354804
11
47.433494
21
23.264292
0
LINE
8
Image
10
47.433494
20
23.264292
11
47.362981
21
23.046539
0
LINE
8
Image
10
47.362981
20
23.046539
11
47.382539
21
22.951804
0
LINE
8
Image
10
47.382539
20
22.951804
11
47.547478
21
22.811549
0
LINE
8
Image
10
47.547478
20
22.811549
11
47.711291
21
22.750373
0
LINE
8
Image
10
47.711291
20
22.750373
11
47.554573
21
22.584461
0
LINE
8
Image
10
47.554573
20
22.584461
11
47.469438
21
22.531618
0
LINE
8
Image
10
47.469438
20
22.531618
11
47.263695
21
22.332904
0
LINE
8
Image
10
47.263695
20
22.332904
11
47.206931
21
22.263842
0
LINE
8
Image
10
47.206931
20
22.263842
11
47.150174
21
22.186068
0
LINE
8
Image
10
47.150174
20
22.186068
11
47.102656
21
22.113898
0
LINE
8
Image
10
47.102656
20
22.113898
11
47.037573
21
22.008375
0
LINE
8
Image
10
47.037573
20
22.008375
11
46.972786
21
21.888959
0
LINE
8
Image
10
46.972786
20
21.888959
11
46.915455
21
21.776426
0
LINE
8
Image
10
46.915455
20
21.776426
11
46.863210
21
21.674794
0
LINE
8
Image
10
46.863210
20
21.674794
11
46.788741
21
21.528720
0
LINE
8
Image
10
46.788741
20
21.528720
11
46.728833
21
21.400715
0
LINE
8
Image
10
46.728833
20
21.400715
11
46.667746
21
21.199009
0
LINE
8
Image
10
46.667746
20
21.199009
11
46.623282
21
21.066277
0
LINE
8
Image
10
46.623282
20
21.066277
11
46.569138
21
20.810183
0
LINE
8
Image
10
46.569138
20
20.810183
11
46.571113
21
20.575959
0
LINE
8
Image
10
46.571113
20
20.575959
11
46.642225
21
20.465409
0
LINE
8
Image
10
46.642225
20
20.465409
11
46.724823
21
20.528575
0
LINE
8
Image
10
46.724823
20
20.528575
11
46.803450
21
20.641504
0
LINE
8
Image
10
46.803450
20
20.641504
11
46.868141
21
20.815286
0
LINE
8
Image
10
46.868141
20
20.815286
11
46.918334
21
20.911104
0
LINE
8
Image
10
46.918334
20
20.911104
11
46.988571
21
21.031658
0
LINE
8
Image
10
46.988571
20
21.031658
11
47.043889
21
21.122871
0
LINE
8
Image
10
47.043889
20
21.122871
11
47.333937
21
21.457589
0
LINE
8
Image
10
47.333937
20
21.457589
11
47.382067
21
21.505719
0
LINE
8
Image
10
47.382067
20
21.505719
11
47.468602
21
21.573784
0
LINE
8
Image
10
47.468602
20
21.573784
11
47.538065
21
21.621122
0
LINE
8
Image
10
47.538065
20
21.621122
11
47.614240
21
21.676738
0
LINE
8
Image
10
47.614240
20
21.676738
11
47.739064
21
21.752127
0
LINE
8
Image
10
47.739064
20
21.752127
11
47.830303
21
21.792721
0
LINE
8
Image
10
47.830303
20
21.792721
11
47.950911
21
21.845790
0
LINE
8
Image
10
47.950911
20
21.845790
11
48.100892
21
21.915548
0
LINE
8
Image
10
48.100892
20
21.915548
11
48.214402
21
21.953378
0
LINE
8
Image
10
48.214402
20
21.953378
11
48.604613
21
22.027445
0
LINE
8
Image
10
48.604613
20
22.027445
11
48.753604
21
21.986068
0
LINE
8
Image
10
48.753604
20
21.986068
11
48.703922
21
21.908581
0
LINE
8
Image
10
48.703922
20
21.908581
11
48.654242
21
21.853887
0
LINE
8
Image
10
48.654242
20
21.853887
11
48.615211
21
21.813397
0
LINE
8
Image
10
48.615211
20
21.813397
11
48.533618
21
21.750149
0
LINE
8
Image
10
48.533618
20
21.750149
11
48.271877
21
21.467389
0
LINE
8
Image
10
48.271877
20
21.467389
11
48.286129
21
21.339137
0
LINE
8
Image
10
48.286129
20
21.339137
11
48.356160
21
21.197735
0
LINE
8
Image
10
48.356160
20
21.197735
11
48.421037
21
21.067695
0
LINE
8
Image
10
48.421037
20
21.067695
11
48.476110
21
20.971876
0
LINE
8
Image
10
48.476110
20
20.971876
11
48.532752
21
20.862369
0
LINE
8
Image
10
48.532752
20
20.862369
11
48.582643
21
20.759707
0
LINE
8
Image
10
48.582643
20
20.759707
11
48.654330
21
20.640415
0
LINE
8
Image
10
48.654330
20
20.640415
11
48.704012
21
20.562722
0
LINE
8
Image
10
48.704012
20
20.562722
11
48.753540
21
20.497022
0
LINE
8
Image
10
48.753540
20
20.497022
11
48.732542
21
20.452238
0
LINE
8
Image
10
48.732542
20
20.452238
11
48.665142
21
20.424557
0
LINE
8
Image
10
48.665142
20
20.424557
11
48.505238
21
20.459238
0
LINE
8
Image
10
48.505238
20
20.459238
11
48.169950
21
20.544340
0
LINE
8
Image
10
48.169950
20
20.544340
11
47.889853
21
20.540719
0
LINE
8
Image
10
47.889853
20
20.540719
11
47.817048
21
20.316321
0
LINE
8
Image
10
47.817048
20
20.316321
11
47.783069
21
20.188388
0
LINE
8
Image
10
47.783069
20
20.188388
11
47.728247
21
19.972652
0
LINE
8
Image
10
47.728247
20
19.972652
11
47.662633
21
19.773644
0
LINE
8
Image
10
47.662633
20
19.773644
11
47.604120
21
19.623071
0
LINE
8
Image
10
47.604120
20
19.623071
11
47.547622
21
19.482894
0
LINE
8
Image
10
47.547622
20
19.482894
11
47.504874
21
19.403233
0
LINE
8
Image
10
47.504874
20
19.403233
11
47.373954
21
19.257050
0
LINE
8
Image
10
47.373954
20
19.257050
11
47.129189
21
19.091392
0
LINE
8
Image
10
47.129189
20
19.091392
11
46.908926
21
19.046613
0
LINE
8
Image
10
46.908926
20
19.046613
11
46.674797
21
18.938488
0
LINE
8
Image
10
46.674797
20
18.938488
11
46.607939
21
18.822327
0
LINE
8
Image
10
46.607939
20
18.822327
11
46.563477
21
18.733007
0
LINE
8
Image
10
46.563477
20
18.733007
11
46.499085
21
18.608522
0
LINE
8
Image
10
46.499085
20
18.608522
11
46.454858
21
18.521425
0
LINE
8
Image
10
46.454858
20
18.521425
11
46.406576
21
18.406587
0
LINE
8
Image
10
46.406576
20
18.406587
11
46.335309
21
18.235115
0
LINE
8
Image
10
46.335309
20
18.235115
11
46.277242
21
18.116383
0
LINE
8
Image
10
46.277242
20
18.116383
11
46.222093
21
17.997614
0
LINE
8
Image
10
46.222093
20
17.997614
11
46.173655
21
17.869544
0
LINE
8
Image
10
46.173655
20
17.869544
11
46.121139
21
17.734197
0
LINE
8
Image
10
46.121139
20
17.734197
11
46.049060
21
17.553981
0
LINE
8
Image
10
46.049060
20
17.553981
11
45.981905
21
17.348655
0
LINE
8
Image
10
45.981905
20
17.348655
11
45.938062
21
17.195939
0
LINE
8
Image
10
45.938062
20
17.195939
11
45.864882
21
16.927894
0
LINE
8
Image
10
45.864882
20
16.927894
11
45.821276
21
16.787092
0
LINE
8
Image
10
45.821276
20
16.787092
11
45.751572
21
16.495813
0
LINE
8
Image
10
45.751572
20
16.495813
11
45.720830
21
16.331553
0
LINE
8
Image
10
45.720830
20
16.331553
11
45.666474
21
16.044098
0
LINE
8
Image
10
45.666474
20
16.044098
11
45.618239
21
15.893823
0
LINE
8
Image
10
45.618239
20
15.893823
11
45.568560
21
15.910542
0
LINE
8
Image
10
45.568560
20
15.910542
11
45.568500
21
15.910490
0
LINE
8
Image
10
38.455570
20
15.909926
11
38.433218
21
16.016672
0
LINE
8
Image
10
38.433218
20
16.016672
11
38.375848
21
16.321151
0
LINE
8
Image
10
38.375848
20
16.321151
11
38.338485
21
16.536159
0
LINE
8
Image
10
38.338485
20
16.536159
11
38.267991
21
16.790065
0
LINE
8
Image
10
38.267991
20
16.790065
11
38.232347
21
16.920104
0
LINE
8
Image
10
38.232347
20
16.920104
11
38.160848
21
17.193871
0
LINE
8
Image
10
38.160848
20
17.193871
11
38.112100
21
17.358131
0
LINE
8
Image
10
38.112100
20
17.358131
11
38.046184
21
17.547279
0
LINE
8
Image
10
38.046184
20
17.547279
11
37.987971
21
17.691006
0
LINE
8
Image
10
37.987971
20
17.691006
11
37.938136
21
17.830379
0
LINE
8
Image
10
37.938136
20
17.830379
11
37.870465
21
18.006419
0
LINE
8
Image
10
37.870465
20
18.006419
11
37.816281
21
18.115926
0
LINE
8
Image
10
37.816281
20
18.115926
11
37.764208
21
18.227341
0
LINE
8
Image
10
37.764208
20
18.227341
11
37.692075
21
18.405290
0
LINE
8
Image
10
37.692075
20
18.405290
11
37.634787
21
18.535329
0
LINE
8
Image
10
37.634787
20
18.535329
11
37.585265
21
18.625624
0
LINE
8
Image
10
37.585265
20
18.625624
11
37.535583
21
18.721442
0
LINE
8
Image
10
37.535583
20
18.721442
11
37.485336
21
18.819700
0
LINE
8
Image
10
37.485336
20
18.819700
11
37.414891
21
18.945727
0
LINE
8
Image
10
37.414891
20
18.945727
11
37.193762
21
19.044103
0
LINE
8
Image
10
37.193762
20
19.044103
11
37.044774
21
19.067132
0
LINE
8
Image
10
37.044774
20
19.067132
11
36.927768
21
19.102375
0
LINE
8
Image
10
36.927768
20
19.102375
11
36.732665
21
19.246740
0
LINE
8
Image
10
36.732665
20
19.246740
11
36.593151
21
19.397620
0
LINE
8
Image
10
36.593151
20
19.397620
11
36.544970
21
19.491448
0
LINE
8
Image
10
36.544970
20
19.491448
11
36.488012
21
19.637239
0
LINE
8
Image
10
36.488012
20
19.637239
11
36.431581
21
19.780967
0
LINE
8
Image
10
36.431581
20
19.780967
11
36.353855
21
20.041628
0
LINE
8
Image
10
36.353855
20
20.041628
11
36.311343
21
20.197362
0
LINE
8
Image
10
36.311343
20
20.197362
11
36.280988
21
20.303071
0
LINE
8
Image
10
36.280988
20
20.303071
11
36.208592
21
20.539477
0
LINE
8
Image
10
36.208592
20
20.539477
11
35.945586
21
20.548065
0
LINE
8
Image
10
35.945586
20
20.548065
11
35.571520
21
20.456377
0
LINE
8
Image
10
35.571520
20
20.456377
11
35.426063
21
20.423484
0
LINE
8
Image
10
35.426063
20
20.423484
11
35.365755
21
20.451726
0
LINE
8
Image
10
35.365755
20
20.451726
11
35.344504
21
20.497006
0
LINE
8
Image
10
35.344504
20
20.497006
11
35.394034
21
20.562705
0
LINE
8
Image
10
35.394034
20
20.562705
11
35.443710
21
20.644915
0
LINE
8
Image
10
35.443710
20
20.644915
11
35.499218
21
20.745720
0
LINE
8
Image
10
35.499218
20
20.745720
11
35.571726
21
20.883491
0
LINE
8
Image
10
35.571726
20
20.883491
11
35.614189
21
20.968765
0
LINE
8
Image
10
35.614189
20
20.968765
11
35.685081
21
21.093773
0
LINE
8
Image
10
35.685081
20
21.093773
11
35.727022
21
21.176161
0
LINE
8
Image
10
35.727022
20
21.176161
11
35.805183
21
21.332126
0
LINE
8
Image
10
35.805183
20
21.332126
11
35.820649
21
21.476070
0
LINE
8
Image
10
35.820649
20
21.476070
11
35.706947
21
21.618430
0
LINE
8
Image
10
35.706947
20
21.618430
11
35.465690
21
21.823772
0
LINE
8
Image
10
35.465690
20
21.823772
11
35.443818
21
21.853673
0
LINE
8
Image
10
35.443818
20
21.853673
11
35.394141
21
21.904323
0
LINE
8
Image
10
35.394141
20
21.904323
11
35.336588
21
21.960324
0
LINE
8
Image
10
35.336588
20
21.960324
11
35.391110
21
22.038394
0
LINE
8
Image
10
35.391110
20
22.038394
11
35.886700
21
21.952217
0
LINE
8
Image
10
35.886700
20
21.952217
11
36.011394
21
21.908730
0
LINE
8
Image
10
36.011394
20
21.908730
11
36.158429
21
21.838672
0
LINE
8
Image
10
36.158429
20
21.838672
11
36.258415
21
21.793158
0
LINE
8
Image
10
36.258415
20
21.793158
11
36.543502
21
21.628085
0
LINE
8
Image
10
36.543502
20
21.628085
11
36.632249
21
21.573998
0
LINE
8
Image
10
36.632249
20
21.573998
11
36.716902
21
21.504272
0
LINE
8
Image
10
36.716902
20
21.504272
11
36.765085
21
21.457300
0
LINE
8
Image
10
36.765085
20
21.457300
11
36.864885
21
21.361306
0
LINE
8
Image
10
36.864885
20
21.361306
11
36.992080
21
21.218933
0
LINE
8
Image
10
36.992080
20
21.218933
11
37.051798
21
21.124429
0
LINE
8
Image
10
37.051798
20
21.124429
11
37.102615
21
21.037098
0
LINE
8
Image
10
37.102615
20
21.037098
11
37.175219
21
20.916203
0
LINE
8
Image
10
37.175219
20
20.916203
11
37.232253
21
20.814117
0
LINE
8
Image
10
37.232253
20
20.814117
11
37.281518
21
20.692892
0
LINE
8
Image
10
37.281518
20
20.692892
11
37.401852
21
20.499720
0
LINE
8
Image
10
37.401852
20
20.499720
11
37.510025
21
20.523119
0
LINE
8
Image
10
37.510025
20
20.523119
11
37.527664
21
20.765992
0
LINE
8
Image
10
37.527664
20
20.765992
11
37.477158
21
21.054763
0
LINE
8
Image
10
37.477158
20
21.054763
11
37.422452
21
21.225095
0
LINE
8
Image
10
37.422452
20
21.225095
11
37.366400
21
21.397046
0
LINE
8
Image
10
37.366400
20
21.397046
11
37.301895
21
21.547618
0
LINE
8
Image
10
37.301895
20
21.547618
11
37.242944
21
21.659885
0
LINE
8
Image
10
37.242944
20
21.659885
11
37.180920
21
21.779009
0
LINE
8
Image
10
37.180920
20
21.779009
11
37.124072
21
21.887931
0
LINE
8
Image
10
37.124072
20
21.887931
11
37.063685
21
21.995967
0
LINE
8
Image
10
37.063685
20
21.995967
11
36.998995
21
22.108927
0
LINE
8
Image
10
36.998995
20
22.108927
11
36.942959
21
22.189754
0
LINE
8
Image
10
36.942959
20
22.189754
11
36.659902
21
22.501824
0
LINE
8
Image
10
36.659902
20
22.501824
11
36.550662
21
22.573919
0
LINE
8
Image
10
36.550662
20
22.573919
11
36.380612
21
22.745222
0
LINE
8
Image
10
36.380612
20
22.745222
11
36.550662
21
22.811476
0
LINE
8
Image
10
36.550662
20
22.811476
11
36.646649
21
22.870788
0
LINE
8
Image
10
36.646649
20
22.870788
11
36.721573
21
22.997738
0
LINE
8
Image
10
36.721573
20
22.997738
11
36.665868
21
23.254141
0
LINE
8
Image
10
36.665868
20
23.254141
11
36.608729
21
23.362322
0
LINE
8
Image
10
36.608729
20
23.362322
11
36.543491
21
23.469101
0
LINE
8
Image
10
36.543491
20
23.469101
11
36.473444
21
23.583608
0
LINE
8
Image
10
36.473444
20
23.583608
11
36.404000
21
23.713853
0
LINE
8
Image
10
36.404000
20
23.713853
11
36.482303
21
23.743749
0
LINE
8
Image
10
36.482303
20
23.743749
11
36.550612
21
23.709526
0
LINE
8
Image
10
36.550612
20
23.709526
11
36.652553
21
23.644506
0
LINE
8
Image
10
36.652553
20
23.644506
11
36.756572
21
23.564536
0
LINE
8
Image
10
36.756572
20
23.564536
11
36.802413
21
23.514955
0
LINE
8
Image
10
36.802413
20
23.514955
11
36.931673
21
23.372490
0
LINE
8
Image
10
36.931673
20
23.372490
11
37.052241
21
23.237277
0
LINE
8
Image
10
37.052241
20
23.237277
11
37.203464
21
23.045640
0
LINE
8
Image
10
37.203464
20
23.045640
11
37.288497
21
22.943451
0
LINE
8
Image
10
37.288497
20
22.943451
11
37.345258
21
22.847159
0
LINE
8
Image
10
37.345258
20
22.847159
11
37.402013
21
22.763852
0
LINE
8
Image
10
37.402013
20
22.763852
11
37.451692
21
22.696587
0
LINE
8
Image
10
37.451692
20
22.696587
11
37.501372
21
22.624005
0
LINE
8
Image
10
37.501372
20
22.624005
11
37.548455
21
22.560280
0
LINE
8
Image
10
37.548455
20
22.560280
11
37.622273
21
22.450196
0
LINE
8
Image
10
37.622273
20
22.450196
11
37.692540
21
22.320157
0
LINE
8
Image
10
37.692540
20
22.320157
11
37.753695
21
22.213062
0
LINE
8
Image
10
37.753695
20
22.213062
11
37.812019
21
22.124088
0
LINE
8
Image
10
37.812019
20
22.124088
11
37.861699
21
22.036375
0
LINE
8
Image
10
37.861699
20
22.036375
11
37.913134
21
21.952311
0
LINE
8
Image
10
37.913134
20
21.952311
11
37.983362
21
21.845124
0
LINE
8
Image
10
37.983362
20
21.845124
11
38.040004
21
21.759385
0
LINE
8
Image
10
38.040004
20
21.759385
11
38.068884
21
21.711519
0
LINE
8
Image
10
38.068884
20
21.711519
11
38.120581
21
21.607555
0
LINE
8
Image
10
38.120581
20
21.607555
11
38.193614
21
21.485166
0
LINE
8
Image
10
38.193614
20
21.485166
11
38.259045
21
21.382504
0
LINE
8
Image
10
38.259045
20
21.382504
11
38.323628
21
21.279841
0
LINE
8
Image
10
38.323628
20
21.279841
11
38.374087
21
21.197711
0
LINE
8
Image
10
38.374087
20
21.197711
11
38.430201
21
21.101893
0
LINE
8
Image
10
38.430201
20
21.101893
11
38.488677
21
21.006058
0
LINE
8
Image
10
38.488677
20
21.006058
11
38.550972
21
20.897411
0
LINE
8
Image
10
38.550972
20
20.897411
11
38.607470
21
20.811956
0
LINE
8
Image
10
38.607470
20
20.811956
11
38.677490
21
20.728965
0
LINE
8
Image
10
38.677490
20
20.728965
11
38.740685
21
20.636488
0
LINE
8
Image
10
38.740685
20
20.636488
11
38.841283
21
20.488612
0
LINE
8
Image
10
38.841283
20
20.488612
11
38.954053
21
20.354133
0
LINE
8
Image
10
38.954053
20
20.354133
11
39.032319
21
20.265208
0
LINE
8
Image
10
39.032319
20
20.265208
11
39.447521
21
19.847258
0
LINE
8
Image
10
39.447521
20
19.847258
11
39.826221
21
19.666227
0
LINE
8
Image
10
39.826221
20
19.666227
11
40.319336
21
19.699168
0
LINE
8
Image
10
40.319336
20
19.699168
11
40.423806
21
19.735012
0
LINE
8
Image
10
40.423806
20
19.735012
11
40.470130
21
19.743944
0
LINE
8
Image
10
40.470130
20
19.743944
11
40.459716
21
19.684411
0
LINE
8
Image
10
40.459716
20
19.684411
11
40.422637
21
19.564906
0
LINE
8
Image
10
40.422637
20
19.564906
11
40.395967
21
19.485988
0
LINE
8
Image
10
40.395967
20
19.485988
11
40.303074
21
19.367349
0
LINE
8
Image
10
40.303074
20
19.367349
11
39.993251
21
19.161621
0
LINE
8
Image
10
39.993251
20
19.161621
11
39.580820
21
19.293351
0
LINE
8
Image
10
39.580820
20
19.293351
11
39.479742
21
19.215271
0
LINE
8
Image
10
39.479742
20
19.215271
11
39.423611
21
19.102665
0
LINE
8
Image
10
39.423611
20
19.102665
11
39.373570
21
19.003668
0
LINE
8
Image
10
39.373570
20
19.003668
11
39.265572
21
18.857251
0
LINE
8
Image
10
39.265572
20
18.857251
11
39.160639
21
18.768031
0
LINE
8
Image
10
39.160639
20
18.768031
11
39.114699
21
18.735066
0
LINE
8
Image
10
39.114699
20
18.735066
11
38.998322
21
18.672424
0
LINE
8
Image
10
38.998322
20
18.672424
11
38.891193
21
18.623621
0
LINE
8
Image
10
38.891193
20
18.623621
11
38.673332
21
18.562708
0
LINE
8
Image
10
38.673332
20
18.562708
11
38.537160
21
18.458486
0
LINE
8
Image
10
38.537160
20
18.458486
11
38.609025
21
18.233194
0
LINE
8
Image
10
38.609025
20
18.233194
11
38.672203
21
18.085146
0
LINE
8
Image
10
38.672203
20
18.085146
11
38.728698
21
17.905666
0
LINE
8
Image
10
38.728698
20
17.905666
11
38.807142
21
17.577145
0
LINE
8
Image
10
38.807142
20
17.577145
11
38.843077
21
17.387427
0
LINE
8
Image
10
38.843077
20
17.387427
11
38.865288
21
17.038373
0
LINE
8
Image
10
38.865288
20
17.038373
11
38.830592
21
16.660024
0
LINE
8
Image
10
38.830592
20
16.660024
11
38.778762
21
16.457623
0
LINE
8
Image
10
38.778762
20
16.457623
11
38.728673
21
16.290397
0
LINE
8
Image
10
38.728673
20
16.290397
11
38.693214
21
16.194395
0
LINE
8
Image
10
38.693214
20
16.194395
11
38.624107
21
16.053056
0
LINE
8
Image
10
38.624107
20
16.053056
11
38.564496
21
15.964082
0
LINE
8
Image
10
38.564496
20
15.964082
11
38.455606
21
15.909925
0
LINE
8
Image
10
38.455606
20
15.909925
11
38.455570
21
15.909926
0
LINE
8
Image
10
41.759090
20
21.034676
11
41.595915
21
21.080056
0
LINE
8
Image
10
41.595915
20
21.080056
11
41.387810
21
21.149597
0
LINE
8
Image
10
41.387810
20
21.149597
11
41.338184
21
21.178577
0
LINE
8
Image
10
41.338184
20
21.178577
11
41.268585
21
21.228099
0
LINE
8
Image
10
41.268585
20
21.228099
11
41.153718
21
21.301982
0
LINE
8
Image
10
41.153718
20
21.301982
11
41.066201
21
21.355122
0
LINE
8
Image
10
41.066201
20
21.355122
11
40.994110
21
21.406454
0
LINE
8
Image
10
40.994110
20
21.406454
11
40.545710
21
21.837297
0
LINE
8
Image
10
40.545710
20
21.837297
11
40.423460
21
21.977943
0
LINE
8
Image
10
40.423460
20
21.977943
11
40.087249
21
22.366629
0
LINE
8
Image
10
40.087249
20
22.366629
11
40.003407
21
22.471041
0
LINE
8
Image
10
40.003407
20
22.471041
11
39.935648
21
22.558025
0
LINE
8
Image
10
39.935648
20
22.558025
11
39.900049
21
22.600764
0
LINE
8
Image
10
39.900049
20
22.600764
11
39.869879
21
22.652096
0
LINE
8
Image
10
39.869879
20
22.652096
11
39.790984
21
22.765025
0
LINE
8
Image
10
39.790984
20
22.765025
11
39.633324
21
22.961646
0
LINE
8
Image
10
39.633324
20
22.961646
11
39.577797
21
23.046031
0
LINE
8
Image
10
39.577797
20
23.046031
11
39.542341
21
23.143710
0
LINE
8
Image
10
39.542341
20
23.143710
11
39.583470
21
23.200483
0
LINE
8
Image
10
39.583470
20
23.200483
11
39.773580
21
23.169681
0
LINE
8
Image
10
39.773580
20
23.169681
11
39.968872
21
23.134410
0
LINE
8
Image
10
39.968872
20
23.134410
11
40.182610
21
23.066546
0
LINE
8
Image
10
40.182610
20
23.066546
11
40.309398
21
23.018626
0
LINE
8
Image
10
40.309398
20
23.018626
11
40.455891
21
22.961597
0
LINE
8
Image
10
40.455891
20
22.961597
11
40.573978
21
22.901654
0
LINE
8
Image
10
40.573978
20
22.901654
11
40.650923
21
22.848031
0
LINE
8
Image
10
40.650923
20
22.848031
11
40.719322
21
22.798763
0
LINE
8
Image
10
40.719322
20
22.798763
11
40.967988
21
22.625137
0
LINE
8
Image
10
40.967988
20
22.625137
11
41.024424
21
22.572216
0
LINE
8
Image
10
41.024424
20
22.572216
11
41.082347
21
22.517954
0
LINE
8
Image
10
41.082347
20
22.517954
11
41.149891
21
22.454101
0
LINE
8
Image
10
41.149891
20
22.454101
11
41.219425
21
22.381751
0
LINE
8
Image
10
41.219425
20
22.381751
11
41.342982
21
22.230269
0
LINE
8
Image
10
41.342982
20
22.230269
11
41.458047
21
22.086541
0
LINE
8
Image
10
41.458047
20
22.086541
11
41.558549
21
21.988210
0
LINE
8
Image
10
41.558549
20
21.988210
11
41.721648
21
21.930034
0
LINE
8
Image
10
41.721648
20
21.930034
11
41.959984
21
22.023628
0
LINE
8
Image
10
41.959984
20
22.023628
11
42.132907
21
22.024390
0
LINE
8
Image
10
42.132907
20
22.024390
11
42.385606
21
21.930131
0
LINE
8
Image
10
42.385606
20
21.930131
11
42.540425
21
21.991523
0
LINE
8
Image
10
42.540425
20
21.991523
11
42.642790
21
22.097506
0
LINE
8
Image
10
42.642790
20
22.097506
11
42.738328
21
22.217484
0
LINE
8
Image
10
42.738328
20
22.217484
11
42.858061
21
22.359038
0
LINE
8
Image
10
42.858061
20
22.359038
11
42.955797
21
22.458772
0
LINE
8
Image
10
42.955797
20
22.458772
11
43.006871
21
22.512739
0
LINE
8
Image
10
43.006871
20
22.512739
11
43.057070
21
22.561802
0
LINE
8
Image
10
43.057070
20
22.561802
11
43.128379
21
22.629782
0
LINE
8
Image
10
43.128379
20
22.629782
11
43.160786
21
22.669200
0
LINE
8
Image
10
43.160786
20
22.669200
11
43.227823
21
22.714208
0
LINE
8
Image
10
43.227823
20
22.714208
11
43.347440
21
22.785659
0
LINE
8
Image
10
43.347440
20
22.785659
11
43.452118
21
22.857001
0
LINE
8
Image
10
43.452118
20
22.857001
11
43.516290
21
22.901900
0
LINE
8
Image
10
43.516290
20
22.901900
11
43.614992
21
22.949775
0
LINE
8
Image
10
43.614992
20
22.949775
11
43.782985
21
23.018375
0
LINE
8
Image
10
43.782985
20
23.018375
11
43.914156
21
23.065571
0
LINE
8
Image
10
43.914156
20
23.065571
11
44.129299
21
23.134398
0
LINE
8
Image
10
44.129299
20
23.134398
11
44.324591
21
23.169670
0
LINE
8
Image
10
44.324591
20
23.169670
11
44.514704
21
23.200471
0
LINE
8
Image
10
44.514704
20
23.200471
11
44.555736
21
23.142969
0
LINE
8
Image
10
44.555736
20
23.142969
11
44.509604
21
23.034831
0
LINE
8
Image
10
44.509604
20
23.034831
11
44.468332
21
22.967364
0
LINE
8
Image
10
44.468332
20
22.967364
11
44.316051
21
22.779116
0
LINE
8
Image
10
44.316051
20
22.779116
11
44.233998
21
22.668042
0
LINE
8
Image
10
44.233998
20
22.668042
11
44.089286
21
22.471430
0
LINE
8
Image
10
44.089286
20
22.471430
11
44.014271
21
22.373497
0
LINE
8
Image
10
44.014271
20
22.373497
11
43.831594
21
22.149037
0
LINE
8
Image
10
43.831594
20
22.149037
11
43.794279
21
22.102756
0
LINE
8
Image
10
43.794279
20
22.102756
11
43.730341
21
22.034766
0
LINE
8
Image
10
43.730341
20
22.034766
11
43.658163
21
21.964786
0
LINE
8
Image
10
43.658163
20
21.964786
11
43.613603
21
21.916427
0
LINE
8
Image
10
43.613603
20
21.916427
11
43.566184
21
21.859847
0
LINE
8
Image
10
43.566184
20
21.859847
11
43.014118
21
21.347205
0
LINE
8
Image
10
43.014118
20
21.347205
11
42.921925
21
21.286838
0
LINE
8
Image
10
42.921925
20
21.286838
11
42.855492
21
21.245605
0
LINE
8
Image
10
42.855492
20
21.245605
11
42.790937
21
21.204181
0
LINE
8
Image
10
42.790937
20
21.204181
11
42.635165
21
21.131012
0
LINE
8
Image
10
42.635165
20
21.131012
11
42.488153
21
21.077654
0
LINE
8
Image
10
42.488153
20
21.077654
11
42.134190
21
21.027425
0
LINE
8
Image
10
42.134190
20
21.027425
11
41.999395
21
21.032962
0
LINE
8
Image
10
41.999395
20
21.032962
11
41.907162
21
21.021950
0
LINE
8
Image
10
41.907162
20
21.021950
11
41.759185
21
21.034664
0
LINE
8
Image
10
41.759185
20
21.034664
11
41.759090
21
21.034676
0
LINE
8
Image
10
37.167600
20
24.640600
11
37.074653
21
25.043545
0
LINE
8
Image
10
37.074653
20
25.043545
11
37.016806
21
25.296780
0
LINE
8
Image
10
37.016806
20
25.296780
11
36.966508
21
25.411729
0
LINE
8
Image
10
36.966508
20
25.411729
11
36.907264
21
25.529719
0
LINE
8
Image
10
36.907264
20
25.529719
11
36.848946
21
25.638605
0
LINE
8
Image
10
36.848946
20
25.638605
11
36.787966
21
25.724374
0
LINE
8
Image
10
36.787966
20
25.724374
11
36.710400
21
25.785151
0
LINE
8
Image
10
36.710400
20
25.785151
11
36.649629
21
25.817515
0
LINE
8
Image
10
36.649629
20
25.817515
11
36.574112
21
25.838046
0
LINE
8
Image
10
36.574112
20
25.838046
11
36.284962
21
25.839192
0
LINE
8
Image
10
36.284962
20
25.839192
11
36.139623
21
25.810707
0
LINE
8
Image
10
36.139623
20
25.810707
11
36.039014
21
25.833330
0
LINE
8
Image
10
36.039014
20
25.833330
11
36.002223
21
26.084414
0
LINE
8
Image
10
36.002223
20
26.084414
11
36.090019
21
26.643782
0
LINE
8
Image
10
36.090019
20
26.643782
11
36.139180
21
26.755506
0
LINE
8
Image
10
36.139180
20
26.755506
11
36.187725
21
26.877565
0
LINE
8
Image
10
36.187725
20
26.877565
11
36.245668
21
27.022067
0
LINE
8
Image
10
36.245668
20
27.022067
11
36.431689
21
27.341646
0
LINE
8
Image
10
36.431689
20
27.341646
11
36.491381
21
27.443341
0
LINE
8
Image
10
36.491381
20
27.443341
11
36.596164
21
27.591449
0
LINE
8
Image
10
36.596164
20
27.591449
11
36.713831
21
27.739785
0
LINE
8
Image
10
36.713831
20
27.739785
11
36.969200
21
28.020290
0
LINE
8
Image
10
36.969200
20
28.020290
11
37.123448
21
28.160596
0
LINE
8
Image
10
37.123448
20
28.160596
11
37.262143
21
28.281396
0
LINE
8
Image
10
37.262143
20
28.281396
11
37.288305
21
28.315109
0
LINE
8
Image
10
37.288305
20
28.315109
11
37.355562
21
28.381689
0
LINE
8
Image
10
37.355562
20
28.381689
11
37.429656
21
28.437950
0
LINE
8
Image
10
37.429656
20
28.437950
11
37.500398
21
28.486544
0
LINE
8
Image
10
37.500398
20
28.486544
11
37.650337
21
28.588394
0
LINE
8
Image
10
37.650337
20
28.588394
11
37.827702
21
28.700286
0
LINE
8
Image
10
37.827702
20
28.700286
11
37.962500
21
28.776044
0
LINE
8
Image
10
37.962500
20
28.776044
11
38.326137
21
28.951926
0
LINE
8
Image
10
38.326137
20
28.951926
11
38.365739
21
28.971337
0
LINE
8
Image
10
38.365739
20
28.971337
11
38.546697
21
29.061635
0
LINE
8
Image
10
38.546697
20
29.061635
11
38.649790
21
29.103354
0
LINE
8
Image
10
38.649790
20
29.103354
11
38.783552
21
29.151988
0
LINE
8
Image
10
38.783552
20
29.151988
11
39.047971
21
29.220276
0
LINE
8
Image
10
39.047971
20
29.220276
11
39.638207
21
29.294439
0
LINE
8
Image
10
39.638207
20
29.294439
11
39.814201
21
29.309160
0
LINE
8
Image
10
39.814201
20
29.309160
11
40.179331
21
29.309119
0
LINE
8
Image
10
40.179331
20
29.309119
11
40.268259
21
29.235124
0
LINE
8
Image
10
40.268259
20
29.235124
11
40.085913
21
29.184828
0
LINE
8
Image
10
40.085913
20
29.184828
11
39.824090
21
29.084346
0
LINE
8
Image
10
39.824090
20
29.084346
11
39.723128
21
29.047945
0
LINE
8
Image
10
39.723128
20
29.047945
11
39.653605
21
29.020089
0
LINE
8
Image
10
39.653605
20
29.020089
11
39.550667
21
28.963970
0
LINE
8
Image
10
39.550667
20
28.963970
11
39.240248
21
28.775304
0
LINE
8
Image
10
39.240248
20
28.775304
11
39.167268
21
28.733965
0
LINE
8
Image
10
39.167268
20
28.733965
11
38.739552
21
28.395240
0
LINE
8
Image
10
38.739552
20
28.395240
11
38.590564
21
28.260504
0
LINE
8
Image
10
38.590564
20
28.260504
11
38.521671
21
28.192063
0
LINE
8
Image
10
38.521671
20
28.192063
11
38.415251
21
28.085411
0
LINE
8
Image
10
38.415251
20
28.085411
11
38.279375
21
27.948527
0
LINE
8
Image
10
38.279375
20
27.948527
11
38.169783
21
27.829685
0
LINE
8
Image
10
38.169783
20
27.829685
11
37.969580
21
27.582862
0
LINE
8
Image
10
37.969580
20
27.582862
11
37.928737
21
27.525593
0
LINE
8
Image
10
37.928737
20
27.525593
11
37.854244
21
27.423349
0
LINE
8
Image
10
37.854244
20
27.423349
11
37.782055
21
27.320687
0
LINE
8
Image
10
37.782055
20
27.320687
11
37.637275
21
27.107665
0
LINE
8
Image
10
37.637275
20
27.107665
11
37.580782
21
27.012167
0
LINE
8
Image
10
37.580782
20
27.012167
11
37.517503
21
26.897888
0
LINE
8
Image
10
37.517503
20
26.897888
11
37.451406
21
26.802806
0
LINE
8
Image
10
37.451406
20
26.802806
11
37.401930
21
26.742196
0
LINE
8
Image
10
37.401930
20
26.742196
11
37.351582
21
26.633222
0
LINE
8
Image
10
37.351582
20
26.633222
11
37.301278
21
26.538674
0
LINE
8
Image
10
37.301278
20
26.538674
11
37.355194
21
26.482894
0
LINE
8
Image
10
37.355194
20
26.482894
11
37.430386
21
26.414479
0
LINE
8
Image
10
37.430386
20
26.414479
11
37.643227
21
26.195418
0
LINE
8
Image
10
37.643227
20
26.195418
11
37.678401
21
26.138342
0
LINE
8
Image
10
37.678401
20
26.138342
11
37.729678
21
26.027543
0
LINE
8
Image
10
37.729678
20
26.027543
11
37.779154
21
25.872249
0
LINE
8
Image
10
37.779154
20
25.872249
11
37.841570
21
25.500133
0
LINE
8
Image
10
37.841570
20
25.500133
11
37.786057
21
25.235741
0
LINE
8
Image
10
37.786057
20
25.235741
11
37.751076
21
25.127018
0
LINE
8
Image
10
37.751076
20
25.127018
11
37.707616
21
24.990134
0
LINE
8
Image
10
37.707616
20
24.990134
11
37.633821
21
24.860776
0
LINE
8
Image
10
37.633821
20
24.860776
11
37.438848
21
24.681362
0
LINE
8
Image
10
37.438848
20
24.681362
11
37.382039
21
24.647138
0
LINE
8
Image
10
37.382039
20
24.647138
11
37.167674
21
24.640576
0
LINE
8
Image
10
37.167674
20
24.640576
11
37.167600
21
24.640600
0
LINE
8
Image
10
46.643530
20
24.688287
11
46.454811
21
24.878328
0
LINE
8
Image
10
46.454811
20
24.878328
11
46.420927
21
24.933820
0
LINE
8
Image
10
46.420927
20
24.933820
11
46.341296
21
25.159279
0
LINE
8
Image
10
46.341296
20
25.159279
11
46.319085
21
25.229667
0
LINE
8
Image
10
46.319085
20
25.229667
11
46.259273
21
25.535897
0
LINE
8
Image
10
46.259273
20
25.535897
11
46.303021
21
25.828981
0
LINE
8
Image
10
46.303021
20
25.828981
11
46.355184
21
25.993241
0
LINE
8
Image
10
46.355184
20
25.993241
11
46.412432
21
26.127743
0
LINE
8
Image
10
46.412432
20
26.127743
11
46.454802
21
26.199971
0
LINE
8
Image
10
46.454802
20
26.199971
11
46.617986
21
26.370449
0
LINE
8
Image
10
46.617986
20
26.370449
11
46.781158
21
26.541998
0
LINE
8
Image
10
46.781158
20
26.541998
11
46.636948
21
26.811459
0
LINE
8
Image
10
46.636948
20
26.811459
11
46.574795
21
26.906432
0
LINE
8
Image
10
46.574795
20
26.906432
11
46.498798
21
27.038456
0
LINE
8
Image
10
46.498798
20
27.038456
11
46.454811
21
27.115819
0
LINE
8
Image
10
46.454811
20
27.115819
11
46.387413
21
27.220901
0
LINE
8
Image
10
46.387413
20
27.220901
11
46.209740
21
27.468614
0
LINE
8
Image
10
46.209740
20
27.468614
11
45.353628
21
28.397773
0
LINE
8
Image
10
45.353628
20
28.397773
11
45.190840
21
28.542508
0
LINE
8
Image
10
45.190840
20
28.542508
11
44.939688
21
28.726100
0
LINE
8
Image
10
44.939688
20
28.726100
11
44.824561
21
28.800203
0
LINE
8
Image
10
44.824561
20
28.800203
11
44.764925
21
28.842642
0
LINE
8
Image
10
44.764925
20
28.842642
11
44.670649
21
28.897378
0
LINE
8
Image
10
44.670649
20
28.897378
11
44.570979
21
28.952131
0
LINE
8
Image
10
44.570979
20
28.952131
11
44.449528
21
29.017169
0
LINE
8
Image
10
44.449528
20
29.017169
11
44.378527
21
29.048103
0
LINE
8
Image
10
44.378527
20
29.048103
11
44.142485
21
29.151548
0
LINE
8
Image
10
44.142485
20
29.151548
11
44.004622
21
29.184851
0
LINE
8
Image
10
44.004622
20
29.184851
11
43.829777
21
29.248668
0
LINE
8
Image
10
43.829777
20
29.248668
11
44.177424
21
29.319989
0
LINE
8
Image
10
44.177424
20
29.319989
11
44.470009
21
29.295469
0
LINE
8
Image
10
44.470009
20
29.295469
11
45.035875
21
29.222752
0
LINE
8
Image
10
45.035875
20
29.222752
11
45.295926
21
29.157478
0
LINE
8
Image
10
45.295926
20
29.157478
11
45.431189
21
29.109568
0
LINE
8
Image
10
45.431189
20
29.109568
11
45.549254
21
29.061657
0
LINE
8
Image
10
45.549254
20
29.061657
11
45.711210
21
28.983742
0
LINE
8
Image
10
45.711210
20
28.983742
11
45.775060
21
28.951950
0
LINE
8
Image
10
45.775060
20
28.951950
11
45.990855
21
28.862932
0
LINE
8
Image
10
45.990855
20
28.862932
11
46.079955
21
28.815266
0
LINE
8
Image
10
46.079955
20
28.815266
11
46.122703
21
28.785976
0
LINE
8
Image
10
46.122703
20
28.785976
11
46.241967
21
28.713660
0
LINE
8
Image
10
46.241967
20
28.713660
11
46.362580
21
28.647682
0
LINE
8
Image
10
46.362580
20
28.647682
11
46.597778
21
28.486743
0
LINE
8
Image
10
46.597778
20
28.486743
11
46.672897
21
28.435412
0
LINE
8
Image
10
46.672897
20
28.435412
11
46.773086
21
28.359487
0
LINE
8
Image
10
46.773086
20
28.359487
11
46.809544
21
28.316113
0
LINE
8
Image
10
46.809544
20
28.316113
11
46.859223
21
28.267729
0
LINE
8
Image
10
46.859223
20
28.267729
11
46.908900
21
28.226548
0
LINE
8
Image
10
46.908900
20
28.226548
11
46.995934
21
28.135269
0
LINE
8
Image
10
46.995934
20
28.135269
11
47.384243
21
27.739305
0
LINE
8
Image
10
47.384243
20
27.739305
11
47.508404
21
27.581308
0
LINE
8
Image
10
47.508404
20
27.581308
11
47.604182
21
27.445550
0
LINE
8
Image
10
47.604182
20
27.445550
11
47.638972
21
27.376587
0
LINE
8
Image
10
47.638972
20
27.376587
11
47.712239
21
27.268478
0
LINE
8
Image
10
47.712239
20
27.268478
11
47.782527
21
27.172659
0
LINE
8
Image
10
47.782527
20
27.172659
11
47.845677
21
27.035775
0
LINE
8
Image
10
47.845677
20
27.035775
11
47.917951
21
26.854795
0
LINE
8
Image
10
47.917951
20
26.854795
11
47.958890
21
26.750026
0
LINE
8
Image
10
47.958890
20
26.750026
11
48.007071
21
26.641373
0
LINE
8
Image
10
48.007071
20
26.641373
11
48.091018
21
26.120258
0
LINE
8
Image
10
48.091018
20
26.120258
11
48.060818
21
25.835369
0
LINE
8
Image
10
48.060818
20
25.835369
11
47.887352
21
25.825097
0
LINE
8
Image
10
47.887352
20
25.825097
11
47.510797
21
25.836240
0
LINE
8
Image
10
47.510797
20
25.836240
11
47.233601
21
25.611024
0
LINE
8
Image
10
47.233601
20
25.611024
11
47.171825
21
25.502684
0
LINE
8
Image
10
47.171825
20
25.502684
11
47.129458
21
25.413710
0
LINE
8
Image
10
47.129458
20
25.413710
11
47.078074
21
25.299576
0
LINE
8
Image
10
47.078074
20
25.299576
11
47.028499
21
25.073718
0
LINE
8
Image
10
47.028499
20
25.073718
11
46.994753
21
24.845644
0
LINE
8
Image
10
46.994753
20
24.845644
11
46.966255
21
24.729469
0
LINE
8
Image
10
46.966255
20
24.729469
11
46.832208
21
24.613274
0
LINE
8
Image
10
46.832208
20
24.613274
11
46.643557
21
24.688285
0
LINE
8
Image
10
46.643557
20
24.688285
11
46.643530
21
24.688287
 0 
ENDSEC
 0 
EOF